{
	"asset":{
		"copyright":"textures",
		"generator":"Khronos glTF Blender I/O v3.5.30",
		"version":"2.0"
	},
	"extensionsUsed":[
		"KHR_materials_specular",
		"KHR_materials_ior"
	],
	"scene":0,
	"scenes":[
		{
			"name":"Scene",
			"nodes":[
				4,
				5
			]
		}
	],
	"nodes":[
		{
			"mesh":0,
			"name":"Body1.001",
			"scale":[
				10,
				10,
				10
			]
		},
		{
			"mesh":1,
			"name":"Body1",
			"scale":[
				10,
				10,
				10
			]
		},
		{
			"children":[
				1
			],
			"name":"Component1"
		},
		{
			"children":[
				2
			],
			"name":"Component1:1",
			"translation":[
				0,
				-2,
				0
			]
		},
		{
			"children":[
				0,
				3
			],
			"name":"Sensorzinho v62",
			"rotation":[
				2.11437600228237e-05,
				1,
				3.814698175119702e-06,
				4.3792049098101415e-08
			],
			"scale":[
				0.029999999329447746,
				0.029999999329447746,
				0.029999999329447746
			]
		},
		{
			"mesh":2,
			"name":"decal",
			"rotation":[
				0.7071068286895752,
				-2.166348167520482e-05,
				2.1663483494194224e-05,
				0.7071068286895752
			],
			"scale":[
				2.0892112255096436,
				1,
				2.0892112255096436
			],
			"translation":[
				-0.05693010240793228,
				1.1581916809082031,
				0.4292510151863098
			]
		}
	],
	"materials":[
		{
			"doubleSided":true,
			"extensions":{
				"KHR_materials_specular":{
					"specularColorTexture":{
						"index":0
					}
				},
				"KHR_materials_ior":{
					"ior":1.4500000476837158
				}
			},
			"name":"Material",
			"normalTexture":{
				"index":1
			},
			"pbrMetallicRoughness":{
				"baseColorTexture":{
					"index":2
				},
				"metallicRoughnessTexture":{
					"index":3
				}
			}
		},
		{
			"alphaMode":"BLEND",
			"doubleSided":true,
			"name":"decal",
			"pbrMetallicRoughness":{
				"baseColorTexture":{
					"index":4
				},
				"metallicFactor":0,
				"roughnessFactor":0
			}
		}
	],
	"meshes":[
		{
			"name":"Body1.001",
			"primitives":[
				{
					"attributes":{
						"POSITION":0,
						"TEXCOORD_0":1,
						"NORMAL":2
					},
					"indices":3,
					"material":0
				}
			]
		},
		{
			"name":"Body1",
			"primitives":[
				{
					"attributes":{
						"POSITION":4,
						"TEXCOORD_0":5,
						"NORMAL":6
					},
					"indices":7,
					"material":0
				}
			]
		},
		{
			"name":"decal",
			"primitives":[
				{
					"attributes":{
						"POSITION":8,
						"TEXCOORD_0":9,
						"NORMAL":10
					},
					"indices":11,
					"material":1
				}
			]
		}
	],
	"textures":[
		{
			"sampler":0,
			"source":0
		},
		{
			"sampler":0,
			"source":1
		},
		{
			"sampler":0,
			"source":2
		},
		{
			"sampler":0,
			"source":3
		},
		{
			"sampler":1,
			"source":4
		}
	],
	"images":[
		{
			"mimeType":"image/png",
			"name":"Image",
			"uri":"textures/Image.png"
		},
		{
			"mimeType":"image/jpeg",
			"name":"METAL_BLACK_002_4K_Normal",
			"uri":"textures/METAL_BLACK_002_4K_Normal.jpg"
		},
		{
			"mimeType":"image/jpeg",
			"name":"black_baseColor",
			"uri":"textures/black_baseColor.jpg"
		},
		{
			"mimeType":"image/png",
			"name":"METAL_BLACK_002_4K_Metallic.jpg-METAL_BLACK_002_4K_Roughness.jpg",
			"uri":"textures/METAL_BLACK_002_4K_Metallic_jpg-METAL_BLACK_002_4K_Roughness_jpg.png"
		},
		{
			"mimeType":"image/png",
			"name":"decal.png",
			"uri":"textures/decal_png.png"
		}
	],
	"accessors":[
		{
			"bufferView":0,
			"componentType":5126,
			"count":2109,
			"max":[
				6.099999904632568,
				9.303733825683594,
				1.2828147411346436
			],
			"min":[
				-5.599999904632568,
				0.10373355448246002,
				-1.2971851825714111
			],
			"type":"VEC3"
		},
		{
			"bufferView":1,
			"componentType":5126,
			"count":2109,
			"type":"VEC2"
		},
		{
			"bufferView":2,
			"componentType":5126,
			"count":2109,
			"type":"VEC3"
		},
		{
			"bufferView":3,
			"componentType":5123,
			"count":7218,
			"type":"SCALAR"
		},
		{
			"bufferView":4,
			"componentType":5126,
			"count":794,
			"max":[
				6.099999904632568,
				9.50373363494873,
				-1.2971851825714111
			],
			"min":[
				-5.599999904632568,
				0.30373355746269226,
				-1.4171851873397827
			],
			"type":"VEC3"
		},
		{
			"bufferView":5,
			"componentType":5126,
			"count":794,
			"type":"VEC2"
		},
		{
			"bufferView":6,
			"componentType":5126,
			"count":794,
			"type":"VEC3"
		},
		{
			"bufferView":7,
			"componentType":5123,
			"count":3132,
			"type":"SCALAR"
		},
		{
			"bufferView":8,
			"componentType":5126,
			"count":4,
			"max":[
				0.7204503417015076,
				0.00601334311068058,
				0.5000000596046448
			],
			"min":[
				-0.7204504609107971,
				0.005813308991491795,
				-0.5000001192092896
			],
			"type":"VEC3"
		},
		{
			"bufferView":9,
			"componentType":5126,
			"count":4,
			"type":"VEC2"
		},
		{
			"bufferView":10,
			"componentType":5126,
			"count":4,
			"type":"VEC3"
		},
		{
			"bufferView":11,
			"componentType":5123,
			"count":6,
			"type":"SCALAR"
		}
	],
	"bufferViews":[
		{
			"buffer":0,
			"byteLength":25308,
			"byteOffset":0,
			"target":34962
		},
		{
			"buffer":0,
			"byteLength":16872,
			"byteOffset":25308,
			"target":34962
		},
		{
			"buffer":0,
			"byteLength":25308,
			"byteOffset":42180,
			"target":34962
		},
		{
			"buffer":0,
			"byteLength":14436,
			"byteOffset":67488,
			"target":34963
		},
		{
			"buffer":0,
			"byteLength":9528,
			"byteOffset":81924,
			"target":34962
		},
		{
			"buffer":0,
			"byteLength":6352,
			"byteOffset":91452,
			"target":34962
		},
		{
			"buffer":0,
			"byteLength":9528,
			"byteOffset":97804,
			"target":34962
		},
		{
			"buffer":0,
			"byteLength":6264,
			"byteOffset":107332,
			"target":34963
		},
		{
			"buffer":0,
			"byteLength":48,
			"byteOffset":113596,
			"target":34962
		},
		{
			"buffer":0,
			"byteLength":32,
			"byteOffset":113644,
			"target":34962
		},
		{
			"buffer":0,
			"byteLength":48,
			"byteOffset":113676,
			"target":34962
		},
		{
			"buffer":0,
			"byteLength":12,
			"byteOffset":113724,
			"target":34963
		}
	],
	"samplers":[
		{
			"magFilter":9729,
			"minFilter":9987
		},
		{
			"magFilter":9729,
			"minFilter":9987,
			"wrapS":33071,
			"wrapT":33071
		}
	],
	"buffers":[
		{
			"byteLength":113736,
			"uri":"sensor.bin"
		}
	]
}
