<svg width="204" height="312" viewBox="0 0 204 312" fill="none" xmlns="http://www.w3.org/2000/svg">
<g filter="url(#filter0_i_695_445)">
<path d="M190.625 170.198V192.261H121.875V176.502L134.375 163.895L150 179.654L159.375 170.198L168.75 179.654L184.375 163.895L190.625 170.198Z" fill="#EEEEEE"/>
<path d="M190.625 122.921V170.199L184.375 163.895L168.75 179.654L159.375 170.199L150 179.654L134.375 163.895L121.875 176.502V160.743L140.625 141.832L156.25 157.591L190.625 122.921Z" fill="#28A8A5"/>
<path d="M137.5 167.047V192.261H121.875V176.502L134.375 163.895L137.5 167.047Z" fill="#D1D1D1"/>
<path d="M148.438 149.712L137.5 160.743V167.047L134.375 163.895L121.875 176.502V160.743L140.625 141.832L148.438 149.712Z" fill="#219C99"/>
<path d="M190.625 122.921V138.68L171.875 157.591L164.062 149.712L190.625 122.921Z" fill="#219C99"/>
<path d="M46.875 129.225H59.375V179.654H46.875V129.225Z" fill="#EEEEEE"/>
<path d="M21.875 148.136H34.375V179.654H21.875V148.136Z" fill="url(#paint0_diamond_695_445)"/>
<path d="M71.875 116.617H84.375V179.654H71.875V116.617Z" fill="#28A8A5"/>
<path d="M46.875 129.225H53.125V179.654H46.875V129.225Z" fill="#D1D1D1"/>
<path d="M21.875 148.136H28.125V179.654H21.875V148.136Z" fill="url(#paint1_diamond_695_445)"/>
<path d="M71.875 116.617H78.125V179.654H71.875V116.617Z" fill="#219C99"/>
<path d="M99.8672 28.5003C104.034 35.0421 106.25 42.6537 106.25 50.4292H65.625V9.45544C72.4581 9.47992 79.1753 11.2369 85.1589 14.5649C91.1425 17.8929 96.2003 22.685 99.8672 28.5003Z" fill="#28A8A5"/>
<path d="M80.1875 93.4831C76.3919 97.7754 71.7415 101.212 66.5399 103.569C61.3384 105.926 55.7024 107.15 50 107.162C27.7148 107.162 9.375 88.6648 9.375 66.1883C9.375 43.7119 27.7148 25.2146 50 25.2146V66.1883H90.625C90.6132 76.2755 86.8945 86.0003 80.1875 93.4831Z" fill="url(#paint2_diamond_695_445)"/>
<path d="M81.25 12.6467V50.4292H65.625V9.45546C70.9928 9.45149 76.3066 10.5368 81.25 12.6467Z" fill="#219C99"/>
<path d="M57.8203 106.39C55.2449 106.905 52.6256 107.164 50 107.162C27.7148 107.162 9.375 88.6648 9.375 66.1883C9.375 43.7119 27.7148 25.2146 50 25.2146V28.4058C35.375 34.6307 25 49.2827 25 66.1883C25 85.9739 39.2148 102.679 57.8203 106.39Z" fill="url(#paint3_diamond_695_445)"/>
<path d="M92.8348 40.0506L88.4153 35.5932L104.04 19.834C104.33 19.5414 104.675 19.3092 105.054 19.1508C105.433 18.9924 105.84 18.9109 106.25 18.9109H131.25V25.2146H107.544L92.8348 40.0506Z" fill="#EEEEEE"/>
<path d="M131.25 100.858H84.375C83.9647 100.858 83.5583 100.777 83.1791 100.618C82.8 100.46 82.4555 100.228 82.1653 99.9352L66.5403 84.1761L70.9598 79.7186L85.6692 94.5547H131.25V100.858Z" fill="#EEEEEE"/>
<path d="M100 195.413H9.375C8.5462 195.413 7.75134 195.081 7.16529 194.49C6.57924 193.899 6.25 193.097 6.25 192.261V113.466H12.5V189.109H100V195.413Z" fill="#EEEEEE"/>
<path d="M137.5 18.9109H162.5V25.2146H137.5V18.9109Z" fill="#28A8A5"/>
<path d="M137.5 31.5182H162.5V37.8219H137.5V31.5182Z" fill="#28A8A5"/>
<path d="M137.5 44.1255H162.5V50.4291H137.5V44.1255Z" fill="#28A8A5"/>
<path d="M168.75 31.5182H193.75V37.8219H168.75V31.5182Z" fill="#28A8A5"/>
<path d="M168.75 44.1255H193.75V50.4291H168.75V44.1255Z" fill="#28A8A5"/>
<path d="M137.5 94.5547H162.5V100.858H137.5V94.5547Z" fill="url(#paint4_diamond_695_445)"/>
<path d="M168.75 94.5547H193.75V100.858H168.75V94.5547Z" fill="url(#paint5_diamond_695_445)"/>
<path d="M137.5 81.9474H162.5V88.251H137.5V81.9474Z" fill="url(#paint6_diamond_695_445)"/>
<path d="M168.75 81.9474H193.75V88.251H168.75V81.9474Z" fill="url(#paint7_diamond_695_445)"/>
<path d="M137.5 69.3401H162.5V75.6437H137.5V69.3401Z" fill="url(#paint8_diamond_695_445)"/>
<path d="M168.75 69.3401H193.75V75.6437H168.75V69.3401Z" fill="url(#paint9_diamond_695_445)"/>
<path d="M193.75 195.413H109.375C108.546 195.413 107.751 195.081 107.165 194.49C106.579 193.899 106.25 193.097 106.25 192.261V113.466H112.5V189.109H193.75V195.413Z" fill="#EEEEEE"/>
</g>
<g filter="url(#filter1_i_695_445)">
<path d="M23.4666 304.197C21.4666 304.197 19.6586 303.653 18.0426 302.565C16.4266 301.477 15.1386 300.013 14.1786 298.173C13.2346 296.333 12.7626 294.277 12.7626 292.005C12.7626 289.845 13.1946 287.829 14.0586 285.957C14.9386 284.085 16.1786 282.581 17.7786 281.445C19.3786 280.293 21.2746 279.717 23.4666 279.717C25.0346 279.717 26.5466 280.061 28.0026 280.749C29.4746 281.421 30.6666 282.549 31.5786 284.133L30.6666 284.757V267.717H34.9866V303.717H31.1466L30.3306 298.725L31.4346 299.493C30.7466 301.045 29.6666 302.221 28.1946 303.021C26.7226 303.805 25.1466 304.197 23.4666 304.197ZM24.2346 300.357C25.3226 300.357 26.3946 300.077 27.4506 299.517C28.5226 298.957 29.4026 298.069 30.0906 296.853C30.7946 295.621 31.1466 294.005 31.1466 292.005C31.1466 290.149 30.7946 288.597 30.0906 287.349C29.4026 286.085 28.5226 285.141 27.4506 284.517C26.3946 283.877 25.3226 283.557 24.2346 283.557C22.7626 283.557 21.4986 283.925 20.4426 284.661C19.3866 285.397 18.5786 286.405 18.0186 287.685C17.4586 288.949 17.1786 290.389 17.1786 292.005C17.1786 293.525 17.4586 294.917 18.0186 296.181C18.5786 297.445 19.3866 298.461 20.4426 299.229C21.4986 299.981 22.7626 300.357 24.2346 300.357ZM52.0596 304.197C49.2916 304.197 46.9636 303.629 45.0756 302.493C43.1876 301.357 41.7556 299.853 40.7796 297.981C39.8196 296.093 39.3396 294.021 39.3396 291.765C39.3396 289.573 39.7876 287.565 40.6836 285.741C41.5956 283.917 42.9076 282.461 44.6196 281.373C46.3476 280.269 48.4276 279.717 50.8596 279.717C52.8116 279.717 54.5476 280.109 56.0676 280.893C57.6036 281.661 58.8036 282.789 59.6676 284.277C60.5476 285.749 60.9876 287.541 60.9876 289.653C60.9876 289.989 60.9716 290.357 60.9396 290.757C60.9236 291.141 60.8756 291.541 60.7956 291.957H43.7556C43.9636 294.133 44.4836 295.829 45.3156 297.045C46.1476 298.261 47.1956 299.117 48.4596 299.613C49.7236 300.109 51.0996 300.357 52.5876 300.357C53.6756 300.357 54.8116 300.245 55.9956 300.021C57.1796 299.797 58.2996 299.445 59.3556 298.965L59.9316 302.373C59.0196 302.773 57.9076 303.181 56.5956 303.597C55.2836 303.997 53.7716 304.197 52.0596 304.197ZM44.1396 288.981H56.5236C56.5236 287.877 56.3156 286.917 55.8996 286.101C55.4836 285.285 54.8516 284.661 54.0036 284.229C53.1556 283.781 52.0756 283.557 50.7636 283.557C48.8436 283.557 47.3636 284.037 46.3236 284.997C45.2996 285.941 44.5716 287.269 44.1396 288.981ZM85.4353 304.197C83.4353 304.197 81.6273 303.653 80.0113 302.565C78.3953 301.477 77.1073 300.013 76.1473 298.173C75.2033 296.333 74.7313 294.277 74.7313 292.005C74.7313 289.845 75.1633 287.829 76.0273 285.957C76.9073 284.085 78.1473 282.581 79.7473 281.445C81.3473 280.293 83.2433 279.717 85.4353 279.717C87.0033 279.717 88.5153 280.061 89.9713 280.749C91.4433 281.421 92.6353 282.549 93.5473 284.133L92.6353 284.757V267.717H96.9553V303.717H93.1153L92.2993 298.725L93.4033 299.493C92.7153 301.045 91.6353 302.221 90.1633 303.021C88.6913 303.805 87.1153 304.197 85.4353 304.197ZM86.2033 300.357C87.2913 300.357 88.3633 300.077 89.4193 299.517C90.4913 298.957 91.3713 298.069 92.0593 296.853C92.7633 295.621 93.1153 294.005 93.1153 292.005C93.1153 290.149 92.7633 288.597 92.0593 287.349C91.3713 286.085 90.4913 285.141 89.4193 284.517C88.3633 283.877 87.2913 283.557 86.2033 283.557C84.7313 283.557 83.4673 283.925 82.4113 284.661C81.3553 285.397 80.5473 286.405 79.9873 287.685C79.4273 288.949 79.1473 290.389 79.1473 292.005C79.1473 293.525 79.4273 294.917 79.9873 296.181C80.5473 297.445 81.3553 298.461 82.4113 299.229C83.4673 299.981 84.7313 300.357 86.2033 300.357ZM108.22 304.197C106.764 304.197 105.492 303.901 104.404 303.309C103.316 302.717 102.468 301.909 101.86 300.885C101.268 299.861 100.972 298.693 100.972 297.381C100.972 296.053 101.26 294.917 101.836 293.973C102.428 293.013 103.212 292.221 104.188 291.597C105.18 290.957 106.284 290.453 107.5 290.085C108.716 289.701 109.972 289.429 111.268 289.269C112.58 289.093 113.836 288.997 115.036 288.981C115.036 286.741 114.596 285.277 113.716 284.589C112.836 283.901 111.564 283.557 109.9 283.557C109.02 283.557 108.076 283.693 107.068 283.965C106.076 284.237 104.956 284.805 103.708 285.669L103.084 282.165C104.028 281.445 105.204 280.861 106.612 280.413C108.02 279.949 109.5 279.717 111.052 279.717C113.036 279.717 114.636 280.069 115.852 280.773C117.068 281.461 117.956 282.629 118.516 284.277C119.076 285.925 119.356 288.165 119.356 290.997V295.797C119.356 296.917 119.404 297.845 119.5 298.581C119.612 299.301 119.852 299.845 120.22 300.213C120.604 300.565 121.212 300.741 122.044 300.741H122.476L121.804 304.197H121.468C120.076 304.197 118.996 304.061 118.228 303.789C117.476 303.517 116.9 303.125 116.5 302.613C116.1 302.101 115.74 301.477 115.42 300.741C114.54 301.765 113.5 302.597 112.3 303.237C111.1 303.877 109.74 304.197 108.22 304.197ZM109.036 300.741C110.188 300.741 111.3 300.453 112.372 299.877C113.46 299.301 114.348 298.533 115.036 297.573V291.957C112.748 292.037 110.892 292.261 109.468 292.629C108.06 292.997 107.028 293.549 106.372 294.285C105.716 295.021 105.388 295.973 105.388 297.141C105.388 298.405 105.724 299.325 106.396 299.901C107.084 300.461 107.964 300.741 109.036 300.741ZM135.123 304.197C133.123 304.197 131.315 303.653 129.699 302.565C128.083 301.477 126.795 300.013 125.835 298.173C124.891 296.333 124.419 294.277 124.419 292.005C124.419 289.845 124.851 287.829 125.715 285.957C126.595 284.085 127.835 282.581 129.435 281.445C131.035 280.293 132.931 279.717 135.123 279.717C136.691 279.717 138.203 280.061 139.659 280.749C141.131 281.421 142.323 282.549 143.235 284.133L142.323 284.757V267.717H146.643V303.717H142.803L141.987 298.725L143.091 299.493C142.403 301.045 141.323 302.221 139.851 303.021C138.379 303.805 136.803 304.197 135.123 304.197ZM135.891 300.357C136.979 300.357 138.051 300.077 139.107 299.517C140.179 298.957 141.059 298.069 141.747 296.853C142.451 295.621 142.803 294.005 142.803 292.005C142.803 290.149 142.451 288.597 141.747 287.349C141.059 286.085 140.179 285.141 139.107 284.517C138.051 283.877 136.979 283.557 135.891 283.557C134.419 283.557 133.155 283.925 132.099 284.661C131.043 285.397 130.235 286.405 129.675 287.685C129.115 288.949 128.835 290.389 128.835 292.005C128.835 293.525 129.115 294.917 129.675 296.181C130.235 297.445 131.043 298.461 132.099 299.229C133.155 299.981 134.419 300.357 135.891 300.357ZM162.708 304.197C160.244 304.197 158.14 303.653 156.396 302.565C154.668 301.461 153.34 299.989 152.412 298.149C151.5 296.293 151.044 294.229 151.044 291.957C151.044 289.685 151.5 287.629 152.412 285.789C153.34 283.933 154.668 282.461 156.396 281.373C158.14 280.269 160.244 279.717 162.708 279.717C165.156 279.717 167.252 280.269 168.996 281.373C170.74 282.461 172.068 283.933 172.98 285.789C173.908 287.629 174.372 289.685 174.372 291.957C174.372 294.229 173.908 296.293 172.98 298.149C172.068 299.989 170.74 301.461 168.996 302.565C167.252 303.653 165.156 304.197 162.708 304.197ZM162.708 300.357C165.044 300.357 166.836 299.621 168.084 298.149C169.332 296.661 169.956 294.597 169.956 291.957C169.956 289.317 169.332 287.261 168.084 285.789C166.836 284.301 165.044 283.557 162.708 283.557C160.388 283.557 158.596 284.301 157.332 285.789C156.084 287.261 155.46 289.317 155.46 291.957C155.46 294.597 156.084 296.661 157.332 298.149C158.596 299.621 160.388 300.357 162.708 300.357ZM185.498 304.197C183.418 304.197 181.69 303.949 180.314 303.453C178.954 302.957 177.994 302.517 177.434 302.133L177.962 297.957C178.474 298.405 179.378 298.917 180.674 299.493C181.97 300.069 183.514 300.357 185.306 300.357C186.826 300.357 187.986 300.101 188.786 299.589C189.602 299.077 190.01 298.357 190.01 297.429C190.01 296.613 189.746 295.957 189.218 295.461C188.706 294.949 188.082 294.549 187.346 294.261C186.626 293.957 185.946 293.717 185.306 293.541C184.234 293.253 183.122 292.893 181.97 292.461C180.834 292.013 179.874 291.349 179.09 290.469C178.306 289.589 177.914 288.357 177.914 286.773C177.914 285.573 178.202 284.437 178.778 283.365C179.354 282.277 180.29 281.397 181.586 280.725C182.882 280.053 184.602 279.717 186.746 279.717C188.314 279.717 189.586 279.885 190.562 280.221C191.554 280.541 192.41 280.885 193.13 281.253L192.602 285.189C191.914 284.613 191.114 284.125 190.202 283.725C189.29 283.325 188.17 283.125 186.842 283.125C185.498 283.125 184.402 283.381 183.554 283.893C182.706 284.389 182.282 285.189 182.282 286.293C182.282 287.397 182.73 288.181 183.626 288.645C184.538 289.109 185.914 289.621 187.754 290.181C188.33 290.341 188.994 290.573 189.746 290.877C190.514 291.181 191.258 291.589 191.978 292.101C192.698 292.613 193.29 293.285 193.754 294.117C194.234 294.933 194.474 295.957 194.474 297.189C194.474 298.229 194.226 299.293 193.73 300.381C193.234 301.453 192.338 302.357 191.042 303.093C189.746 303.829 187.898 304.197 185.498 304.197Z" fill="#EEEEEE"/>
</g>
<g filter="url(#filter2_i_695_445)">
<path d="M13.5409 217.717H25.4609L34.5809 273.717H25.7809L24.1809 262.597V262.757H14.1809L12.5809 273.717H4.42094L13.5409 217.717ZM23.1409 255.157L19.2209 227.477H19.0609L15.2209 255.157H23.1409ZM38.8503 217.717H49.8903L58.4503 251.237H58.6103V217.717H66.4503V273.717H57.4103L46.8503 232.837H46.6903V273.717H38.8503V217.717ZM79.7909 217.717H91.7109L100.831 273.717H92.0309L90.4309 262.597V262.757H80.4309L78.8309 273.717H70.6709L79.7909 217.717ZM89.3909 255.157L85.4709 227.477H85.3109L81.4709 255.157H89.3909ZM86.5909 204.757H96.1909L87.6309 213.957H80.9909L86.5909 204.757ZM105.1 217.717H113.9V265.717H128.38V273.717H105.1V217.717ZM132.6 217.717H141.4V273.717H132.6V217.717ZM159.431 274.517C155.164 274.517 151.938 273.317 149.751 270.917C147.564 268.463 146.471 264.97 146.471 260.437V257.237H154.791V261.077C154.791 264.703 156.311 266.517 159.351 266.517C160.844 266.517 161.964 266.09 162.711 265.237C163.511 264.33 163.911 262.89 163.911 260.917C163.911 258.57 163.378 256.517 162.311 254.757C161.244 252.943 159.271 250.783 156.391 248.277C152.764 245.077 150.231 242.197 148.791 239.637C147.351 237.023 146.631 234.09 146.631 230.837C146.631 226.41 147.751 222.997 149.991 220.597C152.231 218.143 155.484 216.917 159.751 216.917C163.964 216.917 167.138 218.143 169.271 220.597C171.458 222.997 172.551 226.463 172.551 230.997V233.317H164.231V230.437C164.231 228.517 163.858 227.13 163.111 226.277C162.364 225.37 161.271 224.917 159.831 224.917C156.898 224.917 155.431 226.703 155.431 230.277C155.431 232.303 155.964 234.197 157.031 235.957C158.151 237.717 160.151 239.85 163.031 242.357C166.711 245.557 169.244 248.463 170.631 251.077C172.018 253.69 172.711 256.757 172.711 260.277C172.711 264.863 171.564 268.383 169.271 270.837C167.031 273.29 163.751 274.517 159.431 274.517ZM177.757 217.717H201.757V225.717H186.557V240.517H198.637V248.517H186.557V265.717H201.757V273.717H177.757V217.717Z" fill="#28A8A5"/>
</g>
<defs>
<filter id="filter0_i_695_445" x="0" y="0" width="200" height="205.717" filterUnits="userSpaceOnUse" color-interpolation-filters="sRGB">
<feFlood flood-opacity="0" result="BackgroundImageFix"/>
<feBlend mode="normal" in="SourceGraphic" in2="BackgroundImageFix" result="shape"/>
<feColorMatrix in="SourceAlpha" type="matrix" values="0 0 0 0 0 0 0 0 0 0 0 0 0 0 0 0 0 0 127 0" result="hardAlpha"/>
<feOffset dy="4"/>
<feGaussianBlur stdDeviation="2"/>
<feComposite in2="hardAlpha" operator="arithmetic" k2="-1" k3="1"/>
<feColorMatrix type="matrix" values="0 0 0 0 0 0 0 0 0 0 0 0 0 0 0 0 0 0 0.25 0"/>
<feBlend mode="normal" in2="shape" result="effect1_innerShadow_695_445"/>
</filter>
<filter id="filter1_i_695_445" x="12.7625" y="267.717" width="181.712" height="40.48" filterUnits="userSpaceOnUse" color-interpolation-filters="sRGB">
<feFlood flood-opacity="0" result="BackgroundImageFix"/>
<feBlend mode="normal" in="SourceGraphic" in2="BackgroundImageFix" result="shape"/>
<feColorMatrix in="SourceAlpha" type="matrix" values="0 0 0 0 0 0 0 0 0 0 0 0 0 0 0 0 0 0 127 0" result="hardAlpha"/>
<feOffset dy="4"/>
<feGaussianBlur stdDeviation="2"/>
<feComposite in2="hardAlpha" operator="arithmetic" k2="-1" k3="1"/>
<feColorMatrix type="matrix" values="0 0 0 0 0 0 0 0 0 0 0 0 0 0 0 0 0 0 0.25 0"/>
<feBlend mode="normal" in2="shape" result="effect1_innerShadow_695_445"/>
</filter>
<filter id="filter2_i_695_445" x="4.4209" y="204.757" width="197.336" height="73.76" filterUnits="userSpaceOnUse" color-interpolation-filters="sRGB">
<feFlood flood-opacity="0" result="BackgroundImageFix"/>
<feBlend mode="normal" in="SourceGraphic" in2="BackgroundImageFix" result="shape"/>
<feColorMatrix in="SourceAlpha" type="matrix" values="0 0 0 0 0 0 0 0 0 0 0 0 0 0 0 0 0 0 127 0" result="hardAlpha"/>
<feOffset dy="4"/>
<feGaussianBlur stdDeviation="2"/>
<feComposite in2="hardAlpha" operator="arithmetic" k2="-1" k3="1"/>
<feColorMatrix type="matrix" values="0 0 0 0 0 0 0 0 0 0 0 0 0 0 0 0 0 0 0.25 0"/>
<feBlend mode="normal" in2="shape" result="effect1_innerShadow_695_445"/>
</filter>
<radialGradient id="paint0_diamond_695_445" cx="0" cy="0" r="1" gradientUnits="userSpaceOnUse" gradientTransform="translate(28.125 151.187) rotate(90) scale(28.4666 11.2897)">
<stop stop-color="#28A8A5"/>
<stop offset="1" stop-color="#28A87F"/>
</radialGradient>
<radialGradient id="paint1_diamond_695_445" cx="0" cy="0" r="1" gradientUnits="userSpaceOnUse" gradientTransform="translate(25 151.187) rotate(90) scale(28.4666 5.64486)">
<stop stop-color="#28A8A5"/>
<stop offset="1" stop-color="#28A87F"/>
</radialGradient>
<radialGradient id="paint2_diamond_695_445" cx="0" cy="0" r="1" gradientUnits="userSpaceOnUse" gradientTransform="translate(50 33.1489) rotate(90) scale(74.0131 73.3832)">
<stop stop-color="#28A8A5"/>
<stop offset="1" stop-color="#28A87F"/>
</radialGradient>
<radialGradient id="paint3_diamond_695_445" cx="0" cy="0" r="1" gradientUnits="userSpaceOnUse" gradientTransform="translate(33.5977 33.1489) rotate(90) scale(74.0131 43.7547)">
<stop stop-color="#28A8A5"/>
<stop offset="1" stop-color="#28A87F"/>
</radialGradient>
<radialGradient id="paint4_diamond_695_445" cx="0" cy="0" r="1" gradientUnits="userSpaceOnUse" gradientTransform="translate(150 95.165) rotate(90) scale(5.69331 22.5794)">
<stop stop-color="#28A8A5"/>
<stop offset="1" stop-color="#28A87F"/>
</radialGradient>
<radialGradient id="paint5_diamond_695_445" cx="0" cy="0" r="1" gradientUnits="userSpaceOnUse" gradientTransform="translate(181.25 95.165) rotate(90) scale(5.69331 22.5794)">
<stop stop-color="#28A8A5"/>
<stop offset="1" stop-color="#28A87F"/>
</radialGradient>
<radialGradient id="paint6_diamond_695_445" cx="0" cy="0" r="1" gradientUnits="userSpaceOnUse" gradientTransform="translate(150 82.5577) rotate(90) scale(5.69331 22.5794)">
<stop stop-color="#28A8A5"/>
<stop offset="1" stop-color="#28A87F"/>
</radialGradient>
<radialGradient id="paint7_diamond_695_445" cx="0" cy="0" r="1" gradientUnits="userSpaceOnUse" gradientTransform="translate(181.25 82.5577) rotate(90) scale(5.69331 22.5794)">
<stop stop-color="#28A8A5"/>
<stop offset="1" stop-color="#28A87F"/>
</radialGradient>
<radialGradient id="paint8_diamond_695_445" cx="0" cy="0" r="1" gradientUnits="userSpaceOnUse" gradientTransform="translate(150 69.9504) rotate(90) scale(5.69331 22.5794)">
<stop stop-color="#28A8A5"/>
<stop offset="1" stop-color="#28A87F"/>
</radialGradient>
<radialGradient id="paint9_diamond_695_445" cx="0" cy="0" r="1" gradientUnits="userSpaceOnUse" gradientTransform="translate(181.25 69.9504) rotate(90) scale(5.69331 22.5794)">
<stop stop-color="#28A8A5"/>
<stop offset="1" stop-color="#28A87F"/>
</radialGradient>
</defs>
</svg>
