<svg width="160" height="160" viewBox="0 0 160 160" fill="none" xmlns="http://www.w3.org/2000/svg">
<circle cx="80" cy="80" r="76" stroke="url(#paint0_linear_636_364)" stroke-width="8"/>
<path d="M75.6976 47.8156C76.2868 48.0205 76.8605 48.2588 77.416 48.5285C77.7656 48.6982 78.1804 48.6624 78.5015 48.4434L82.5137 45.7064C82.9484 45.4098 83.5327 45.4645 83.9048 45.8367L87.5573 49.4891C87.9294 49.8612 87.9841 50.4455 87.6875 50.8803L84.9505 54.8926C84.7314 55.2136 84.6956 55.6284 84.8652 55.978C85.135 56.534 85.3734 57.1079 85.5784 57.6973C85.7078 58.0694 86.0308 58.3408 86.4179 58.4139L91.1811 59.3142C91.6982 59.412 92.0727 59.8638 92.0727 60.3901V65.5555C92.0727 66.0818 91.6982 66.5336 91.1811 66.6313L86.4179 67.5317C86.0308 67.6048 85.7078 67.8762 85.5784 68.2482C85.3734 68.8375 85.1351 69.4111 84.8655 69.9666C84.6957 70.3163 84.7315 70.7311 84.9505 71.0521L87.6875 75.0643C87.9841 75.4991 87.9294 76.0834 87.5573 76.4555L83.9048 80.1079C83.5327 80.4801 82.9484 80.5348 82.5137 80.2382L78.5015 77.5012C78.1804 77.2822 77.7656 77.2464 77.416 77.4161C76.8605 77.6858 76.2868 77.9241 75.6976 78.129C75.3255 78.2584 75.0542 78.5814 74.981 78.9685L74.0807 83.7318C73.9829 84.2489 73.5311 84.6233 73.0049 84.6233H67.8384C67.3122 84.6233 66.8603 84.2489 66.7626 83.7318L65.8623 78.9685C65.7891 78.5814 65.5178 78.2584 65.1457 78.129C64.5564 77.9241 63.9828 77.6858 63.4273 77.4161C63.0776 77.2464 62.6629 77.2822 62.3418 77.5012L58.3296 80.2382C57.8948 80.5348 57.3106 80.4801 56.9384 80.1079L53.286 76.4555C52.9139 76.0834 52.8592 75.4991 53.1558 75.0643L55.8927 71.0521C56.1118 70.731 56.1476 70.3163 55.9778 69.9666C55.7082 69.4111 55.4698 68.8375 55.2649 68.2482C55.1355 67.8762 54.8125 67.6048 54.4254 67.5317L49.6621 66.6313C49.145 66.5336 48.7706 66.0818 48.7706 65.5555V60.3901C48.7706 59.8638 49.145 59.412 49.6621 59.3142L54.4254 58.4139C54.8125 58.3408 55.1355 58.0694 55.2649 57.6973C55.4699 57.1079 55.7083 56.534 55.978 55.978C56.1477 55.6284 56.1118 55.2136 55.8928 54.8926L53.1558 50.8803C52.8592 50.4455 52.9139 49.8612 53.286 49.4891L56.9384 45.8367C57.3106 45.4645 57.8948 45.4098 58.3296 45.7064L62.3418 48.4434C62.6629 48.6624 63.0776 48.6982 63.4273 48.5285C63.9828 48.2588 64.5564 48.0205 65.1457 47.8156C65.5178 47.6862 65.7891 47.3631 65.8623 46.9761L66.7626 42.2128C66.8603 41.6957 67.3122 41.3213 67.8384 41.3213H73.0049C73.5311 41.3213 73.9829 41.6957 74.0807 42.2128L74.981 46.9761C75.0542 47.3631 75.3255 47.6862 75.6976 47.8156Z" fill="#EEEEEE"/>
<path d="M79.4317 64.4328C80.2391 59.4523 76.8561 54.7603 71.8756 53.9529C66.895 53.1455 62.203 56.5285 61.3956 61.509C60.5882 66.4896 63.9712 71.1816 68.9518 71.989C73.9323 72.7964 78.6244 69.4134 79.4317 64.4328Z" fill="#08131C"/>
<path d="M61.0334 92.5271L61.1425 92.6959C62.2488 94.4084 62.8373 96.4038 62.8373 98.4426V116.444C62.8373 118.101 64.5795 119.18 66.0632 118.442L76.7684 113.116C77.5266 112.739 78.006 111.965 78.006 111.118V98.4426C78.006 96.4038 78.5944 94.4084 79.7006 92.6959L79.8097 92.5271H61.0334Z" fill="url(#paint1_diamond_636_364)"/>
<path d="M61.0899 92.6144H79.7533L95.2625 68.6045C96.973 65.938 95.061 62.4414 91.8918 62.4414H48.9517C45.7823 62.4414 43.8703 65.938 45.5806 68.6045L61.0899 92.6144Z" fill="url(#paint2_diamond_636_364)"/>
<path d="M99.3057 98.6786C99.6147 98.5291 99.9305 98.3987 100.252 98.2875C100.454 98.2175 100.601 98.0422 100.641 97.8321L101.137 95.2066C101.191 94.9221 101.439 94.7161 101.729 94.7161L104.57 94.7161C104.86 94.7161 105.108 94.9221 105.162 95.2066L105.658 97.8322C105.698 98.0423 105.845 98.2175 106.047 98.2876C106.369 98.3989 106.685 98.5294 106.994 98.679C107.189 98.7734 107.42 98.7533 107.599 98.6312L109.802 97.1284C110.041 96.9653 110.363 96.9954 110.567 97.2001L112.577 99.2095C112.782 99.4143 112.812 99.7357 112.649 99.9749L111.146 102.178C111.024 102.357 111.004 102.588 111.098 102.783C111.247 103.092 111.378 103.408 111.489 103.729C111.559 103.931 111.734 104.079 111.945 104.118L114.57 104.614C114.855 104.668 115.061 104.917 115.061 105.206V108.048C115.061 108.337 114.855 108.586 114.57 108.64L111.945 109.136C111.734 109.176 111.559 109.323 111.489 109.525C111.378 109.846 111.247 110.162 111.098 110.471C111.004 110.666 111.024 110.897 111.146 111.076L112.649 113.279C112.812 113.519 112.782 113.84 112.577 114.045L110.567 116.055C110.362 116.259 110.041 116.289 109.802 116.126L107.599 114.623C107.419 114.501 107.188 114.481 106.993 114.576C106.684 114.725 106.368 114.856 106.047 114.967C105.845 115.037 105.698 115.212 105.658 115.422L105.162 118.048C105.108 118.332 104.86 118.538 104.57 118.538H101.729C101.439 118.538 101.191 118.332 101.137 118.048L100.641 115.422C100.601 115.212 100.454 115.037 100.252 114.967C99.9305 114.856 99.6147 114.725 99.3057 114.576C99.1107 114.481 98.8794 114.501 98.7004 114.623L96.4972 116.126C96.258 116.289 95.9366 116.259 95.7319 116.055L93.7225 114.045C93.5177 113.84 93.4876 113.519 93.6508 113.28L95.1535 111.077C95.2756 110.898 95.2957 110.666 95.2013 110.471C95.0518 110.162 94.9213 109.846 94.8099 109.525C94.7399 109.323 94.5646 109.176 94.3545 109.136L91.7289 108.64C91.4444 108.586 91.2384 108.337 91.2384 108.048V105.206C91.2384 104.917 91.4444 104.668 91.7289 104.614L94.3544 104.118C94.5645 104.079 94.7398 103.931 94.8098 103.729C94.921 103.408 95.0514 103.092 95.2009 102.783C95.2953 102.588 95.2752 102.357 95.1531 102.178L93.6504 99.9749C93.4873 99.7357 93.5174 99.4143 93.7221 99.2095L95.7319 97.1997C95.9366 96.995 96.258 96.9649 96.4972 97.1281L98.7004 98.6308C98.8794 98.7529 99.1106 98.773 99.3057 98.6786Z" fill="url(#paint3_diamond_636_364)"/>
<path d="M106.094 110.67C108.346 109.046 108.855 105.904 107.23 103.652C105.606 101.401 102.465 100.892 100.213 102.516C97.9616 104.14 97.4529 107.282 99.077 109.534C100.701 111.785 103.843 112.294 106.094 110.67Z" fill="#08131C"/>
<path d="M91.9994 81.91C92.198 81.8139 92.4012 81.73 92.6076 81.6585C92.7375 81.6135 92.8323 81.5007 92.8578 81.3656L93.1768 79.6772C93.2114 79.4943 93.3713 79.3618 93.5575 79.3618L95.3848 79.3618C95.571 79.3618 95.7309 79.4943 95.7654 79.6772L96.0844 81.3657C96.11 81.5008 96.2048 81.6135 96.3347 81.6585C96.5412 81.7301 96.7444 81.8141 96.9432 81.9102C97.0686 81.971 97.2173 81.958 97.3324 81.8795L98.7492 80.9131C98.9031 80.8082 99.1097 80.8276 99.2414 80.9592L100.534 82.2514C100.665 82.3831 100.685 82.5898 100.58 82.7436L99.6133 84.1604C99.5348 84.2755 99.5219 84.4242 99.5826 84.5497C99.6787 84.7483 99.7626 84.9515 99.8341 85.1579C99.8791 85.2878 99.9918 85.3826 100.127 85.4081L101.815 85.7271C101.998 85.7617 102.131 85.9216 102.131 86.1077L102.131 87.9351C102.131 88.1213 101.998 88.2812 101.815 88.3157L100.127 88.6347C99.9918 88.6603 99.8791 88.7551 99.8341 88.885C99.7626 89.0914 99.6787 89.2945 99.5826 89.4932C99.5219 89.6187 99.5348 89.7674 99.6133 89.8825L100.58 91.2993C100.685 91.4531 100.665 91.6598 100.534 91.7914L99.2412 93.0839C99.1095 93.2155 98.9028 93.2349 98.749 93.13L97.3322 92.1636C97.2171 92.0851 97.0684 92.0722 96.9429 92.1329C96.7442 92.229 96.5411 92.3129 96.3347 92.3844C96.2048 92.4294 96.11 92.5421 96.0844 92.6773L95.7654 94.3656C95.7309 94.5486 95.571 94.6811 95.3848 94.6811H93.5575C93.3713 94.6811 93.2114 94.5486 93.1768 94.3656L92.8578 92.6772C92.8323 92.5421 92.7375 92.4294 92.6076 92.3844C92.4012 92.3129 92.198 92.229 91.9994 92.1329C91.8739 92.0722 91.7252 92.0851 91.6101 92.1636L90.1933 93.13C90.0395 93.2349 89.8328 93.2155 89.7011 93.0839L88.4089 91.7917C88.2773 91.66 88.2579 91.4533 88.3628 91.2995L89.3292 89.8827C89.4077 89.7676 89.4207 89.6189 89.3599 89.4935C89.2638 89.2947 89.1798 89.0915 89.1082 88.885C89.0632 88.7551 88.9505 88.6603 88.8154 88.6347L87.1269 88.3157C86.944 88.2812 86.8115 88.1213 86.8115 87.9351V86.1077C86.8115 85.9216 86.944 85.7617 87.1269 85.7271L88.8153 85.4081C88.9504 85.3826 89.0632 85.2878 89.1082 85.1579C89.1797 84.9515 89.2636 84.7483 89.3597 84.5497C89.4204 84.4242 89.4075 84.2755 89.3289 84.1604L88.3626 82.7436C88.2577 82.5898 88.277 82.3831 88.4087 82.2514L89.7011 80.959C89.8328 80.8273 90.0395 80.808 90.1933 80.9129L91.6101 81.8792C91.7252 81.9578 91.8739 81.9707 91.9994 81.91Z" fill="url(#paint4_diamond_636_364)"/>
<path d="M96.3624 89.6158C97.8102 88.5714 98.1373 86.551 97.0929 85.1032C96.0486 83.6554 94.0282 83.3283 92.5804 84.3727C91.1326 85.417 90.8055 87.4374 91.8499 88.8852C92.8942 90.333 94.9146 90.6601 96.3624 89.6158Z" fill="#08131C"/>
<path d="M74.859 98.915C75.1032 98.7968 75.3529 98.6937 75.6066 98.6058C75.7663 98.5505 75.8829 98.4119 75.9142 98.2459L76.3064 96.1704C76.3489 95.9456 76.5453 95.7827 76.7742 95.7827H79.0205C79.2493 95.7827 79.4458 95.9456 79.4883 96.1704L79.8805 98.2459C79.9119 98.412 80.0284 98.5505 80.1881 98.6059C80.442 98.6939 80.6918 98.7971 80.936 98.9153C81.0902 98.9899 81.273 98.974 81.4145 98.8775L83.1561 97.6896C83.3452 97.5607 83.5993 97.5845 83.7611 97.7463L85.3495 99.3347C85.5113 99.4965 85.5351 99.7506 85.4062 99.9397L84.2183 101.681C84.1218 101.823 84.1059 102.006 84.1805 102.16C84.2987 102.404 84.4018 102.654 84.4897 102.907C84.545 103.067 84.6835 103.184 84.8496 103.215L86.925 103.607C87.1499 103.65 87.3128 103.846 87.3128 104.075L87.3128 106.321C87.3128 106.55 87.1499 106.747 86.925 106.789L84.8496 107.181C84.6835 107.213 84.545 107.329 84.4897 107.489C84.4018 107.743 84.2987 107.992 84.1805 108.237C84.1059 108.391 84.1217 108.573 84.2183 108.715L85.4062 110.457C85.5351 110.646 85.5113 110.9 85.3495 111.062L83.7608 112.65C83.599 112.812 83.3449 112.836 83.1558 112.707L81.4142 111.519C81.2727 111.423 81.0899 111.407 80.9357 111.481C80.6915 111.599 80.4418 111.703 80.1881 111.79C80.0284 111.846 79.9118 111.984 79.8805 112.15L79.4883 114.226C79.4458 114.451 79.2494 114.614 79.0205 114.614H76.7742C76.5454 114.614 76.3489 114.451 76.3064 114.226L75.9142 112.15C75.8829 111.984 75.7663 111.846 75.6066 111.79C75.3529 111.703 75.1032 111.599 74.859 111.481C74.7048 111.407 74.522 111.423 74.3805 111.519L72.6389 112.707C72.4498 112.836 72.1958 112.812 72.0339 112.65L70.4455 111.062C70.2837 110.9 70.2599 110.646 70.3889 110.457L71.5767 108.715C71.6733 108.574 71.6892 108.391 71.6145 108.237C71.4963 107.993 71.3931 107.743 71.3051 107.489C71.2498 107.329 71.1112 107.213 70.9451 107.181L68.8697 106.789C68.6448 106.747 68.4819 106.55 68.4819 106.321V104.075C68.4819 103.846 68.6448 103.65 68.8697 103.607L70.9451 103.215C71.1112 103.184 71.2497 103.067 71.305 102.907C71.3929 102.654 71.496 102.404 71.6142 102.16C71.6888 102.006 71.673 101.823 71.5764 101.681L70.3886 99.9397C70.2596 99.7506 70.2834 99.4965 70.4452 99.3347L72.0339 97.746C72.1958 97.5842 72.4498 97.5604 72.6389 97.6893L74.3805 98.8772C74.522 98.9737 74.7048 98.9896 74.859 98.915Z" fill="#EEEEEE"/>
<path d="M80.2317 108.394C82.0114 107.11 82.4135 104.627 81.1297 102.847C79.8459 101.067 77.3624 100.665 75.5826 101.949C73.8029 103.233 73.4008 105.716 74.6846 107.496C75.9684 109.276 78.4519 109.678 80.2317 108.394Z" fill="#08131C"/>
<defs>
<linearGradient id="paint0_linear_636_364" x1="80" y1="0" x2="80" y2="160" gradientUnits="userSpaceOnUse">
<stop stop-color="#28A87F"/>
<stop offset="1" stop-color="#28A8A5"/>
</linearGradient>
<radialGradient id="paint1_diamond_636_364" cx="0" cy="0" r="1" gradientUnits="userSpaceOnUse" gradientTransform="translate(70.4216 95.0592) rotate(90) scale(23.6195 16.9583)">
<stop stop-color="#28A8A5"/>
<stop offset="1" stop-color="#28A87F"/>
</radialGradient>
<radialGradient id="paint2_diamond_636_364" cx="0" cy="0" r="1" gradientUnits="userSpaceOnUse" gradientTransform="translate(70.4216 65.3628) rotate(90) scale(27.2516 46.0296)">
<stop stop-color="#28A8A5"/>
<stop offset="1" stop-color="#28A87F"/>
</radialGradient>
<radialGradient id="paint3_diamond_636_364" cx="0" cy="0" r="1" gradientUnits="userSpaceOnUse" gradientTransform="translate(103.149 97.0226) rotate(90) scale(21.5156 21.5156)">
<stop stop-color="#28A8A5"/>
<stop offset="1" stop-color="#28A87F"/>
</radialGradient>
<radialGradient id="paint4_diamond_636_364" cx="0" cy="0" r="1" gradientUnits="userSpaceOnUse" gradientTransform="translate(94.4711 80.8451) rotate(90) scale(13.836)">
<stop stop-color="#28A8A5"/>
<stop offset="1" stop-color="#28A87F"/>
</radialGradient>
</defs>
</svg>
