<svg width="160" height="160" viewBox="0 0 160 160" fill="none" xmlns="http://www.w3.org/2000/svg">
<circle cx="80" cy="80" r="76" stroke="url(#paint0_linear_636_348)" stroke-width="8"/>
<g clip-path="url(#clip0_636_348)">
<path d="M111.041 92.149C110.522 92.149 110.015 92.1954 109.521 92.2804C109.57 91.7612 109.598 91.2353 109.598 90.7033C109.598 81.5863 102.222 74.1958 93.1226 74.1958C84.4171 74.1958 77.2943 80.9619 76.6931 89.5309C75.3284 88.9029 73.8116 88.5506 72.2119 88.5506C66.272 88.5506 61.4569 93.3751 61.4569 99.3267C61.4569 105.278 66.272 110.103 72.2119 110.103H111.041C115.989 110.103 120 106.084 120 101.126C120 96.168 115.989 92.149 111.041 92.149Z" fill="#EEEEEE"/>
<path d="M46.0504 62.4524C50.6555 64.2369 56.828 65.2197 63.4302 65.2197C70.0323 65.2197 76.2048 64.2369 80.8099 62.4524C84.4855 61.0281 86.8604 59.1158 86.8604 57.5802C86.8604 56.0452 84.4855 54.1329 80.8099 52.7087C76.2048 50.9242 70.0323 49.9414 63.4302 49.9414C56.828 49.9414 50.6555 50.9242 46.0504 52.7087C42.3749 54.1329 40 56.0452 40 57.5802C40 59.1158 42.3749 61.0281 46.0504 62.4524Z" fill="url(#paint1_diamond_636_348)"/>
<path d="M46.0504 80.5052C50.6555 82.2897 56.828 83.2725 63.4302 83.2725C67.0215 83.2725 70.4846 82.9808 73.6383 82.4285C74.7797 79.7292 76.4789 77.2726 78.6646 75.2221C81.0303 73.0022 83.8312 71.3834 86.8604 70.4447V64.6472C85.6317 65.4502 84.1748 66.184 82.5006 66.8329C77.3694 68.821 70.5969 69.9163 63.4302 69.9163C56.264 69.9163 49.491 68.821 44.3597 66.8329C42.6855 66.184 41.2286 65.4502 40 64.6472V75.633C40 77.1686 42.3749 79.0809 46.0504 80.5052Z" fill="url(#paint2_diamond_636_348)"/>
<path d="M61.7468 87.9592C55.2087 87.8014 49.0875 86.7288 44.3597 84.8966C42.6855 84.2478 41.2286 83.5145 40 82.7109V93.6974C40 95.2323 42.3749 97.1446 46.0504 98.5689C49.0826 99.7437 52.7942 100.571 56.8597 100.999C56.8005 100.449 56.7694 99.8917 56.7694 99.326C56.7694 94.8367 58.6884 90.7882 61.7468 87.9592Z" fill="url(#paint3_diamond_636_348)"/>
</g>
<defs>
<linearGradient id="paint0_linear_636_348" x1="80" y1="0" x2="80" y2="160" gradientUnits="userSpaceOnUse">
<stop stop-color="#28A87F"/>
<stop offset="1" stop-color="#28A8A5"/>
</linearGradient>
<radialGradient id="paint1_diamond_636_348" cx="0" cy="0" r="1" gradientUnits="userSpaceOnUse" gradientTransform="translate(63.4302 51.4207) rotate(90) scale(13.799 42.3232)">
<stop stop-color="#28A8A5"/>
<stop offset="1" stop-color="#28A87F"/>
</radialGradient>
<radialGradient id="paint2_diamond_636_348" cx="0" cy="0" r="1" gradientUnits="userSpaceOnUse" gradientTransform="translate(63.4302 66.4506) rotate(90) scale(16.8219 42.3232)">
<stop stop-color="#28A8A5"/>
<stop offset="1" stop-color="#28A87F"/>
</radialGradient>
<radialGradient id="paint3_diamond_636_348" cx="0" cy="0" r="1" gradientUnits="userSpaceOnUse" gradientTransform="translate(50.8734 84.4817) rotate(90) scale(16.5176 19.6412)">
<stop stop-color="#28A8A5"/>
<stop offset="1" stop-color="#28A87F"/>
</radialGradient>
<clipPath id="clip0_636_348">
<rect width="80" height="80" fill="white" transform="translate(40 40)"/>
</clipPath>
</defs>
</svg>
