<svg width="160" height="160" viewBox="0 0 160 160" fill="none" xmlns="http://www.w3.org/2000/svg">
<circle cx="80" cy="80" r="76" stroke="url(#paint0_linear_636_401)" stroke-width="8"/>
<path d="M111.25 82.4995C112.917 82.4995 112.917 84.9995 111.25 84.9995H107.5C105.833 84.9995 105.833 82.4995 107.5 82.4995H111.25Z" fill="url(#paint1_diamond_636_401)"/>
<path d="M116.25 87.4995C117.917 87.4995 117.917 89.9995 116.25 89.9995H107.5C105.833 89.9995 105.833 87.4995 107.5 87.4995H116.25Z" fill="url(#paint2_diamond_636_401)"/>
<path d="M116.25 92.4995C117.917 92.4995 117.917 94.9995 116.25 94.9995H107.5C105.833 94.9995 105.833 92.4995 107.5 92.4995H116.25Z" fill="url(#paint3_diamond_636_401)"/>
<path d="M111.25 47.4995C112.917 47.4995 112.917 49.9995 111.25 49.9995H107.5C105.833 49.9995 105.833 47.4995 107.5 47.4995H111.25Z" fill="#28A8A5"/>
<path d="M115.781 52.4995C117.448 52.4995 117.448 54.9995 115.781 54.9995H107.031C105.364 54.9995 105.364 52.4995 107.031 52.4995H115.781Z" fill="#28A8A5"/>
<path d="M115.781 57.4995C117.448 57.4995 117.448 59.9995 115.781 59.9995H107.031C105.364 59.9995 105.364 57.4995 107.031 57.4995H115.781Z" fill="#28A8A5"/>
<path d="M50.0002 42.4995C48.3331 42.4995 48.3331 44.9995 50.0002 44.9995H53.7499C55.417 44.9995 55.417 42.4995 53.7499 42.4995H50.0002Z" fill="#0A9C99"/>
<path d="M43.7502 47.4995C42.0831 47.4995 42.0831 49.9995 43.7502 49.9995H53.7499C55.417 49.9995 55.417 47.4995 53.7499 47.4995H43.7502Z" fill="#0A9C99"/>
<path d="M43.7502 52.4995C42.0831 52.4995 42.0831 54.9995 43.7502 54.9995H53.7499C55.417 54.9995 55.417 52.4995 53.7499 52.4995H43.7502Z" fill="#0A9C99"/>
<path d="M69.0377 95.0855L52.5458 115.7C50.5133 118.21 46.5839 117.984 44.2998 115.7C42.0156 113.416 41.7891 109.487 44.2998 107.454L64.9147 90.9626" fill="#4F4F4F"/>
<path d="M64.9147 90.9639L61.7115 93.5249C63.317 95.0967 65.1489 96.4191 67.1461 97.4482L69.0382 95.085L64.9147 90.9639Z" fill="#313131"/>
<path d="M66.6139 92.6624L50.9287 112.268C48.8962 114.778 44.9678 114.552 42.6836 112.268C42.6441 112.228 42.6168 112.18 42.5785 112.139C42.7488 113.442 43.321 114.723 44.2988 115.7C46.5829 117.984 50.5139 118.211 52.5464 115.7L69.0366 95.0851L66.6139 92.6624Z" fill="#313131"/>
<path d="M79.9989 107.502H69.9989V117.501H79.9989V107.502Z" fill="#28A8A5"/>
<path d="M73.7487 107.501V117.499H80.0002V107.501H73.7487Z" fill="#28A8A5"/>
<path d="M92.4986 102.503H82.4987V117.501H92.4986V102.503Z" fill="url(#paint4_diamond_636_401)"/>
<path d="M86.2484 102.502V117.5H92.5002V102.502H86.2484Z" fill="url(#paint5_diamond_636_401)"/>
<path d="M105 97.5007H95.0002V117.501H105V97.5007Z" fill="#0A9C99"/>
<path d="M95.9004 93.4041C87.1144 102.19 72.8697 102.19 64.0838 93.4041C55.2979 84.6182 55.2979 70.3734 64.0838 61.5875C72.8697 52.8016 87.1144 52.8016 95.9004 61.5875C104.686 70.3734 104.686 84.6182 95.9004 93.4041Z" fill="#4F4F4F"/>
<path d="M98.5574 64.8018C103.31 73.774 101.655 84.797 94.4753 91.977C87.2378 99.2021 76.1139 100.815 67.1218 95.9443C76.0642 102.188 88.1969 101.12 95.9109 93.4102C103.559 85.7516 104.671 73.7332 98.5574 64.8018Z" fill="#313131"/>
<path d="M93.2476 90.7513C85.9268 98.0722 74.0573 98.0722 66.7365 90.7513C59.4156 83.4305 59.4156 71.561 66.7365 64.2402C74.0573 56.9193 85.9268 56.9193 93.2476 64.2402C100.568 71.561 100.568 83.4305 93.2476 90.7513Z" fill="#EEEEEE"/>
<path d="M80.2736 58.7545C75.2063 58.6799 70.3247 60.6597 66.7409 64.2428C59.4179 71.5648 59.4179 83.4369 66.7409 90.7589C67.1459 91.1563 67.5687 91.5351 68.008 91.8941C61.8897 84.4407 62.423 73.562 69.2409 66.7428C76.0991 59.8963 87.0449 59.4041 94.4899 65.6075C94.1015 65.1327 93.6901 64.6772 93.257 64.2428C89.8078 60.7943 85.1506 58.8256 80.2736 58.7545Z" fill="#EEEEEE"/>
<path d="M71.8623 91.5775C65.4896 87.8982 62.3826 80.3974 64.2871 73.2896C66.1917 66.1817 72.6328 61.2393 79.9914 61.2393L79.9914 77.4975L71.8623 91.5775Z" fill="#0A9C99"/>
<path d="M84.9922 56.2397C93.9714 56.2397 101.25 63.5188 101.25 72.498L84.9922 72.498L84.9922 56.2397Z" fill="#28A8A5"/>
<path d="M85.6383 56.2727C92.0085 58.6326 96.24 64.7042 96.2487 71.4973H85.0011V72.4983H101.258C101.248 63.7753 94.3549 56.6152 85.6383 56.2727Z" fill="#28A8A5"/>
<path d="M98.7499 97.4995V117.5H105V97.4995H98.7499Z" fill="#28A8A5"/>
<path d="M96.2479 77.4958C96.2479 83.3043 93.1491 88.6716 88.1188 91.5758C83.0885 94.4801 76.8909 94.4801 71.8606 91.5758L79.9897 77.4958L96.2479 77.4958Z" fill="url(#paint6_diamond_636_401)"/>
<path d="M93.6779 77.4983C93.1689 82.7209 90.1704 87.3768 85.6261 90.0007C81.5051 92.3709 76.5532 92.8187 72.0739 91.2263L71.8688 91.5803C76.8989 94.4841 83.096 94.4841 88.1261 91.5803C93.1574 88.6759 96.2566 83.3076 96.256 77.4983H93.6779Z" fill="url(#paint7_diamond_636_401)"/>
<path d="M98.6216 52.5026C98.2172 52.5461 97.8592 52.7836 97.6619 53.1393L92.6238 62.2098C91.7365 63.6904 94.029 64.9576 94.8107 63.4186L99.489 55.0033H102.497C104.164 55.0033 104.164 52.5026 102.497 52.5026H98.7508C98.7078 52.5004 98.6646 52.5004 98.6216 52.5026Z" fill="#EEEEEE"/>
<path d="M87.0688 85.0845C85.8321 85.1149 85.3861 86.731 86.4322 87.3914L98.0679 94.8009C98.2683 94.9317 98.5021 95.0021 98.7415 95.0039H102.488C104.155 95.0039 104.155 92.5033 102.488 92.5033H99.1013L87.7793 85.2875C87.5684 85.1498 87.3207 85.0791 87.0688 85.0845Z" fill="#EEEEEE"/>
<path d="M87.5001 84.9995C87.5001 86.3802 86.3808 87.4995 85.0001 87.4995C83.6194 87.4995 82.5001 86.3802 82.5001 84.9995C82.5001 83.6188 83.6194 82.4995 85.0001 82.4995C86.3808 82.4995 87.5001 83.6188 87.5001 84.9995Z" fill="#EEEEEE"/>
<path d="M58.6209 52.5026C56.9539 52.5888 57.083 55.0894 58.7501 55.0033H61.749L70.2197 70.8836C71.0071 72.3538 73.2125 71.1727 72.4251 69.7024L63.6037 53.1578C63.3839 52.7517 62.9582 52.4998 62.4964 52.5026H58.7501C58.7071 52.5004 58.664 52.5004 58.6209 52.5026Z" fill="#EEEEEE"/>
<path d="M95.0001 64.9995C95.0001 66.3802 93.8808 67.4995 92.5001 67.4995C91.1194 67.4995 90.0001 66.3802 90.0001 64.9995C90.0001 63.6188 91.1194 62.4995 92.5001 62.4995C93.8808 62.4995 95.0001 63.6188 95.0001 64.9995Z" fill="#EEEEEE"/>
<path d="M70.0001 72.4995C70.0001 73.8802 71.1194 74.9995 72.5001 74.9995C73.8808 74.9995 75.0001 73.8802 75.0001 72.4995C75.0001 71.1188 73.8808 69.9995 72.5001 69.9995C71.1194 69.9995 70.0001 71.1188 70.0001 72.4995Z" fill="#EEEEEE"/>
<path d="M73.7356 70.3291C73.7451 70.4273 73.75 70.5259 73.7502 70.6245C73.7502 72.3504 72.3511 73.7495 70.6252 73.7495C70.5257 73.7486 70.4263 73.7429 70.3274 73.7324C70.771 74.5149 71.6008 74.9988 72.5002 74.9995C73.881 74.9995 75.0002 73.8802 75.0002 72.4995C74.9992 71.6014 74.5164 70.7729 73.7356 70.3291Z" fill="#EEEEEE"/>
<path d="M93.7356 62.8291C93.745 62.9273 93.7502 63.0259 93.7502 63.1245C93.7502 64.8504 92.3511 66.2495 90.6252 66.2495C90.5257 66.2486 90.4263 66.2429 90.3274 66.2324C90.771 67.0149 91.6008 67.4988 92.5002 67.4995C93.881 67.4995 95.0002 66.3802 95.0002 64.9995C94.9991 64.1014 94.5164 63.2729 93.7356 62.8291Z" fill="#EEEEEE"/>
<path d="M86.2356 82.8291C86.2451 82.9273 86.25 83.0259 86.2502 83.1245C86.2502 84.8504 84.8511 86.2495 83.1252 86.2495C83.0257 86.2486 82.9263 86.2429 82.8274 86.2324C83.271 87.0149 84.1008 87.4988 85.0002 87.4995C86.381 87.4995 87.5002 86.3802 87.5002 84.9995C87.4991 84.1014 87.0164 83.2729 86.2356 82.8291Z" fill="#EEEEEE"/>
<defs>
<linearGradient id="paint0_linear_636_401" x1="80" y1="0" x2="80" y2="160" gradientUnits="userSpaceOnUse">
<stop stop-color="#28A87F"/>
<stop offset="1" stop-color="#28A8A5"/>
</linearGradient>
<radialGradient id="paint1_diamond_636_401" cx="0" cy="0" r="1" gradientUnits="userSpaceOnUse" gradientTransform="translate(109.375 82.7416) rotate(90) scale(2.25794 5.64541)">
<stop stop-color="#28A8A5"/>
<stop offset="1" stop-color="#28A87F"/>
</radialGradient>
<radialGradient id="paint2_diamond_636_401" cx="0" cy="0" r="1" gradientUnits="userSpaceOnUse" gradientTransform="translate(111.875 87.7416) rotate(90) scale(2.25795 10.1613)">
<stop stop-color="#28A8A5"/>
<stop offset="1" stop-color="#28A87F"/>
</radialGradient>
<radialGradient id="paint3_diamond_636_401" cx="0" cy="0" r="1" gradientUnits="userSpaceOnUse" gradientTransform="translate(111.875 92.7416) rotate(90) scale(2.25795 10.1613)">
<stop stop-color="#28A8A5"/>
<stop offset="1" stop-color="#28A87F"/>
</radialGradient>
<radialGradient id="paint4_diamond_636_401" cx="0" cy="0" r="1" gradientUnits="userSpaceOnUse" gradientTransform="translate(87.4986 103.955) rotate(90) scale(13.5455 9.03176)">
<stop stop-color="#28A8A5"/>
<stop offset="1" stop-color="#28A87F"/>
</radialGradient>
<radialGradient id="paint5_diamond_636_401" cx="0" cy="0" r="1" gradientUnits="userSpaceOnUse" gradientTransform="translate(89.3743 103.954) rotate(90) scale(13.5455 5.64644)">
<stop stop-color="#28A8A5"/>
<stop offset="1" stop-color="#28A87F"/>
</radialGradient>
<radialGradient id="paint6_diamond_636_401" cx="0" cy="0" r="1" gradientUnits="userSpaceOnUse" gradientTransform="translate(92.0048 76.9772) rotate(135) scale(24.5669 14.6844)">
<stop stop-color="#28A8A5"/>
<stop offset="1" stop-color="#28A87F"/>
</radialGradient>
<radialGradient id="paint7_diamond_636_401" cx="0" cy="0" r="1" gradientUnits="userSpaceOnUse" gradientTransform="translate(84.0624 79.0726) rotate(90) scale(14.6855 22.026)">
<stop stop-color="#28A8A5"/>
<stop offset="1" stop-color="#28A87F"/>
</radialGradient>
</defs>
</svg>
