<svg width="160" height="160" viewBox="0 0 160 160" fill="none" xmlns="http://www.w3.org/2000/svg">
<circle cx="80" cy="80" r="76" stroke="url(#paint0_linear_637_540)" stroke-width="8"/>
<path d="M105 115H65C62.2387 115 60 112.761 60 110V55C60 52.2387 62.2387 50 65 50H105C107.761 50 110 52.2387 110 55V110C110 112.761 107.761 115 105 115Z" fill="url(#paint1_diamond_637_540)"/>
<path d="M105 113.75H65C63.6187 113.75 62.5 112.631 62.5 111.25V56.25C62.5 54.8687 63.6187 53.75 65 53.75H105C106.381 53.75 107.5 54.8687 107.5 56.25V111.25C107.5 112.631 106.381 113.75 105 113.75Z" fill="url(#paint2_diamond_637_540)"/>
<path d="M105 112.5H65C63.6187 112.5 62.5 111.381 62.5 110V55C62.5 53.6187 63.6187 52.5 65 52.5H105C106.381 52.5 107.5 53.6187 107.5 55V110C107.5 111.381 106.381 112.5 105 112.5Z" fill="#08131C"/>
<path d="M100 91.25C101.381 91.25 102.5 90.1307 102.5 88.75C102.5 87.3693 101.381 86.25 100 86.25C98.6193 86.25 97.5 87.3693 97.5 88.75C97.5 90.1307 98.6193 91.25 100 91.25Z" fill="#28A8A5"/>
<path d="M68.75 90H93.75C94.44 90 95 89.44 95 88.75C95 88.06 94.44 87.5 93.75 87.5H68.75C68.06 87.5 67.5 88.06 67.5 88.75C67.5 89.44 68.06 90 68.75 90Z" fill="#28A8A5"/>
<path d="M100 97.5C101.381 97.5 102.5 96.3807 102.5 95C102.5 93.6193 101.381 92.5 100 92.5C98.6193 92.5 97.5 93.6193 97.5 95C97.5 96.3807 98.6193 97.5 100 97.5Z" fill="#28A8A5"/>
<path d="M68.75 96.25H93.75C94.44 96.25 95 95.69 95 95C95 94.31 94.44 93.75 93.75 93.75H68.75C68.06 93.75 67.5 94.31 67.5 95C67.5 95.69 68.06 96.25 68.75 96.25Z" fill="#28A8A5"/>
<path d="M100 103.75C101.381 103.75 102.5 102.631 102.5 101.25C102.5 99.8693 101.381 98.75 100 98.75C98.6193 98.75 97.5 99.8693 97.5 101.25C97.5 102.631 98.6193 103.75 100 103.75Z" fill="#28A8A5"/>
<path d="M68.75 102.5H93.75C94.44 102.5 95 101.94 95 101.25C95 100.56 94.44 100 93.75 100H68.75C68.06 100 67.5 100.56 67.5 101.25C67.5 101.94 68.06 102.5 68.75 102.5Z" fill="#28A8A5"/>
<path d="M100 110C101.381 110 102.5 108.881 102.5 107.5C102.5 106.119 101.381 105 100 105C98.6193 105 97.5 106.119 97.5 107.5C97.5 108.881 98.6193 110 100 110Z" fill="#28A8A5"/>
<path d="M68.75 108.75H93.75C94.44 108.75 95 108.19 95 107.5C95 106.81 94.44 106.25 93.75 106.25H68.75C68.06 106.25 67.5 106.81 67.5 107.5C67.5 108.19 68.06 108.75 68.75 108.75Z" fill="#28A8A5"/>
<path d="M64.9999 84.9999C64.3599 84.9999 63.7199 84.7562 63.2324 84.2674C62.2562 83.2912 62.2562 81.7087 63.2324 80.7324L78.2324 65.7324C79.2074 64.7562 80.7924 64.7562 81.7674 65.7324L89.9999 73.9637L95.7324 68.2324C96.7074 67.2562 98.2924 67.2562 99.2674 68.2324C100.244 69.2087 100.244 70.7912 99.2674 71.7674L91.7674 79.2674C90.7924 80.2437 89.2074 80.2437 88.2324 79.2674L79.9999 71.0362L66.7674 84.2674C66.2799 84.7562 65.6399 84.9999 64.9999 84.9999Z" fill="#28A8A5"/>
<path d="M94.2674 66.7675L100.732 73.2325C102.307 74.8075 105 73.6925 105 71.465V65C105 63.6187 103.881 62.5 102.5 62.5H96.0349C93.8087 62.5 92.6924 65.1925 94.2674 66.7675Z" fill="#28A8A5"/>
<path d="M92.5 51.25V50C92.5 47.9288 90.8212 46.25 88.75 46.25H81.25C79.1788 46.25 77.5 47.9288 77.5 50V51.25H75C73.6187 51.25 72.5 52.3687 72.5 53.75V56.25C72.5 57.6313 73.6187 58.75 75 58.75H95C96.3813 58.75 97.5 57.6313 97.5 56.25V53.75C97.5 52.3687 96.3813 51.25 95 51.25H92.5Z" fill="#28A8A5"/>
<path d="M92.5 50V48.75C92.5 46.6788 90.8212 45 88.75 45H81.25C79.1788 45 77.5 46.6788 77.5 48.75V50H75C73.6187 50 72.5 51.1187 72.5 52.5V55C72.5 56.3813 73.6187 57.5 75 57.5H95C96.3813 57.5 97.5 56.3813 97.5 55V52.5C97.5 51.1187 96.3813 50 95 50H92.5Z" fill="#EEEEEE"/>
<path d="M76.25 55C76.9404 55 77.5 54.4404 77.5 53.75C77.5 53.0596 76.9404 52.5 76.25 52.5C75.5596 52.5 75 53.0596 75 53.75C75 54.4404 75.5596 55 76.25 55Z" fill="#28A8A5"/>
<path d="M93.75 55C94.4404 55 95 54.4404 95 53.75C95 53.0596 94.4404 52.5 93.75 52.5C93.0596 52.5 92.5 53.0596 92.5 53.75C92.5 54.4404 93.0596 55 93.75 55Z" fill="#28A8A5"/>
<path d="M60 95H62.5V100H60V95Z" fill="url(#paint3_diamond_637_540)"/>
<path d="M60 100H62.5C63.19 100 63.75 100.56 63.75 101.25V113.75C63.75 114.44 63.19 115 62.5 115H60C59.31 115 58.75 114.44 58.75 113.75V101.25C58.75 100.56 59.31 100 60 100Z" fill="#EEEEEE"/>
<path d="M62.5 68.8125V98.6875C70.1975 98.05 76.25 91.6125 76.25 83.75C76.25 75.8875 70.1975 69.45 62.5 68.8125Z" fill="#08131C"/>
<path d="M61.25 97.5C69.5343 97.5 76.25 90.7843 76.25 82.5C76.25 74.2157 69.5343 67.5 61.25 67.5C52.9657 67.5 46.25 74.2157 46.25 82.5C46.25 90.7843 52.9657 97.5 61.25 97.5Z" fill="url(#paint4_diamond_637_540)"/>
<path d="M61.25 95C68.1536 95 73.75 89.4036 73.75 82.5C73.75 75.5964 68.1536 70 61.25 70C54.3464 70 48.75 75.5964 48.75 82.5C48.75 89.4036 54.3464 95 61.25 95Z" fill="#08131C"/>
<path d="M66.25 75C63.4887 75 61.25 77.2387 61.25 80C61.25 77.2387 59.0113 75 56.25 75C53.4887 75 51.25 77.2387 51.25 80C51.25 90 61.25 92.5 61.25 92.5C61.25 92.5 71.25 90 71.25 80C71.25 77.2387 69.0113 75 66.25 75Z" fill="#EEEEEE"/>
<path d="M63.75 88.1251C63.7275 88.1251 63.705 88.1238 63.6812 88.1213C63.4212 88.0926 63.2075 87.9051 63.1437 87.6513L61.25 80.0776L59.3562 87.6526C59.2925 87.9063 59.0788 88.0938 58.8188 88.1226C58.5538 88.1488 58.3088 88.0151 58.1913 87.7813L56.0787 83.5576L54.1925 85.4438C54.075 85.5588 53.9163 85.6251 53.75 85.6251H47.5V84.3751H53.4913L55.8088 82.0576C55.95 81.9151 56.1475 81.8488 56.3513 81.8826C56.55 81.9151 56.72 82.0401 56.81 82.2201L58.555 85.7088L60.645 77.3488C60.7838 76.7926 61.7175 76.7926 61.8575 77.3488L63.9475 85.7088L65.6925 82.2201C65.7825 82.0401 65.9525 81.9151 66.1512 81.8826C66.355 81.8526 66.5512 81.9163 66.6937 82.0576L69.0112 84.3751H75V85.6251H68.75C68.5837 85.6251 68.425 85.5588 68.3075 85.4426L66.4212 83.5563L64.3088 87.7801C64.2025 87.9926 63.985 88.1251 63.75 88.1251Z" fill="url(#paint5_diamond_637_540)"/>
<defs>
<linearGradient id="paint0_linear_637_540" x1="80" y1="0" x2="80" y2="160" gradientUnits="userSpaceOnUse">
<stop stop-color="#28A87F"/>
<stop offset="1" stop-color="#28A8A5"/>
</linearGradient>
<radialGradient id="paint1_diamond_637_540" cx="0" cy="0" r="1" gradientUnits="userSpaceOnUse" gradientTransform="translate(85 56.2934) rotate(90) scale(58.7066 45.1589)">
<stop stop-color="#28A8A5"/>
<stop offset="1" stop-color="#28A87F"/>
</radialGradient>
<radialGradient id="paint2_diamond_637_540" cx="0" cy="0" r="1" gradientUnits="userSpaceOnUse" gradientTransform="translate(85 59.5593) rotate(90) scale(54.1907 40.643)">
<stop stop-color="#28A8A5"/>
<stop offset="1" stop-color="#28A87F"/>
</radialGradient>
<radialGradient id="paint3_diamond_637_540" cx="0" cy="0" r="1" gradientUnits="userSpaceOnUse" gradientTransform="translate(61.25 95.4841) rotate(90) scale(4.51589 2.25794)">
<stop stop-color="#28A8A5"/>
<stop offset="1" stop-color="#28A87F"/>
</radialGradient>
<radialGradient id="paint4_diamond_637_540" cx="0" cy="0" r="1" gradientUnits="userSpaceOnUse" gradientTransform="translate(61.25 70.4047) rotate(90) scale(27.0953)">
<stop stop-color="#28A8A5"/>
<stop offset="1" stop-color="#28A87F"/>
</radialGradient>
<radialGradient id="paint5_diamond_637_540" cx="0" cy="0" r="1" gradientUnits="userSpaceOnUse" gradientTransform="translate(61.25 78.0155) rotate(90) scale(10.1104 24.8374)">
<stop stop-color="#28A8A5"/>
<stop offset="1" stop-color="#28A87F"/>
</radialGradient>
</defs>
</svg>
