<svg width="200" height="312" viewBox="0 0 200 312" fill="none" xmlns="http://www.w3.org/2000/svg">
<g filter="url(#filter0_i_695_491)">
<path d="M96.1343 60.6024C96.3101 62.0871 96.4011 63.5977 96.4011 65.0949C96.4011 66.6336 96.307 68.1875 96.1214 69.7117C96.0136 70.5965 95.2519 71.2637 94.3496 71.2637H86.5539C85.4257 71.2637 84.4402 71.9961 84.1011 73.0867C83.6207 74.632 82.996 76.1406 82.2453 77.5703C81.714 78.5816 81.8929 79.7973 82.6906 80.5949L88.1999 86.1047C88.8382 86.743 88.905 87.7539 88.355 88.4563C86.4527 90.8863 84.2566 93.0824 81.8277 94.9832C81.5171 95.2266 81.1433 95.3547 80.7464 95.3547C80.2667 95.3547 79.8156 95.1676 79.4761 94.8281L73.9667 89.3188C73.4855 88.8375 72.8433 88.5723 72.1589 88.5723C71.7382 88.5723 71.3175 88.6766 70.9421 88.8734C69.5117 89.6246 68.0035 90.2488 66.4585 90.7293C65.3683 91.0684 64.6359 92.0543 64.6359 93.182V100.978C64.6359 101.88 63.9687 102.642 63.0839 102.75C61.5593 102.935 60.0062 103.029 58.4671 103.029C56.9281 103.029 55.3746 102.935 53.8503 102.75C52.9656 102.642 52.2984 101.88 52.2984 100.978V93.182C52.2984 92.0539 51.566 91.0684 50.4753 90.7293C48.93 90.2488 47.4218 89.6246 45.9917 88.8734C45.6164 88.6762 45.1957 88.5723 44.775 88.5723C44.0906 88.5723 43.4484 88.8375 42.9671 89.3188L37.457 94.8281C37.1175 95.1676 36.6664 95.3547 36.1867 95.3547C35.7898 95.3547 35.416 95.2262 35.1054 94.9832C33.5792 93.7887 32.1457 92.4777 30.8187 91.066C26.7695 99.0172 24.4851 108.018 24.4851 117.553C24.4851 149.832 50.6531 176 82.9328 176C115.212 176 141.38 149.832 141.38 117.553C141.38 89.8129 122.055 66.5867 96.1343 60.6024Z" fill="url(#paint0_diamond_695_491)"/>
<path d="M33.5781 117.553C33.5781 109.004 35.4195 100.886 38.7183 93.5672L37.457 94.8282C37.1175 95.1676 36.6664 95.3547 36.1867 95.3547C35.7898 95.3547 35.416 95.2262 35.1054 94.9832C33.5792 93.7887 32.1457 92.4778 30.8187 91.066C26.7695 99.0172 24.4851 108.018 24.4851 117.553C24.4851 149.832 50.6531 176 82.9328 176C84.4492 176 85.95 175.936 87.4371 175.822C57.3023 173.481 33.5781 148.288 33.5781 117.553Z" fill="url(#paint1_diamond_695_491)"/>
<path d="M84.4777 72.3308C84.316 72.5558 84.1871 72.8089 84.1011 73.0863C83.6207 74.6316 82.996 76.1402 82.2453 77.5699C81.714 78.5812 81.8929 79.7968 82.6906 80.5945L88.1999 86.1043C88.8382 86.7425 88.905 87.7535 88.355 88.4558C86.4527 90.8859 84.2566 93.082 81.8277 94.9828C81.5171 95.2261 81.1433 95.3542 80.7464 95.3542C80.2667 95.3542 79.8156 95.1671 79.4761 94.8277L73.9667 89.3183C73.4855 88.8371 72.8433 88.5718 72.1589 88.5718C71.7382 88.5718 71.3175 88.6761 70.9421 88.873C69.5117 89.6242 68.0035 90.2484 66.4585 90.7289C65.3683 91.0679 64.6359 92.0539 64.6359 93.1816V100.977C64.6359 101.88 63.9687 102.641 63.0839 102.749C61.5593 102.935 60.0062 103.029 58.4671 103.029C56.9281 103.029 55.3746 102.935 53.8503 102.749C52.9656 102.641 52.2984 101.88 52.2984 100.977V93.1816C52.2984 92.0535 51.566 91.0679 50.4753 90.7289C49.4238 90.4019 48.3917 90.0031 47.3871 89.5484C41.3097 97.2519 37.6824 106.978 37.6824 117.552C37.6824 142.544 57.9417 162.803 82.9331 162.803C107.925 162.803 128.184 142.544 128.184 117.553C128.184 93.0785 108.753 73.1457 84.4777 72.3308Z" fill="white"/>
<path d="M54.5752 117.553C54.5752 112.46 55.4186 107.564 56.9698 102.996C55.9252 102.955 54.8807 102.875 53.8495 102.75C52.9647 102.642 52.2975 101.88 52.2975 100.978V93.182C52.2975 92.0539 51.5651 91.0684 50.4745 90.7293C49.4229 90.4023 48.3909 90.0039 47.3866 89.5488C41.3092 97.2523 37.6819 106.979 37.6819 117.552C37.6819 142.544 57.9413 162.803 82.9327 162.803C85.8198 162.803 88.6424 162.53 91.3795 162.013C70.4252 158.056 54.5752 139.657 54.5752 117.553Z" fill="#EEF5F6"/>
<path d="M70.3807 141.623C69.8722 141.623 69.3569 141.49 68.8878 141.212C67.4964 140.386 67.0382 138.588 67.864 137.197L80.4132 116.057C81.2323 114.676 83.0104 114.212 84.4003 115.017L99.7022 123.876C101.103 124.687 101.58 126.479 100.77 127.88C99.9589 129.28 98.1663 129.758 96.7663 128.947L83.9722 121.54L72.9022 140.188C72.3554 141.111 71.3807 141.623 70.3807 141.623Z" fill="#08131C"/>
<path d="M95.3059 70.9856C95.0277 71.1606 94.7 71.2637 94.3492 71.2637H86.5535C85.4254 71.2637 84.4398 71.9961 84.1008 73.0868C83.8746 73.8137 83.6141 74.5313 83.3262 75.2376C89.8383 75.2973 96.0035 76.8336 101.502 79.5301L101.302 79.8762C100.493 81.2774 100.973 83.0692 102.375 83.8782C102.836 84.1446 103.34 84.2711 103.837 84.2711C104.849 84.2711 105.834 83.7454 106.377 82.8059L106.573 82.4661C111.08 85.5129 114.972 89.4047 118.019 93.9125L117.679 94.1086C116.278 94.9176 115.798 96.7094 116.607 98.1106C117.15 99.0504 118.134 99.5758 119.147 99.5758C119.644 99.5758 120.148 99.4493 120.609 99.1829L120.955 98.9829C123.299 103.763 124.767 109.046 125.15 114.623H116.949C115.331 114.623 114.019 115.935 114.019 117.553C114.019 119.171 115.331 120.482 116.949 120.482H125.15C124.767 126.06 123.299 131.343 120.955 136.123L120.609 135.923C119.207 135.113 117.416 135.594 116.607 136.995C115.798 138.396 116.278 140.188 117.679 140.997L118.019 141.193C114.972 145.701 111.08 149.593 106.573 152.64L106.377 152.3C105.568 150.898 103.775 150.418 102.375 151.227C100.973 152.036 100.493 153.828 101.302 155.229L101.502 155.575C96.7227 157.919 91.4395 159.387 85.8621 159.77V151.654C85.8621 150.036 84.5504 148.724 82.9324 148.724C81.3144 148.724 80.0027 150.036 80.0027 151.654V159.77C74.4254 159.387 69.1426 157.919 64.3625 155.575L64.5625 155.229C65.3715 153.828 64.8914 152.036 63.4902 151.227C62.0879 150.418 60.2969 150.898 59.4883 152.3L59.2922 152.64C54.7844 149.593 50.8926 145.7 47.8457 141.193L48.1855 140.997C49.5867 140.188 50.0668 138.396 49.2578 136.995C48.4488 135.594 46.657 135.113 45.2559 135.923L44.9098 136.123C42.566 131.343 41.098 126.06 40.7148 120.483H48.9418C50.5598 120.483 51.8715 119.171 51.8715 117.553C51.8715 115.935 50.5598 114.623 48.9418 114.623H40.7148C41.3375 105.561 44.8281 97.2747 50.2805 90.6645C48.8035 90.1926 47.3613 89.5934 45.9914 88.8743C45.616 88.677 45.1953 88.5731 44.7746 88.5731C44.6652 88.5731 44.5578 88.5821 44.4508 88.5958C38.3652 96.6625 34.752 106.694 34.752 117.554C34.752 144.12 56.3656 165.734 82.9324 165.734C109.499 165.734 131.113 144.12 131.113 117.554C131.113 95.2622 115.896 76.4614 95.3059 70.9856Z" fill="url(#paint2_diamond_695_491)"/>
<path d="M82.9664 49.8715L88.4761 44.3618C89.2496 43.5883 89.3367 42.3543 88.6625 41.4934C86.7398 39.0371 84.5246 36.8215 82.0683 34.8993C81.207 34.225 79.973 34.3122 79.2 35.0856L73.6902 40.5954C73.0113 41.2743 71.9734 41.4172 71.1234 40.9707C69.6789 40.2121 68.1574 39.5797 66.5742 39.0875C65.6582 38.8028 65.0261 37.9672 65.0261 37.0078V29.2125C65.0261 28.1192 64.2164 27.1848 63.1308 27.0528C61.6019 26.8668 60.0457 26.77 58.4667 26.77C56.8878 26.77 55.3312 26.8664 53.8027 27.0528C52.7171 27.1848 51.9074 28.1192 51.9074 29.2125V37.0078C51.9074 37.9672 51.2753 38.8028 50.3593 39.0875C48.7761 39.5797 47.2546 40.2118 45.8101 40.9707C44.9601 41.4172 43.9222 41.2739 43.2433 40.5954L37.7335 35.0856C36.9601 34.3122 35.7261 34.225 34.8652 34.8993C32.4089 36.8219 30.1937 39.0371 28.271 41.4934C27.5968 42.3547 27.6839 43.5887 28.4574 44.3618L33.9671 49.8715C34.646 50.5504 34.789 51.5883 34.3425 52.4383C33.5839 53.8829 32.9515 55.4043 32.4593 56.9875C32.1746 57.9036 31.339 58.5356 30.3796 58.5356H22.5839C21.4906 58.5356 20.5562 59.3454 20.4242 60.4309C20.2378 61.9598 20.1414 63.5161 20.1414 65.095C20.1414 66.6739 20.2378 68.2305 20.4242 69.759C20.5562 70.8446 21.4906 71.6543 22.5839 71.6543H30.3792C31.3386 71.6543 32.1742 72.2864 32.4589 73.2024C32.9511 74.7856 33.5835 76.3071 34.3421 77.7516C34.7886 78.6016 34.6453 79.6395 33.9667 80.3184L28.457 85.8282C27.6835 86.6016 27.5964 87.8356 28.2707 88.6965C30.1933 91.1528 32.4085 93.3684 34.8648 95.2907C35.7261 95.9649 36.9601 95.8778 37.7332 95.1043L43.2429 89.5946C43.9218 88.9157 44.9597 88.7727 45.8097 89.2192C47.2542 89.9782 48.7757 90.6102 50.3589 91.1024C51.275 91.3871 51.907 92.2227 51.907 93.1821V100.977C51.907 102.071 52.7168 103.005 53.8023 103.137C55.3312 103.323 56.8875 103.42 58.4664 103.42C60.0453 103.42 61.6019 103.323 63.1304 103.137C64.216 103.005 65.0257 102.071 65.0257 100.977V93.1821C65.0257 92.2227 65.6578 91.3871 66.5738 91.1024C68.157 90.6102 69.6785 89.9782 71.123 89.2192C71.973 88.7727 73.0109 88.9161 73.6898 89.5946L79.1996 95.1043C79.973 95.8778 81.207 95.9649 82.0679 95.2907C84.5242 93.368 86.7394 91.1528 88.6621 88.6965C89.3363 87.8352 89.2492 86.6012 88.4757 85.8282L82.966 80.3184C82.2871 79.6395 82.1441 78.6016 82.5906 77.7516C83.3492 76.3071 83.9816 74.7856 84.4738 73.2024C84.7585 72.2864 85.5941 71.6543 86.5535 71.6543H94.3488C95.4421 71.6543 96.3765 70.8446 96.5085 69.759C96.6949 68.2301 96.7914 66.6739 96.7914 65.095C96.7914 63.5161 96.6949 61.9594 96.5085 60.4309C96.3765 59.3454 95.4421 58.5356 94.3488 58.5356H86.5535C85.5941 58.5356 84.7585 57.9036 84.4738 56.9875C83.9816 55.4043 83.3492 53.8829 82.5906 52.4383C82.1441 51.5883 82.2875 50.5504 82.9664 49.8715Z" fill="#7CA1B1"/>
<path d="M41.7867 76.3234C39.6195 73.1145 38.3527 69.25 38.3527 65.0949C38.3527 60.9398 39.6195 57.0754 41.7867 53.8664C45.5621 43.7445 54.2898 36.0363 65.0257 33.6902V29.2121C65.0257 28.1188 64.216 27.1844 63.1304 27.0523C61.6015 26.8664 60.0453 26.7695 58.4664 26.7695C56.8874 26.7695 55.3308 26.866 53.8023 27.0523C52.7167 27.1844 51.907 28.1188 51.907 29.2121V37.0074C51.907 37.9668 51.275 38.8023 50.3589 39.0871C48.7757 39.5793 47.2542 40.2113 45.8097 40.9703C44.9597 41.4168 43.9218 41.2734 43.2429 40.5949L37.7332 35.0852C36.9597 34.3117 35.7257 34.2246 34.8648 34.8988C32.4085 36.8215 30.1929 39.0367 28.2707 41.493C27.5964 42.3543 27.6835 43.5883 28.457 44.3613L33.9667 49.8711C34.6457 50.55 34.7886 51.5879 34.3421 52.4379C33.5832 53.8824 32.9511 55.4039 32.4589 56.9871C32.1742 57.9031 31.3386 58.5352 30.3792 58.5352H22.5839C21.4906 58.5352 20.5562 59.3449 20.4242 60.4305C20.2382 61.9594 20.1414 63.5156 20.1414 65.0945C20.1414 66.6734 20.2378 68.2301 20.4242 69.7586C20.5562 70.8441 21.4906 71.6539 22.5839 71.6539H30.3792C31.3386 71.6539 32.1742 72.2859 32.4589 73.202C32.9511 74.7852 33.5832 76.3066 34.3421 77.7512C34.7886 78.6012 34.6453 79.6391 33.9667 80.318L28.457 85.8281C27.6835 86.6016 27.5964 87.8355 28.2707 88.6965C30.1933 91.1527 32.4085 93.368 34.8648 95.2906C35.7261 95.9648 36.9601 95.8777 37.7332 95.1043L43.2429 89.5945C43.9218 88.9156 44.9597 88.7727 45.8097 89.2191C47.2542 89.9781 48.7757 90.6101 50.3589 91.1023C51.275 91.3871 51.907 92.2227 51.907 93.182V100.977C51.907 102.071 52.7167 103.005 53.8023 103.137C55.3312 103.323 56.8874 103.42 58.4664 103.42C60.0453 103.42 61.6015 103.323 63.1304 103.137C64.216 103.005 65.0257 102.071 65.0257 100.977V96.4992C54.2898 94.1535 45.5624 86.4457 41.7867 76.3234Z" fill="#678D98"/>
<path d="M58.4663 82.2785C67.9565 82.2785 75.6499 74.5851 75.6499 65.0949C75.6499 55.6047 67.9565 47.9113 58.4663 47.9113C48.9761 47.9113 41.2827 55.6047 41.2827 65.0949C41.2827 74.5851 48.9761 82.2785 58.4663 82.2785Z" fill="#3E5959"/>
<path d="M51.3562 65.0949C51.3562 57.3574 56.4711 50.816 63.5035 48.6629C61.9105 48.175 60.2195 47.9113 58.4668 47.9113C48.9766 47.9113 41.2832 55.6047 41.2832 65.0953C41.2832 74.5855 48.9766 82.2789 58.4668 82.2789C60.2195 82.2789 61.9105 82.0148 63.5035 81.5273C56.4707 79.3742 51.3562 72.8324 51.3562 65.0949Z" fill="#384949"/>
<path d="M58.4665 85.2086C47.3758 85.2086 38.3528 76.1855 38.3528 65.0949C38.3528 54.0043 47.3758 44.9816 58.4665 44.9816C69.5571 44.9816 78.5797 54.0047 78.5797 65.0949C78.5801 76.1855 69.5571 85.2086 58.4665 85.2086ZM58.4665 50.841C50.6067 50.841 44.2122 57.2355 44.2122 65.0949C44.2122 72.9547 50.6067 79.3492 58.4665 79.3492C66.3262 79.3492 72.7204 72.9547 72.7204 65.0949C72.7207 57.2351 66.3262 50.841 58.4665 50.841Z" fill="#08131C"/>
<path d="M58.4663 71.0609C61.7612 71.0609 64.4323 68.3899 64.4323 65.0949C64.4323 61.8 61.7612 59.1289 58.4663 59.1289C55.1713 59.1289 52.5002 61.8 52.5002 65.0949C52.5002 68.3899 55.1713 71.0609 58.4663 71.0609Z" fill="#08131C"/>
<path d="M173.718 166.811C173.718 167.561 173.432 168.311 172.86 168.883C171.716 170.027 169.861 170.027 168.717 168.883L160.903 161.069L153.088 168.883C151.944 170.027 150.089 170.027 148.945 168.883C147.801 167.739 147.801 165.884 148.945 164.74L158.832 154.854C159.976 153.71 161.831 153.71 162.975 154.854L172.86 164.74C173.432 165.312 173.718 166.062 173.718 166.811Z" fill="url(#paint3_diamond_695_491)"/>
<path d="M173.718 145.804C173.718 146.553 173.432 147.303 172.86 147.875C171.716 149.019 169.861 149.019 168.717 147.875L160.903 140.061L153.088 147.875C151.944 149.019 150.089 149.019 148.945 147.875C147.801 146.731 147.801 144.876 148.945 143.732L158.832 133.846C159.381 133.296 160.126 132.988 160.903 132.988C161.68 132.988 162.425 133.296 162.975 133.846L172.86 143.732C173.432 144.304 173.718 145.054 173.718 145.804Z" fill="url(#paint4_diamond_695_491)"/>
<path d="M173.718 124.796C173.718 125.545 173.432 126.295 172.86 126.867C171.716 128.011 169.861 128.011 168.717 126.867L160.903 119.053L153.088 126.867C151.944 128.011 150.089 128.011 148.945 126.867C147.801 125.723 147.801 123.868 148.945 122.724L158.832 112.838C159.976 111.694 161.831 111.694 162.975 112.838L172.86 122.724C173.432 123.296 173.718 124.046 173.718 124.796Z" fill="url(#paint5_diamond_695_491)"/>
</g>
<g filter="url(#filter1_i_695_491)">
<path d="M25.6377 278.48C22.8697 278.48 20.5417 277.912 18.6537 276.776C16.7657 275.64 15.3337 274.136 14.3577 272.264C13.3977 270.376 12.9177 268.304 12.9177 266.048C12.9177 263.856 13.3657 261.848 14.2617 260.024C15.1737 258.2 16.4857 256.744 18.1977 255.656C19.9257 254.552 22.0057 254 24.4377 254C26.3897 254 28.1257 254.392 29.6457 255.176C31.1817 255.944 32.3817 257.072 33.2457 258.56C34.1257 260.032 34.5657 261.824 34.5657 263.936C34.5657 264.272 34.5497 264.64 34.5177 265.04C34.5017 265.424 34.4537 265.824 34.3737 266.24H17.3337C17.5417 268.416 18.0617 270.112 18.8937 271.328C19.7257 272.544 20.7737 273.4 22.0377 273.896C23.3017 274.392 24.6777 274.64 26.1657 274.64C27.2537 274.64 28.3897 274.528 29.5737 274.304C30.7577 274.08 31.8777 273.728 32.9337 273.248L33.5097 276.656C32.5977 277.056 31.4857 277.464 30.1737 277.88C28.8617 278.28 27.3497 278.48 25.6377 278.48ZM17.7177 263.264H30.1017C30.1017 262.16 29.8937 261.2 29.4777 260.384C29.0617 259.568 28.4297 258.944 27.5817 258.512C26.7337 258.064 25.6537 257.84 24.3417 257.84C22.4217 257.84 20.9417 258.32 19.9017 259.28C18.8777 260.224 18.1497 261.552 17.7177 263.264ZM40.5522 278V257.84H36.4722L37.0482 254.48H40.5522V248.912C40.5522 246.816 41.1122 245.144 42.2322 243.896C43.3522 242.632 45.0002 242 47.1762 242C47.9762 242 48.6722 242.056 49.2642 242.168C49.8722 242.28 50.4242 242.432 50.9202 242.624L50.2482 246.272C49.8642 246.128 49.4882 246.024 49.1202 245.96C48.7522 245.88 48.3282 245.84 47.8482 245.84C46.9202 245.84 46.1922 246.104 45.6642 246.632C45.1362 247.144 44.8722 248 44.8722 249.2V254.48H51.2082V257.84H44.8722V278H40.5522ZM54.8108 278V254.48H59.1308V278H54.8108ZM54.8108 249.2V244.4H59.1308V249.2H54.8108ZM75.7827 278.48C73.1267 278.48 70.8947 277.944 69.0867 276.872C67.2947 275.784 65.9347 274.328 65.0067 272.504C64.0947 270.664 63.6387 268.624 63.6387 266.384C63.6387 264.048 64.0787 261.944 64.9587 260.072C65.8547 258.2 67.2227 256.72 69.0627 255.632C70.9027 254.544 73.2547 254 76.1187 254C77.3507 254 78.5107 254.128 79.5987 254.384C80.7027 254.624 81.6867 254.96 82.5507 255.392L81.8787 259.184C80.9987 258.768 80.0627 258.44 79.0707 258.2C78.0947 257.96 77.0787 257.84 76.0227 257.84C73.4307 257.84 71.4547 258.576 70.0947 260.048C68.7347 261.52 68.0547 263.568 68.0547 266.192C68.0547 268.752 68.7027 270.808 69.9987 272.36C71.2947 273.912 73.2707 274.688 75.9267 274.688C77.0147 274.688 78.0547 274.56 79.0467 274.304C80.0547 274.048 81.0147 273.696 81.9267 273.248L82.5027 276.704C81.8627 277.152 80.9267 277.56 79.6947 277.928C78.4627 278.296 77.1587 278.48 75.7827 278.48ZM86.7796 278V254.48H91.0996V278H86.7796ZM86.7796 249.2V244.4H91.0996V249.2H86.7796ZM108.231 278.48C105.463 278.48 103.135 277.912 101.247 276.776C99.3594 275.64 97.9274 274.136 96.9514 272.264C95.9914 270.376 95.5114 268.304 95.5114 266.048C95.5114 263.856 95.9594 261.848 96.8554 260.024C97.7674 258.2 99.0794 256.744 100.791 255.656C102.519 254.552 104.599 254 107.031 254C108.983 254 110.719 254.392 112.239 255.176C113.775 255.944 114.975 257.072 115.839 258.56C116.719 260.032 117.159 261.824 117.159 263.936C117.159 264.272 117.143 264.64 117.111 265.04C117.095 265.424 117.047 265.824 116.967 266.24H99.9274C100.135 268.416 100.655 270.112 101.487 271.328C102.319 272.544 103.367 273.4 104.631 273.896C105.895 274.392 107.271 274.64 108.759 274.64C109.847 274.64 110.983 274.528 112.167 274.304C113.351 274.08 114.471 273.728 115.527 273.248L116.103 276.656C115.191 277.056 114.079 277.464 112.767 277.88C111.455 278.28 109.943 278.48 108.231 278.48ZM100.311 263.264H112.695C112.695 262.16 112.487 261.2 112.071 260.384C111.655 259.568 111.023 258.944 110.175 258.512C109.327 258.064 108.247 257.84 106.935 257.84C105.015 257.84 103.535 258.32 102.495 259.28C101.471 260.224 100.743 261.552 100.311 263.264ZM121.514 278V254.48H124.874L125.738 258.992L124.058 258.272C125.642 256.512 127.186 255.36 128.69 254.816C130.21 254.272 131.69 254 133.13 254C136.57 254 139.026 254.992 140.498 256.976C141.986 258.96 142.73 261.648 142.73 265.04V278H138.41V265.04C138.41 262.544 137.946 260.72 137.018 259.568C136.09 258.416 134.506 257.84 132.266 257.84C130.682 257.84 129.226 258.192 127.898 258.896C126.586 259.584 125.722 260.688 125.306 262.208L125.834 259.568V278H121.514ZM156.063 278.48C154.575 278.48 153.383 278.208 152.487 277.664C151.591 277.12 150.935 276.424 150.519 275.576C150.119 274.712 149.919 273.808 149.919 272.864V257.84H145.887L146.271 254.48H149.919V248.672L154.239 248.24V254.48H160.431V257.84H154.239V270.224C154.239 271.728 154.327 272.816 154.503 273.488C154.679 274.16 155.111 274.584 155.799 274.76C156.503 274.936 157.631 275.024 159.183 275.024H160.287L159.951 278.48H156.063ZM175.216 278.48C172.448 278.48 170.12 277.912 168.232 276.776C166.344 275.64 164.912 274.136 163.936 272.264C162.976 270.376 162.496 268.304 162.496 266.048C162.496 263.856 162.944 261.848 163.84 260.024C164.752 258.2 166.064 256.744 167.776 255.656C169.504 254.552 171.584 254 174.016 254C175.968 254 177.704 254.392 179.224 255.176C180.76 255.944 181.96 257.072 182.824 258.56C183.704 260.032 184.144 261.824 184.144 263.936C184.144 264.272 184.128 264.64 184.096 265.04C184.08 265.424 184.032 265.824 183.952 266.24H166.912C167.12 268.416 167.64 270.112 168.472 271.328C169.304 272.544 170.352 273.4 171.616 273.896C172.88 274.392 174.256 274.64 175.744 274.64C176.832 274.64 177.968 274.528 179.152 274.304C180.336 274.08 181.456 273.728 182.512 273.248L183.088 276.656C182.176 277.056 181.064 277.464 179.752 277.88C178.44 278.28 176.928 278.48 175.216 278.48ZM167.296 263.264H179.68C179.68 262.16 179.472 261.2 179.056 260.384C178.64 259.568 178.008 258.944 177.16 258.512C176.312 258.064 175.232 257.84 173.92 257.84C172 257.84 170.52 258.32 169.48 259.28C168.456 260.224 167.728 261.552 167.296 263.264Z" fill="#EEEEEE"/>
</g>
<g filter="url(#filter2_i_695_491)">
<path d="M22.9163 248.8C18.6496 248.8 15.3963 247.6 13.1563 245.2C10.9163 242.747 9.79625 239.253 9.79625 234.72V205.28C9.79625 200.747 10.9163 197.28 13.1563 194.88C15.3963 192.427 18.6496 191.2 22.9163 191.2C27.1829 191.2 30.4363 192.427 32.6763 194.88C34.9163 197.28 36.0363 200.747 36.0363 205.28V210.08H27.7162V204.72C27.7162 201.04 26.1963 199.2 23.1563 199.2C20.1163 199.2 18.5963 201.04 18.5963 204.72V235.36C18.5963 238.987 20.1163 240.8 23.1563 240.8C26.1963 240.8 27.7162 238.987 27.7162 235.36V224.4H23.3163V216.4H36.0363V234.72C36.0363 239.253 34.9163 242.747 32.6763 245.2C30.4363 247.6 27.1829 248.8 22.9163 248.8ZM41.6863 192H65.6863V200H50.4863V214.8H62.5663V222.8H50.4863V240H65.6863V248H41.6863V192ZM82.345 248.8C78.0783 248.8 74.8517 247.6 72.665 245.2C70.4783 242.747 69.385 239.253 69.385 234.72V231.52H77.705V235.36C77.705 238.987 79.225 240.8 82.265 240.8C83.7583 240.8 84.8783 240.373 85.625 239.52C86.425 238.613 86.825 237.173 86.825 235.2C86.825 232.853 86.2917 230.8 85.225 229.04C84.1583 227.227 82.185 225.067 79.305 222.56C75.6783 219.36 73.145 216.48 71.705 213.92C70.265 211.307 69.545 208.373 69.545 205.12C69.545 200.693 70.665 197.28 72.905 194.88C75.145 192.427 78.3983 191.2 82.665 191.2C86.8783 191.2 90.0517 192.427 92.185 194.88C94.3717 197.28 95.465 200.747 95.465 205.28V207.6H87.145V204.72C87.145 202.8 86.7717 201.413 86.025 200.56C85.2783 199.653 84.185 199.2 82.745 199.2C79.8117 199.2 78.345 200.987 78.345 204.56C78.345 206.587 78.8783 208.48 79.945 210.24C81.065 212 83.065 214.133 85.945 216.64C89.625 219.84 92.1583 222.747 93.545 225.36C94.9317 227.973 95.625 231.04 95.625 234.56C95.625 239.147 94.4783 242.667 92.185 245.12C89.945 247.573 86.665 248.8 82.345 248.8ZM107.551 200H98.3506V192H125.551V200H116.351V248H107.551V200ZM132.939 192H144.859L153.979 248H145.179L143.579 236.88V237.04H133.579L131.979 248H123.819L132.939 192ZM142.539 229.44L138.619 201.76H138.459L134.619 229.44H142.539ZM127.819 186C128.833 183.707 129.926 182.027 131.099 180.96C132.273 179.84 133.606 179.28 135.099 179.28C136.059 179.28 136.886 179.413 137.579 179.68C138.326 179.947 139.099 180.32 139.899 180.8C140.379 181.067 140.833 181.307 141.259 181.52C141.739 181.733 142.193 181.84 142.619 181.84C143.259 181.84 143.819 181.6 144.299 181.12C144.779 180.64 145.286 179.84 145.819 178.72L150.059 181.28C149.046 183.573 147.953 185.28 146.779 186.4C145.606 187.467 144.273 188 142.779 188C141.819 188 140.966 187.867 140.219 187.6C139.526 187.333 138.779 186.96 137.979 186.48C137.499 186.213 137.019 185.973 136.539 185.76C136.113 185.547 135.686 185.44 135.259 185.44C134.619 185.44 134.059 185.68 133.579 186.16C133.099 186.64 132.593 187.44 132.059 188.56L127.819 186ZM170.813 248.8C166.493 248.8 163.186 247.573 160.893 245.12C158.599 242.667 157.452 239.2 157.452 234.72V205.28C157.452 200.8 158.599 197.333 160.893 194.88C163.186 192.427 166.493 191.2 170.813 191.2C175.133 191.2 178.439 192.427 180.733 194.88C183.026 197.333 184.173 200.8 184.173 205.28V234.72C184.173 239.2 183.026 242.667 180.733 245.12C178.439 247.573 175.133 248.8 170.813 248.8ZM170.813 240.8C173.853 240.8 175.372 238.96 175.372 235.28V204.72C175.372 201.04 173.853 199.2 170.813 199.2C167.773 199.2 166.253 201.04 166.253 204.72V235.28C166.253 238.96 167.773 240.8 170.813 240.8Z" fill="#28A8A5"/>
</g>
<defs>
<filter id="filter0_i_695_491" x="20" y="26" width="154" height="154" filterUnits="userSpaceOnUse" color-interpolation-filters="sRGB">
<feFlood flood-opacity="0" result="BackgroundImageFix"/>
<feBlend mode="normal" in="SourceGraphic" in2="BackgroundImageFix" result="shape"/>
<feColorMatrix in="SourceAlpha" type="matrix" values="0 0 0 0 0 0 0 0 0 0 0 0 0 0 0 0 0 0 127 0" result="hardAlpha"/>
<feOffset dy="4"/>
<feGaussianBlur stdDeviation="2"/>
<feComposite in2="hardAlpha" operator="arithmetic" k2="-1" k3="1"/>
<feColorMatrix type="matrix" values="0 0 0 0 0 0 0 0 0 0 0 0 0 0 0 0 0 0 0.25 0"/>
<feBlend mode="normal" in2="shape" result="effect1_innerShadow_695_491"/>
</filter>
<filter id="filter1_i_695_491" x="12.9177" y="242" width="171.226" height="40.48" filterUnits="userSpaceOnUse" color-interpolation-filters="sRGB">
<feFlood flood-opacity="0" result="BackgroundImageFix"/>
<feBlend mode="normal" in="SourceGraphic" in2="BackgroundImageFix" result="shape"/>
<feColorMatrix in="SourceAlpha" type="matrix" values="0 0 0 0 0 0 0 0 0 0 0 0 0 0 0 0 0 0 127 0" result="hardAlpha"/>
<feOffset dy="4"/>
<feGaussianBlur stdDeviation="2"/>
<feComposite in2="hardAlpha" operator="arithmetic" k2="-1" k3="1"/>
<feColorMatrix type="matrix" values="0 0 0 0 0 0 0 0 0 0 0 0 0 0 0 0 0 0 0.25 0"/>
<feBlend mode="normal" in2="shape" result="effect1_innerShadow_695_491"/>
</filter>
<filter id="filter2_i_695_491" x="9.79614" y="178.72" width="174.376" height="74.0801" filterUnits="userSpaceOnUse" color-interpolation-filters="sRGB">
<feFlood flood-opacity="0" result="BackgroundImageFix"/>
<feBlend mode="normal" in="SourceGraphic" in2="BackgroundImageFix" result="shape"/>
<feColorMatrix in="SourceAlpha" type="matrix" values="0 0 0 0 0 0 0 0 0 0 0 0 0 0 0 0 0 0 127 0" result="hardAlpha"/>
<feOffset dy="4"/>
<feGaussianBlur stdDeviation="2"/>
<feComposite in2="hardAlpha" operator="arithmetic" k2="-1" k3="1"/>
<feColorMatrix type="matrix" values="0 0 0 0 0 0 0 0 0 0 0 0 0 0 0 0 0 0 0.25 0"/>
<feBlend mode="normal" in2="shape" result="effect1_innerShadow_695_491"/>
</filter>
<radialGradient id="paint0_diamond_695_491" cx="0" cy="0" r="1" gradientUnits="userSpaceOnUse" gradientTransform="translate(82.9326 71.7754) rotate(90) scale(104.225 105.577)">
<stop stop-color="#28A8A5"/>
<stop offset="1" stop-color="#28A87F"/>
</radialGradient>
<radialGradient id="paint1_diamond_695_491" cx="0" cy="0" r="1" gradientUnits="userSpaceOnUse" gradientTransform="translate(55.9611 99.2895) rotate(90) scale(76.7105 56.8568)">
<stop stop-color="#28A8A5"/>
<stop offset="1" stop-color="#28A87F"/>
</radialGradient>
<radialGradient id="paint2_diamond_695_491" cx="0" cy="0" r="1" gradientUnits="userSpaceOnUse" gradientTransform="translate(82.9324 80.1594) rotate(90) scale(85.5747 87.031)">
<stop stop-color="#28A8A5"/>
<stop offset="1" stop-color="#28A87F"/>
</radialGradient>
<radialGradient id="paint3_diamond_695_491" cx="0" cy="0" r="1" gradientUnits="userSpaceOnUse" gradientTransform="translate(150.569 161.869) scale(23.1495 14.2206)">
<stop stop-color="#28A8A5"/>
<stop offset="1" stop-color="#28A87F"/>
</radialGradient>
<radialGradient id="paint4_diamond_695_491" cx="0" cy="0" r="1" gradientUnits="userSpaceOnUse" gradientTransform="translate(150.569 140.86) scale(23.1495 14.2211)">
<stop stop-color="#28A8A5"/>
<stop offset="1" stop-color="#28A87F"/>
</radialGradient>
<radialGradient id="paint5_diamond_695_491" cx="0" cy="0" r="1" gradientUnits="userSpaceOnUse" gradientTransform="translate(150.569 119.853) scale(23.1495 14.2206)">
<stop stop-color="#28A8A5"/>
<stop offset="1" stop-color="#28A87F"/>
</radialGradient>
</defs>
</svg>
