<svg width="181" height="99" viewBox="0 0 181 99" fill="none" xmlns="http://www.w3.org/2000/svg">
<g clip-path="url(#clip0_632_138)">
<path d="M167.713 55.7164L176.491 64.4936C177.95 65.9532 178.43 68.1268 177.722 70.0642C177.013 72.003 175.244 73.3535 173.187 73.5275L156.902 74.9016L155.528 91.1868C155.355 93.2429 154.003 95.0119 152.066 95.7203C150.128 96.4301 147.955 95.9495 146.495 94.4899L137.716 85.7128C123.521 94.4167 107.289 99 90.5 99C66.327 99 43.5998 89.5863 26.5068 72.4932C9.41373 55.4002 0 32.673 0 8.5C0 -15.673 9.41373 -38.4002 26.5068 -55.4932C43.5998 -72.5863 66.327 -82 90.5 -82C114.673 -82 137.4 -72.5863 154.493 -55.4932C171.586 -38.4002 181 -15.673 181 8.5C181 25.2892 176.417 41.5192 167.713 55.7164ZM146.709 69.5477C146.927 66.9709 148.971 64.9272 151.548 64.709L160.917 63.9191L148.235 51.2367L134.404 52.4036L133.237 66.2349L145.919 78.9173L146.709 69.5477ZM108.529 8.5C108.529 -1.44125 100.441 -9.5293 90.5 -9.5293C80.5588 -9.5293 72.4707 -1.44125 72.4707 8.5C72.4707 18.4412 80.5588 26.5293 90.5 26.5293C93.5449 26.5293 96.4131 25.7684 98.9305 24.4303L86.7508 12.2492C84.6794 10.1792 84.6794 6.82218 86.7508 4.7508C87.7851 3.71511 89.1426 3.19727 90.5 3.19727C91.8574 3.19727 93.2149 3.71511 94.2492 4.7508L106.43 16.9305C107.768 14.4131 108.529 11.5449 108.529 8.5ZM106.639 32.1386C102.04 35.2871 96.4821 37.1348 90.5 37.1348C74.7106 37.1348 61.8652 24.2894 61.8652 8.5C61.8652 -7.28944 74.7106 -20.1348 90.5 -20.1348C106.289 -20.1348 119.135 -7.28944 119.135 8.5C119.135 14.4821 117.287 20.0404 114.139 24.6388L129.279 39.7792C136.196 31.2203 140.346 20.3359 140.346 8.5C140.346 -18.9845 117.984 -41.3457 90.5 -41.3457C63.0155 -41.3457 40.6543 -18.9845 40.6543 8.5C40.6543 35.9845 63.0155 58.3457 90.5 58.3457C102.336 58.3457 113.22 54.196 121.779 47.279L106.639 32.1386ZM146.993 -47.9935C131.904 -63.0842 111.841 -71.3945 90.5 -71.3945C69.1593 -71.3945 49.0959 -63.0842 34.0065 -47.9935C18.9158 -32.9041 10.6055 -12.8407 10.6055 8.5C10.6055 29.8407 18.9158 49.9041 34.0065 64.9935C49.0959 80.0842 69.1593 88.3945 90.5 88.3945C104.461 88.3945 117.984 84.8083 129.978 77.9741L123.997 71.9933C123.03 71.0267 122.479 69.7314 122.445 68.3795C122.441 68.1861 122.446 67.9928 122.461 67.7981L123.175 59.3372C113.748 65.4188 102.529 68.9512 90.5 68.9512C57.1673 68.9512 30.0488 41.8327 30.0488 8.5C30.0488 -24.8327 57.1673 -51.9512 90.5 -51.9512C123.833 -51.9512 150.951 -24.8327 150.951 8.5C150.951 20.5292 147.419 31.7478 141.337 41.1753L149.798 40.4614C149.947 40.4504 150.096 40.4435 150.244 40.4435C150.269 40.4435 150.295 40.4462 150.32 40.4476C150.391 40.4476 150.46 40.4531 150.53 40.4573C150.645 40.4642 150.761 40.4711 150.874 40.4849C150.944 40.4945 151.015 40.5056 151.085 40.5166C151.197 40.5346 151.307 40.5553 151.418 40.5802C151.488 40.5967 151.557 40.6147 151.626 40.6326C151.734 40.6616 151.84 40.6948 151.947 40.7307C152.016 40.7542 152.084 40.7776 152.151 40.8039C152.255 40.8439 152.357 40.8881 152.459 40.9364C152.524 40.9654 152.589 40.9944 152.654 41.0276C152.756 41.0801 152.855 41.1381 152.954 41.1961C153.013 41.232 153.072 41.2651 153.13 41.301C153.235 41.37 153.336 41.4446 153.437 41.5206C153.484 41.5565 153.532 41.5882 153.578 41.6255C153.721 41.7415 153.861 41.8644 153.993 41.997L159.974 47.9778C166.808 35.9845 170.395 22.4611 170.395 8.5C170.395 -12.8407 162.084 -32.9041 146.993 -47.9935Z" fill="#28A8A5" fill-opacity="0.25"/>
</g>
<defs>
<clipPath id="clip0_632_138">
<rect width="181" height="99" fill="white" transform="matrix(1 0 0 -1 0 99)"/>
</clipPath>
</defs>
</svg>
