<svg width="160" height="160" viewBox="0 0 160 160" fill="none" xmlns="http://www.w3.org/2000/svg">
<circle cx="80" cy="80" r="76" stroke="url(#paint0_linear_636_285)" stroke-width="8"/>
<path d="M86.3823 62.9323L89.1406 59.1423C84.715 55.9213 79.4741 54.2188 73.9844 54.2188C68.4947 54.2188 63.2537 55.9213 58.8281 59.1423L61.5864 62.9323C65.2053 60.2984 69.4925 58.9062 73.9844 58.9062C78.4762 58.9062 82.7634 60.2984 86.3823 62.9323Z" fill="#EEEEEE"/>
<path d="M53.317 51.5572L56.0753 55.3472C61.3034 51.5423 67.4962 49.5312 73.9844 49.5312C80.4725 49.5312 86.6653 51.5423 91.8933 55.3472L94.6515 51.5572C88.6169 47.1652 81.4703 44.8438 73.9844 44.8438C66.4984 44.8438 59.3519 47.1652 53.317 51.5572Z" fill="#EEEEEE"/>
<path d="M61.5864 97.0676L58.8281 100.858C63.2537 104.079 68.4948 105.781 73.9844 105.781C79.4739 105.781 84.715 104.079 89.1406 100.858L86.3823 97.0676C82.7634 99.7015 78.4762 101.094 73.9844 101.094C69.4925 101.094 65.2053 99.7015 61.5864 97.0676Z" fill="#EEEEEE"/>
<path d="M73.9843 110.469C67.4962 110.469 61.3034 108.458 56.0754 104.653L53.3171 108.443C59.3518 112.835 66.4984 115.156 73.9843 115.156C81.4703 115.156 88.6168 112.835 94.6517 108.443L91.8934 104.653C86.6653 108.458 80.4724 110.469 73.9843 110.469Z" fill="#EEEEEE"/>
<path d="M95.7922 61.1719V71.9308H102.517V98.8281H113.276V71.9308H120V61.1719H95.7922Z" fill="url(#paint1_diamond_636_285)"/>
<path d="M40 61.1719H50.7589V98.8281H40V61.1719Z" fill="url(#paint2_diamond_636_285)"/>
<path d="M73.9844 96.1385C82.8974 96.1385 90.1228 88.9131 90.1228 80C90.1228 71.0869 82.8974 63.8616 73.9844 63.8616C65.0714 63.8616 57.8459 71.0869 57.8459 80C57.8459 88.9131 65.0714 96.1385 73.9844 96.1385ZM73.9844 74.6205C76.9553 74.6205 79.3639 77.0289 79.3639 80C79.3639 82.9711 76.9555 85.3795 73.9844 85.3795C71.0134 85.3795 68.6049 82.9711 68.6049 80C68.6049 77.0289 71.0134 74.6205 73.9844 74.6205Z" fill="url(#paint3_diamond_636_285)"/>
<defs>
<linearGradient id="paint0_linear_636_285" x1="80" y1="0" x2="80" y2="160" gradientUnits="userSpaceOnUse">
<stop stop-color="#28A87F"/>
<stop offset="1" stop-color="#28A8A5"/>
</linearGradient>
<radialGradient id="paint1_diamond_636_285" cx="0" cy="0" r="1" gradientUnits="userSpaceOnUse" gradientTransform="translate(107.896 64.8178) rotate(90) scale(34.0103 21.8638)">
<stop stop-color="#28A8A5"/>
<stop offset="1" stop-color="#28A87F"/>
</radialGradient>
<radialGradient id="paint2_diamond_636_285" cx="0" cy="0" r="1" gradientUnits="userSpaceOnUse" gradientTransform="translate(45.3795 64.8178) rotate(90) scale(34.0103 9.7172)">
<stop stop-color="#28A8A5"/>
<stop offset="1" stop-color="#28A87F"/>
</radialGradient>
<radialGradient id="paint3_diamond_636_285" cx="0" cy="0" r="1" gradientUnits="userSpaceOnUse" gradientTransform="translate(73.9844 66.9867) rotate(90) scale(29.1518)">
<stop stop-color="#28A8A5"/>
<stop offset="1" stop-color="#28A87F"/>
</radialGradient>
</defs>
</svg>
