<svg width="221" height="312" viewBox="0 0 221 312" fill="none" xmlns="http://www.w3.org/2000/svg">
<g filter="url(#filter0_i_695_379)">
<path d="M85.218 72.2351H60.0629C56.9653 72.2351 55.029 75.5886 56.5778 78.2714L65.3817 93.5199H79.8993L88.7032 78.2714C90.252 75.5886 88.3157 72.2351 85.218 72.2351Z" fill="#FED402"/>
<path d="M77.3793 93.5202L68.5754 78.2718C67.0266 75.589 68.9626 72.2355 72.0606 72.2355H60.0629C56.9653 72.2355 55.029 75.589 56.5778 78.2718L65.3817 93.5202H77.3793Z" fill="#FAC600"/>
<path d="M81.7008 106.628H63.5801C45.6567 112.152 32.8254 126.959 32.8254 144.36C32.8254 156.572 39.1442 167.505 49.1063 174.851C50.1309 175.607 51.3786 176 52.6516 176H94.543C105.441 168.673 112.455 157.226 112.455 144.361C112.455 126.959 99.6243 112.152 81.7008 106.628Z" fill="#FED402"/>
<path d="M49.7364 144.361C49.7364 126.951 62.5828 112.146 80.5188 106.628H63.5801C45.6567 112.152 32.8258 126.959 32.8258 144.361C32.8258 156.572 39.1446 167.506 49.1067 174.851C50.1313 175.607 51.3789 176 52.652 176H69.5629C68.2899 176 67.0422 175.607 66.0176 174.851C56.0555 167.505 49.7364 156.572 49.7364 144.361Z" fill="#FAC600"/>
<path d="M84.3571 107.018H60.9239C58.7012 107.018 56.8997 105.217 56.8997 102.994V97.1535C56.8997 94.9308 58.7012 93.1293 60.9239 93.1293H84.3571C86.5797 93.1293 88.3813 94.9308 88.3813 97.1535V102.994C88.3813 105.217 86.5797 107.018 84.3571 107.018Z" fill="#8F6802"/>
<path d="M70.5688 102.994V97.1539C70.5688 94.9312 72.3704 93.1296 74.593 93.1296H60.9239C58.7012 93.1296 56.8997 94.9312 56.8997 97.1539V102.994C56.8997 105.217 58.7012 107.019 60.9239 107.019H74.593C72.3704 107.018 70.5688 105.217 70.5688 102.994Z" fill="#A47703"/>
<path d="M142.548 87.8976H108.752C107.134 87.8976 105.822 86.5863 105.822 84.9679C105.822 83.3495 107.134 82.0382 108.752 82.0382H142.548C144.166 82.0382 145.477 83.3495 145.477 84.9679C145.477 86.5863 144.166 87.8976 142.548 87.8976Z" fill="#EEEEEE"/>
<path d="M142.548 99.4718H108.752C107.134 99.4718 105.822 98.1605 105.822 96.5421C105.822 94.9238 107.134 93.6124 108.752 93.6124H142.548C144.166 93.6124 145.477 94.9238 145.477 96.5421C145.477 98.1605 144.166 99.4718 142.548 99.4718Z" fill="#EEEEEE"/>
<path d="M142.548 111.046H113.381C111.763 111.046 110.451 109.735 110.451 108.116C110.451 106.498 111.763 105.187 113.381 105.187H142.548C144.166 105.187 145.477 106.498 145.477 108.116C145.477 109.735 144.166 111.046 142.548 111.046Z" fill="#EEEEEE"/>
<path d="M142.548 122.62H122.64C121.022 122.62 119.711 121.309 119.711 119.691C119.711 118.072 121.022 116.761 122.64 116.761H142.548C144.166 116.761 145.477 118.072 145.477 119.691C145.477 121.309 144.166 122.62 142.548 122.62Z" fill="#EEEEEE"/>
<path fill-rule="evenodd" clip-rule="evenodd" d="M69.2694 127.239C67.3886 127.412 65.6184 128.235 64.2686 129.581C62.7492 131.104 61.8936 133.169 61.8936 135.319V137.532C61.8936 139.682 62.7492 141.747 64.2686 143.27C65.7918 144.79 67.857 145.645 70.0071 145.645H75.9077C76.1032 145.645 76.2913 145.723 76.4278 145.863C76.5679 146 76.6453 146.188 76.6453 146.383V148.596C76.6453 148.791 76.5679 148.979 76.4278 149.116C76.2913 149.256 76.1032 149.333 75.9077 149.333C71.5633 149.333 65.5815 149.333 65.5815 149.333C63.5458 149.333 61.8936 150.986 61.8936 153.021C61.8936 155.057 63.5458 156.709 65.5815 156.709H69.2694V160.397C69.2694 162.433 70.9216 164.085 72.9574 164.085C74.9931 164.085 76.6453 162.433 76.6453 160.397V156.676C78.5262 156.503 80.2963 155.68 81.6461 154.334C83.1656 152.811 84.0212 150.746 84.0212 148.596C84.0212 147.866 84.0212 147.113 84.0212 146.383C84.0212 144.233 83.1656 142.168 81.6461 140.645C80.123 139.125 78.0578 138.27 75.9077 138.27C74.0416 138.27 71.8732 138.27 70.0071 138.27C69.8116 138.27 69.6234 138.192 69.487 138.052C69.3469 137.915 69.2694 137.727 69.2694 137.532V135.319C69.2694 135.124 69.3469 134.936 69.487 134.799C69.6234 134.659 69.8116 134.582 70.0071 134.582H80.3333C82.369 134.582 84.0212 132.929 84.0212 130.894C84.0212 128.858 82.369 127.206 80.3333 127.206H76.6453V123.518C76.6453 121.482 74.9931 119.83 72.9574 119.83C70.9216 119.83 69.2694 121.482 69.2694 123.518V127.239Z" fill="#08131C"/>
</g>
<g filter="url(#filter1_i_695_379)">
<path d="M27.7088 278.48C25.7088 278.48 23.9008 277.936 22.2848 276.848C20.6688 275.76 19.3808 274.296 18.4208 272.456C17.4768 270.616 17.0048 268.56 17.0048 266.288C17.0048 264.128 17.4368 262.112 18.3008 260.24C19.1808 258.368 20.4208 256.864 22.0208 255.728C23.6208 254.576 25.5168 254 27.7088 254C29.2768 254 30.7888 254.344 32.2448 255.032C33.7168 255.704 34.9088 256.832 35.8208 258.416L34.9088 259.04V242H39.2288V278H35.3888L34.5728 273.008L35.6768 273.776C34.9888 275.328 33.9088 276.504 32.4368 277.304C30.9648 278.088 29.3888 278.48 27.7088 278.48ZM28.4768 274.64C29.5648 274.64 30.6368 274.36 31.6928 273.8C32.7648 273.24 33.6448 272.352 34.3328 271.136C35.0368 269.904 35.3888 268.288 35.3888 266.288C35.3888 264.432 35.0368 262.88 34.3328 261.632C33.6448 260.368 32.7648 259.424 31.6928 258.8C30.6368 258.16 29.5648 257.84 28.4768 257.84C27.0048 257.84 25.7408 258.208 24.6848 258.944C23.6288 259.68 22.8208 260.688 22.2608 261.968C21.7008 263.232 21.4208 264.672 21.4208 266.288C21.4208 267.808 21.7008 269.2 22.2608 270.464C22.8208 271.728 23.6288 272.744 24.6848 273.512C25.7408 274.264 27.0048 274.64 28.4768 274.64ZM56.3018 278.48C53.5338 278.48 51.2058 277.912 49.3178 276.776C47.4298 275.64 45.9978 274.136 45.0218 272.264C44.0618 270.376 43.5818 268.304 43.5818 266.048C43.5818 263.856 44.0298 261.848 44.9258 260.024C45.8378 258.2 47.1498 256.744 48.8618 255.656C50.5898 254.552 52.6698 254 55.1018 254C57.0538 254 58.7898 254.392 60.3098 255.176C61.8458 255.944 63.0458 257.072 63.9098 258.56C64.7898 260.032 65.2298 261.824 65.2298 263.936C65.2298 264.272 65.2138 264.64 65.1818 265.04C65.1658 265.424 65.1178 265.824 65.0378 266.24H47.9978C48.2058 268.416 48.7258 270.112 49.5578 271.328C50.3898 272.544 51.4378 273.4 52.7018 273.896C53.9658 274.392 55.3418 274.64 56.8298 274.64C57.9178 274.64 59.0538 274.528 60.2378 274.304C61.4218 274.08 62.5418 273.728 63.5978 273.248L64.1738 276.656C63.2618 277.056 62.1498 277.464 60.8378 277.88C59.5258 278.28 58.0138 278.48 56.3018 278.48ZM48.3818 263.264H60.7658C60.7658 262.16 60.5578 261.2 60.1418 260.384C59.7258 259.568 59.0938 258.944 58.2458 258.512C57.3978 258.064 56.3178 257.84 55.0058 257.84C53.0858 257.84 51.6058 258.32 50.5658 259.28C49.5418 260.224 48.8138 261.552 48.3818 263.264ZM91.1655 278.48C88.5095 278.48 86.2775 277.944 84.4695 276.872C82.6775 275.784 81.3175 274.328 80.3895 272.504C79.4775 270.664 79.0215 268.624 79.0215 266.384C79.0215 264.048 79.4615 261.944 80.3415 260.072C81.2375 258.2 82.6055 256.72 84.4455 255.632C86.2855 254.544 88.6375 254 91.5015 254C92.7335 254 93.8935 254.128 94.9815 254.384C96.0855 254.624 97.0695 254.96 97.9335 255.392L97.2615 259.184C96.3815 258.768 95.4455 258.44 94.4535 258.2C93.4775 257.96 92.4615 257.84 91.4055 257.84C88.8135 257.84 86.8375 258.576 85.4775 260.048C84.1175 261.52 83.4375 263.568 83.4375 266.192C83.4375 268.752 84.0855 270.808 85.3815 272.36C86.6775 273.912 88.6535 274.688 91.3095 274.688C92.3975 274.688 93.4375 274.56 94.4295 274.304C95.4375 274.048 96.3975 273.696 97.3095 273.248L97.8855 276.704C97.2455 277.152 96.3095 277.56 95.0775 277.928C93.8455 278.296 92.5415 278.48 91.1655 278.48ZM110.61 278.48C108.77 278.48 107.202 278.112 105.906 277.376C104.61 276.624 103.618 275.488 102.93 273.968C102.258 272.448 101.922 270.512 101.922 268.16V254.48H106.242V266.96C106.242 269.456 106.666 271.36 107.514 272.672C108.378 273.984 109.778 274.64 111.714 274.64C113.042 274.64 114.274 274.32 115.41 273.68C116.546 273.04 117.33 272.016 117.762 270.608L117.138 272.96V254.48H121.458V278H117.618L116.754 273.392L117.906 274.16C117.122 275.616 116.162 276.704 115.026 277.424C113.906 278.128 112.434 278.48 110.61 278.48ZM134.006 278.48C131.926 278.48 130.198 278.232 128.822 277.736C127.462 277.24 126.502 276.8 125.942 276.416L126.47 272.24C126.982 272.688 127.886 273.2 129.182 273.776C130.478 274.352 132.022 274.64 133.814 274.64C135.334 274.64 136.494 274.384 137.294 273.872C138.11 273.36 138.518 272.64 138.518 271.712C138.518 270.896 138.254 270.24 137.726 269.744C137.214 269.232 136.59 268.832 135.854 268.544C135.134 268.24 134.454 268 133.814 267.824C132.742 267.536 131.63 267.176 130.478 266.744C129.342 266.296 128.382 265.632 127.598 264.752C126.814 263.872 126.422 262.64 126.422 261.056C126.422 259.856 126.71 258.72 127.286 257.648C127.862 256.56 128.798 255.68 130.094 255.008C131.39 254.336 133.11 254 135.254 254C136.822 254 138.094 254.168 139.07 254.504C140.062 254.824 140.918 255.168 141.638 255.536L141.11 259.472C140.422 258.896 139.622 258.408 138.71 258.008C137.798 257.608 136.678 257.408 135.35 257.408C134.006 257.408 132.91 257.664 132.062 258.176C131.214 258.672 130.79 259.472 130.79 260.576C130.79 261.68 131.238 262.464 132.134 262.928C133.046 263.392 134.422 263.904 136.262 264.464C136.838 264.624 137.502 264.856 138.254 265.16C139.022 265.464 139.766 265.872 140.486 266.384C141.206 266.896 141.798 267.568 142.262 268.4C142.742 269.216 142.982 270.24 142.982 271.472C142.982 272.512 142.734 273.576 142.238 274.664C141.742 275.736 140.846 276.64 139.55 277.376C138.254 278.112 136.406 278.48 134.006 278.48ZM155.321 278.48C153.833 278.48 152.641 278.208 151.745 277.664C150.849 277.12 150.193 276.424 149.777 275.576C149.377 274.712 149.177 273.808 149.177 272.864V257.84H145.145L145.529 254.48H149.177V248.672L153.497 248.24V254.48H159.689V257.84H153.497V270.224C153.497 271.728 153.585 272.816 153.761 273.488C153.937 274.16 154.369 274.584 155.057 274.76C155.761 274.936 156.889 275.024 158.441 275.024H159.545L159.209 278.48H155.321ZM173.466 278.48C171.002 278.48 168.898 277.936 167.154 276.848C165.426 275.744 164.098 274.272 163.17 272.432C162.258 270.576 161.802 268.512 161.802 266.24C161.802 263.968 162.258 261.912 163.17 260.072C164.098 258.216 165.426 256.744 167.154 255.656C168.898 254.552 171.002 254 173.466 254C175.914 254 178.01 254.552 179.754 255.656C181.498 256.744 182.826 258.216 183.738 260.072C184.666 261.912 185.13 263.968 185.13 266.24C185.13 268.512 184.666 270.576 183.738 272.432C182.826 274.272 181.498 275.744 179.754 276.848C178.01 277.936 175.914 278.48 173.466 278.48ZM173.466 274.64C175.802 274.64 177.594 273.904 178.842 272.432C180.09 270.944 180.714 268.88 180.714 266.24C180.714 263.6 180.09 261.544 178.842 260.072C177.594 258.584 175.802 257.84 173.466 257.84C171.146 257.84 169.354 258.584 168.09 260.072C166.842 261.544 166.218 263.6 166.218 266.24C166.218 268.88 166.842 270.944 168.09 272.432C169.354 273.904 171.146 274.64 173.466 274.64ZM196.256 278.48C194.176 278.48 192.448 278.232 191.072 277.736C189.712 277.24 188.752 276.8 188.192 276.416L188.72 272.24C189.232 272.688 190.136 273.2 191.432 273.776C192.728 274.352 194.272 274.64 196.064 274.64C197.584 274.64 198.744 274.384 199.544 273.872C200.36 273.36 200.768 272.64 200.768 271.712C200.768 270.896 200.504 270.24 199.976 269.744C199.464 269.232 198.84 268.832 198.104 268.544C197.384 268.24 196.704 268 196.064 267.824C194.992 267.536 193.88 267.176 192.728 266.744C191.592 266.296 190.632 265.632 189.848 264.752C189.064 263.872 188.672 262.64 188.672 261.056C188.672 259.856 188.96 258.72 189.536 257.648C190.112 256.56 191.048 255.68 192.344 255.008C193.64 254.336 195.36 254 197.504 254C199.072 254 200.344 254.168 201.32 254.504C202.312 254.824 203.168 255.168 203.888 255.536L203.36 259.472C202.672 258.896 201.872 258.408 200.96 258.008C200.048 257.608 198.928 257.408 197.6 257.408C196.256 257.408 195.16 257.664 194.312 258.176C193.464 258.672 193.04 259.472 193.04 260.576C193.04 261.68 193.488 262.464 194.384 262.928C195.296 263.392 196.672 263.904 198.512 264.464C199.088 264.624 199.752 264.856 200.504 265.16C201.272 265.464 202.016 265.872 202.736 266.384C203.456 266.896 204.048 267.568 204.512 268.4C204.992 269.216 205.232 270.24 205.232 271.472C205.232 272.512 204.984 273.576 204.488 274.664C203.992 275.736 203.096 276.64 201.8 277.376C200.504 278.112 198.656 278.48 196.256 278.48Z" fill="#EEEEEE"/>
</g>
<g filter="url(#filter2_i_695_379)">
<path d="M3.4675 192H16.5075C21.0408 192 24.3475 193.067 26.4275 195.2C28.5075 197.28 29.5475 200.507 29.5475 204.88V208.32C29.5475 214.134 27.6275 217.814 23.7875 219.36V219.52C25.9208 220.16 27.4142 221.467 28.2675 223.44C29.1742 225.414 29.6275 228.054 29.6275 231.36V241.2C29.6275 242.8 29.6808 244.107 29.7875 245.12C29.8942 246.08 30.1608 247.04 30.5875 248H21.6275C21.3075 247.094 21.0942 246.24 20.9875 245.44C20.8808 244.64 20.8275 243.2 20.8275 241.12V230.88C20.8275 228.32 20.4008 226.534 19.5475 225.52C18.7475 224.507 17.3342 224 15.3075 224H12.2675V248H3.4675V192ZM15.4675 216C17.2275 216 18.5342 215.547 19.3875 214.64C20.2942 213.734 20.7475 212.214 20.7475 210.08V205.76C20.7475 203.734 20.3742 202.267 19.6275 201.36C18.9342 200.454 17.8142 200 16.2675 200H12.2675V216H15.4675ZM35.7331 192H59.7331V200H44.5331V214.8H56.6131V222.8H44.5331V240H59.7331V248H35.7331V192ZM64.7956 192H78.2356C82.609 192 85.889 193.174 88.0756 195.52C90.2623 197.867 91.3556 201.307 91.3556 205.84V234.16C91.3556 238.694 90.2623 242.134 88.0756 244.48C85.889 246.827 82.609 248 78.2356 248H64.7956V192ZM78.0756 240C79.5156 240 80.609 239.574 81.3556 238.72C82.1556 237.867 82.5556 236.48 82.5556 234.56V205.44C82.5556 203.52 82.1556 202.134 81.3556 201.28C80.609 200.427 79.5156 200 78.0756 200H73.5956V240H78.0756ZM110.096 248.8C105.829 248.8 102.576 247.6 100.336 245.2C98.0956 242.747 96.9756 239.254 96.9756 234.72V192H105.776V235.36C105.776 237.28 106.149 238.667 106.896 239.52C107.696 240.374 108.816 240.8 110.256 240.8C111.696 240.8 112.789 240.374 113.536 239.52C114.336 238.667 114.736 237.28 114.736 235.36V192H123.216V234.72C123.216 239.254 122.096 242.747 119.856 245.2C117.616 247.6 114.362 248.8 110.096 248.8ZM146.523 210.88V204.4C146.523 200.934 145.056 199.2 142.123 199.2C139.19 199.2 137.723 200.934 137.723 204.4V235.68C137.723 239.094 139.19 240.8 142.123 240.8C145.056 240.8 146.523 239.094 146.523 235.68V227.12H154.843V235.04C154.843 239.04 153.91 242.24 152.043 244.64C150.176 246.987 147.483 248.347 143.963 248.72V251.12C145.776 251.12 147.136 251.414 148.043 252C149.003 252.587 149.483 253.547 149.483 254.88C149.483 256.854 148.816 258.16 147.483 258.8C146.15 259.44 144.096 259.76 141.323 259.76C138.87 259.76 136.976 259.414 135.643 258.72C134.31 258.027 133.643 256.827 133.643 255.12V254.32H139.563V254.96C139.563 255.494 139.723 255.894 140.043 256.16C140.416 256.427 140.843 256.56 141.323 256.56C142.07 256.56 142.603 256.4 142.923 256.08C143.243 255.814 143.403 255.334 143.403 254.64C143.403 253.894 143.163 253.36 142.683 253.04C142.203 252.72 141.456 252.56 140.443 252.56H140.043V248.72C136.416 248.347 133.643 246.987 131.723 244.64C129.856 242.294 128.923 239.094 128.923 235.04V204.96C128.923 200.587 130.016 197.2 132.203 194.8C134.443 192.4 137.67 191.2 141.883 191.2C146.096 191.2 149.296 192.4 151.483 194.8C153.723 197.2 154.843 200.587 154.843 204.96V210.88H146.523ZM166.908 192H178.828L187.948 248H179.148L177.548 236.88V237.04H167.548L165.948 248H157.788L166.908 192ZM176.508 229.44L172.588 201.76H172.428L168.588 229.44H176.508ZM161.788 186C162.801 183.707 163.895 182.027 165.068 180.96C166.241 179.84 167.575 179.28 169.068 179.28C170.028 179.28 170.855 179.414 171.548 179.68C172.295 179.947 173.068 180.32 173.868 180.8C174.348 181.067 174.801 181.307 175.228 181.52C175.708 181.734 176.161 181.84 176.588 181.84C177.228 181.84 177.788 181.6 178.268 181.12C178.748 180.64 179.255 179.84 179.788 178.72L184.028 181.28C183.015 183.574 181.921 185.28 180.748 186.4C179.575 187.467 178.241 188 176.748 188C175.788 188 174.935 187.867 174.188 187.6C173.495 187.334 172.748 186.96 171.948 186.48C171.468 186.214 170.988 185.974 170.508 185.76C170.081 185.547 169.655 185.44 169.228 185.44C168.588 185.44 168.028 185.68 167.548 186.16C167.068 186.64 166.561 187.44 166.028 188.56L161.788 186ZM204.781 248.8C200.461 248.8 197.155 247.574 194.861 245.12C192.568 242.667 191.421 239.2 191.421 234.72V205.28C191.421 200.8 192.568 197.334 194.861 194.88C197.155 192.427 200.461 191.2 204.781 191.2C209.101 191.2 212.408 192.427 214.701 194.88C216.995 197.334 218.141 200.8 218.141 205.28V234.72C218.141 239.2 216.995 242.667 214.701 245.12C212.408 247.574 209.101 248.8 204.781 248.8ZM204.781 240.8C207.821 240.8 209.341 238.96 209.341 235.28V204.72C209.341 201.04 207.821 199.2 204.781 199.2C201.741 199.2 200.221 201.04 200.221 204.72V235.28C200.221 238.96 201.741 240.8 204.781 240.8Z" fill="#28A8A5"/>
</g>
<defs>
<filter id="filter0_i_695_379" x="32" y="72" width="157.926" height="108" filterUnits="userSpaceOnUse" color-interpolation-filters="sRGB">
<feFlood flood-opacity="0" result="BackgroundImageFix"/>
<feBlend mode="normal" in="SourceGraphic" in2="BackgroundImageFix" result="shape"/>
<feColorMatrix in="SourceAlpha" type="matrix" values="0 0 0 0 0 0 0 0 0 0 0 0 0 0 0 0 0 0 127 0" result="hardAlpha"/>
<feOffset dy="4"/>
<feGaussianBlur stdDeviation="2"/>
<feComposite in2="hardAlpha" operator="arithmetic" k2="-1" k3="1"/>
<feColorMatrix type="matrix" values="0 0 0 0 0 0 0 0 0 0 0 0 0 0 0 0 0 0 0.25 0"/>
<feBlend mode="normal" in2="shape" result="effect1_innerShadow_695_379"/>
</filter>
<filter id="filter1_i_695_379" x="17.0048" y="242" width="188.228" height="40.48" filterUnits="userSpaceOnUse" color-interpolation-filters="sRGB">
<feFlood flood-opacity="0" result="BackgroundImageFix"/>
<feBlend mode="normal" in="SourceGraphic" in2="BackgroundImageFix" result="shape"/>
<feColorMatrix in="SourceAlpha" type="matrix" values="0 0 0 0 0 0 0 0 0 0 0 0 0 0 0 0 0 0 127 0" result="hardAlpha"/>
<feOffset dy="4"/>
<feGaussianBlur stdDeviation="2"/>
<feComposite in2="hardAlpha" operator="arithmetic" k2="-1" k3="1"/>
<feColorMatrix type="matrix" values="0 0 0 0 0 0 0 0 0 0 0 0 0 0 0 0 0 0 0.25 0"/>
<feBlend mode="normal" in2="shape" result="effect1_innerShadow_695_379"/>
</filter>
<filter id="filter2_i_695_379" x="3.46753" y="178.72" width="214.674" height="85.04" filterUnits="userSpaceOnUse" color-interpolation-filters="sRGB">
<feFlood flood-opacity="0" result="BackgroundImageFix"/>
<feBlend mode="normal" in="SourceGraphic" in2="BackgroundImageFix" result="shape"/>
<feColorMatrix in="SourceAlpha" type="matrix" values="0 0 0 0 0 0 0 0 0 0 0 0 0 0 0 0 0 0 127 0" result="hardAlpha"/>
<feOffset dy="4"/>
<feGaussianBlur stdDeviation="2"/>
<feComposite in2="hardAlpha" operator="arithmetic" k2="-1" k3="1"/>
<feColorMatrix type="matrix" values="0 0 0 0 0 0 0 0 0 0 0 0 0 0 0 0 0 0 0.25 0"/>
<feBlend mode="normal" in2="shape" result="effect1_innerShadow_695_379"/>
</filter>
</defs>
</svg>
