<svg width="261" height="256" viewBox="0 0 261 256" fill="none" xmlns="http://www.w3.org/2000/svg">
<g clip-path="url(#clip0_708_123)" filter="url(#filter0_i_708_123)">
<path d="M202.984 246.513C222.413 246.513 238.162 230.792 238.162 211.398C238.162 192.005 222.413 176.283 202.984 176.283C183.556 176.283 167.806 192.005 167.806 211.398C167.806 230.792 183.556 246.513 202.984 246.513Z" fill="#00B9B4"/>
<path d="M233.545 228.736C230.878 233.451 227.155 237.485 222.666 240.525C218.178 243.565 213.046 245.528 207.672 246.26C202.298 246.992 196.827 246.474 191.686 244.746C186.546 243.017 181.876 240.126 178.04 236.298C174.205 232.469 171.308 227.807 169.577 222.676C167.846 217.545 167.326 212.084 168.06 206.719C168.793 201.355 170.76 196.232 173.805 191.752C176.85 187.271 180.892 183.555 185.615 180.892C182.574 186.165 180.981 192.146 180.998 198.23C180.998 207.543 184.704 216.475 191.301 223.06C197.899 229.646 206.846 233.345 216.176 233.345C222.271 233.362 228.263 231.772 233.545 228.736Z" fill="#28A8A5"/>
<path d="M27.093 62.1594H88.655V106.053H27.093V62.1594Z" fill="#E9F1F2"/>
<path d="M88.655 75.3276V106.053H27.093V62.1594H35.8876C35.8876 65.6518 37.2774 69.0012 39.7514 71.4707C42.2253 73.9402 45.5807 75.3276 49.0794 75.3276H88.655Z" fill="#D0D8DA"/>
<path d="M44.6821 79.7168H71.0658V106.053H44.6821V79.7168Z" fill="#84D2F4"/>
<path d="M27.093 44.6018H88.655V62.1593H27.093V44.6018Z" fill="#84D2F4"/>
<path d="M27.093 27.0442H88.655V44.6017H27.093V27.0442Z" fill="#84D2F4"/>
<path d="M44.6821 9.48677L27.093 0.708008V27.0443H44.6821V9.48677Z" fill="#00B9B4"/>
<path d="M88.6548 79.7168H106.244V106.053H88.6548V79.7168Z" fill="#D0D8DA"/>
<path d="M106.244 96.4842V106.053H88.6548V79.7168H97.4494V84.1062C97.4362 86.8279 98.2774 89.4853 99.8547 91.7054C101.432 93.9254 103.666 95.5966 106.244 96.4842Z" fill="#93999A"/>
<path d="M0.709229 62.1594H27.0929V106.053H0.709229V62.1594Z" fill="#D0D8DA"/>
<path d="M0.709229 96.4842V106.053H27.0929V79.7168H9.50379V84.1062C9.51691 86.8279 8.67575 89.4853 7.0984 91.7054C5.52106 93.9254 3.28676 95.5966 0.709229 96.4842Z" fill="#93999A"/>
<path d="M0.709229 62.1594H27.0929V79.7169H0.709229V62.1594Z" fill="#00B9B4"/>
<path d="M88.6548 44.6018H106.244V62.1593H88.6548V44.6018Z" fill="#84D2F4"/>
<path d="M88.6548 62.1594H106.244V79.7169H88.6548V62.1594Z" fill="#84D2F4"/>
<path d="M44.6821 9.48682H75.4631V27.0443H44.6821V9.48682Z" fill="#84D2F4"/>
<path d="M9.50391 44.6018H27.093V62.1593H9.50391V44.6018Z" fill="#00B9B4"/>
<path d="M88.655 44.6017H53.4767L27.093 27.0442H62.2713L88.655 44.6017Z" fill="#00B9B4"/>
<path d="M88.655 62.1593H53.4767L27.093 44.6018H62.2713L88.655 62.1593Z" fill="#00B9B4"/>
<path d="M106.244 62.1593H88.6548V44.6018L106.244 62.1593Z" fill="#00B9B4"/>
<path d="M106.244 79.7169H88.6548V62.1594L106.244 79.7169Z" fill="#00B9B4"/>
<path d="M9.50391 62.1593H27.093V44.6018L9.50391 62.1593Z" fill="#28A8A5"/>
<path d="M9.50391 79.7169H27.093V62.1594L9.50391 79.7169Z" fill="#28A8A5"/>
<path d="M53.4767 9.48682H44.6821L66.6685 27.0443H75.4631L53.4767 9.48682Z" fill="#00B9B4"/>
<path d="M35.8876 13.8761L27.093 0.708008V27.0443H44.6821V13.8761H35.8876Z" fill="#28A8A5"/>
<path d="M44.6821 79.7168V106.053H71.0658V79.7168H44.6821ZM66.6685 101.664H62.2713C58.7726 101.664 55.4172 100.276 52.9432 97.8068C50.4693 95.3373 49.0794 91.988 49.0794 88.4956V84.1062H62.2713C63.4375 84.1062 64.556 84.5686 65.3806 85.3918C66.2053 86.215 66.6685 87.3314 66.6685 88.4956V101.664Z" fill="#00B9B4"/>
<path d="M202.984 220.177C210.27 220.177 216.176 214.282 216.176 207.009C216.176 199.736 210.27 193.841 202.984 193.841C195.699 193.841 189.792 199.736 189.792 207.009C189.792 214.282 195.699 220.177 202.984 220.177Z" fill="#EEEEEE"/>
<path d="M220.573 233.345V241.773C215.233 244.878 209.164 246.514 202.984 246.514C196.804 246.514 190.735 244.878 185.395 241.773V233.345C185.395 229.853 186.785 226.503 189.259 224.034C191.733 221.564 195.088 220.177 198.587 220.177H207.381C210.88 220.177 214.236 221.564 216.709 224.034C219.183 226.503 220.573 229.853 220.573 233.345Z" fill="#EEEEEE"/>
<path d="M88.655 167.504H18.2985C13.4414 167.504 9.50391 171.435 9.50391 176.283V228.956C9.50391 233.804 13.4414 237.734 18.2985 237.734H88.655C93.5121 237.734 97.4496 233.804 97.4496 228.956V176.283C97.4496 171.435 93.5121 167.504 88.655 167.504Z" fill="#00B9B5"/>
<path d="M79.8604 255.292H27.093L29.6698 252.72C31.6412 250.752 33.2049 248.416 34.2718 245.845C35.3386 243.273 35.8877 240.518 35.8876 237.735H71.0658C71.0657 240.518 71.6148 243.273 72.6816 245.845C73.7485 248.416 75.3122 250.752 77.2836 252.72L79.8604 255.292Z" fill="#D0D8DA"/>
<path d="M220.573 233.082V241.773C215.233 244.878 209.164 246.514 202.984 246.514C196.804 246.514 190.735 244.878 185.395 241.773V233.345C185.39 231.252 185.887 229.188 186.843 227.325C187.799 225.462 189.187 223.854 190.892 222.635C194.168 226.026 198.096 228.723 202.44 230.563C206.785 232.403 211.457 233.349 216.176 233.345C217.646 233.346 219.114 233.258 220.573 233.082Z" fill="#D8D8D8"/>
<path d="M215.605 210.828C214.944 213.006 213.73 214.977 212.08 216.547C210.43 218.117 208.4 219.234 206.188 219.788C203.977 220.342 201.659 220.314 199.462 219.708C197.264 219.101 195.262 217.936 193.649 216.327C192.037 214.718 190.87 212.719 190.263 210.525C189.655 208.332 189.627 206.018 190.182 203.811C190.737 201.603 191.856 199.577 193.429 197.93C195.002 196.282 196.976 195.07 199.159 194.411C198.787 195.651 198.595 196.937 198.587 198.23C198.587 201.723 199.977 205.072 202.451 207.541C204.925 210.011 208.28 211.398 211.779 211.398C213.075 211.391 214.363 211.198 215.605 210.828Z" fill="#D8D8D8"/>
<path d="M97.4496 220.177V228.956C97.4426 231.282 96.5138 233.511 94.866 235.156C93.2182 236.8 90.9853 237.728 88.655 237.734H18.2985C15.9681 237.728 13.7353 236.8 12.0875 235.156C10.4397 233.511 9.51087 231.282 9.50391 228.956V176.283C9.51087 173.957 10.4397 171.728 12.0875 170.083C13.7353 168.438 15.9681 167.511 18.2985 167.504H31.7102C32.8032 181.832 39.2771 195.22 49.836 204.986C60.3949 214.753 74.2597 220.179 88.655 220.177H97.4496Z" fill="#28A8A5"/>
<path d="M27.093 255.292L29.6698 252.72C31.6412 250.752 33.2049 248.416 34.2718 245.845C35.3386 243.273 35.8877 240.518 35.8876 237.735H71.0658L27.093 255.292Z" fill="#93999A"/>
<path d="M53.4766 154.336C52.3104 154.336 51.1919 153.874 50.3673 153.051C49.5426 152.227 49.0793 151.111 49.0793 149.947V123.611C49.0793 122.446 49.5426 121.33 50.3673 120.507C51.1919 119.684 52.3104 119.221 53.4766 119.221C54.6429 119.221 55.7613 119.684 56.586 120.507C57.4106 121.33 57.8739 122.446 57.8739 123.611V149.947C57.8739 151.111 57.4106 152.227 56.586 153.051C55.7613 153.874 54.6429 154.336 53.4766 154.336Z" fill="url(#paint0_diamond_708_123)"/>
<path d="M110.641 167.504C109.772 167.504 108.922 167.247 108.199 166.764C107.476 166.282 106.913 165.597 106.58 164.795C106.247 163.993 106.16 163.11 106.33 162.259C106.499 161.408 106.918 160.626 107.533 160.012L133.916 133.676C134.746 132.876 135.856 132.434 137.009 132.444C138.162 132.454 139.265 132.915 140.08 133.729C140.896 134.543 141.358 135.644 141.368 136.795C141.378 137.945 140.935 139.054 140.134 139.882L113.75 166.218C112.926 167.042 111.808 167.504 110.641 167.504Z" fill="url(#paint1_diamond_708_123)"/>
<path d="M150.217 215.788H115.039C113.872 215.788 112.754 215.325 111.929 214.502C111.105 213.679 110.641 212.562 110.641 211.398C110.641 210.234 111.105 209.118 111.929 208.294C112.754 207.471 113.872 207.009 115.039 207.009H150.217C151.383 207.009 152.502 207.471 153.326 208.294C154.151 209.118 154.614 210.234 154.614 211.398C154.614 212.562 154.151 213.679 153.326 214.502C152.502 215.325 151.383 215.788 150.217 215.788Z" fill="url(#paint2_diamond_708_123)"/>
<path d="M202.984 163.115C201.818 163.115 200.7 162.653 199.875 161.829C199.05 161.006 198.587 159.89 198.587 158.726V141.168C198.587 140.004 199.05 138.888 199.875 138.064C200.7 137.241 201.818 136.779 202.984 136.779C204.151 136.779 205.269 137.241 206.094 138.064C206.918 138.888 207.382 140.004 207.382 141.168V158.726C207.382 159.89 206.918 161.006 206.094 161.829C205.269 162.653 204.151 163.115 202.984 163.115Z" fill="url(#paint3_diamond_708_123)"/>
<path d="M62.8034 210.867C61.6373 210.867 60.519 210.404 59.6945 209.581C58.0198 207.984 55.7929 207.093 53.4768 207.093C51.1607 207.093 48.9337 207.984 47.259 209.581C46.4297 210.381 45.3189 210.823 44.166 210.813C43.013 210.803 41.9101 210.341 41.0948 209.528C40.2795 208.714 39.8171 207.613 39.8071 206.462C39.797 205.311 40.2403 204.202 41.0413 203.375C44.3902 200.179 48.8443 198.396 53.4768 198.396C58.1093 198.396 62.5634 200.179 65.9123 203.375C66.5271 203.988 66.9457 204.77 67.1153 205.622C67.2849 206.473 67.1978 207.355 66.8651 208.157C66.5323 208.959 65.9689 209.645 65.2459 210.127C64.523 210.609 63.673 210.867 62.8034 210.867Z" fill="#D8D8D8"/>
<path d="M75.2433 198.45C74.0772 198.449 72.9589 197.987 72.1344 197.163C67.1807 192.234 60.4713 189.466 53.4767 189.466C46.4821 189.466 39.7728 192.234 34.8191 197.163C33.9897 197.963 32.879 198.405 31.726 198.395C30.5731 198.385 29.4702 197.924 28.6549 197.11C27.8396 196.296 27.3771 195.195 27.3671 194.044C27.3571 192.894 27.8003 191.785 28.6013 190.957C35.2043 184.382 44.1501 180.689 53.4767 180.689C62.8033 180.689 71.7492 184.382 78.3522 190.957C78.9669 191.571 79.3856 192.353 79.5552 193.204C79.7248 194.055 79.6377 194.938 79.305 195.74C78.9722 196.542 78.4088 197.227 77.6858 197.71C76.9628 198.192 76.1129 198.449 75.2433 198.45Z" fill="#D8D8D8"/>
<path d="M53.4766 224.566C55.9052 224.566 57.8739 222.601 57.8739 220.177C57.8739 217.753 55.9052 215.788 53.4766 215.788C51.0481 215.788 49.0793 217.753 49.0793 220.177C49.0793 222.601 51.0481 224.566 53.4766 224.566Z" fill="#D8D8D8"/>
<path d="M88.6549 255.292H18.2984C17.1322 255.292 16.0137 254.83 15.1891 254.007C14.3644 253.183 13.9011 252.067 13.9011 250.903C13.9011 249.739 14.3644 248.622 15.1891 247.799C16.0137 246.976 17.1322 246.513 18.2984 246.513H88.6549C89.8212 246.513 90.9396 246.976 91.7643 247.799C92.5889 248.622 93.0522 249.739 93.0522 250.903C93.0522 252.067 92.5889 253.183 91.7643 254.007C90.9396 254.83 89.8212 255.292 88.6549 255.292Z" fill="#E9F1F2"/>
<path d="M52.3772 207.228C50.4485 207.387 48.6399 208.228 47.2764 209.599C46.8664 210.008 46.3796 210.333 45.8439 210.554C45.3083 210.776 44.7341 210.89 44.1543 210.89C43.5745 210.89 43.0003 210.776 42.4646 210.554C41.929 210.333 41.4422 210.008 41.0322 209.599C40.6222 209.189 40.297 208.704 40.0751 208.169C39.8532 207.634 39.739 207.061 39.739 206.482C39.739 205.903 39.8532 205.33 40.0751 204.796C40.297 204.261 40.6222 203.775 41.0322 203.366C42.2929 202.116 43.7482 201.078 45.3416 200.293C47.4861 202.799 49.8397 205.119 52.3772 207.228Z" fill="#D8D8D8"/>
<path d="M40.0648 193.139C38.1532 194.254 36.3944 195.611 34.832 197.177C34.422 197.586 33.9353 197.911 33.3996 198.132C32.8639 198.354 32.2898 198.468 31.71 198.468C31.1301 198.468 30.556 198.354 30.0203 198.132C29.4846 197.911 28.9979 197.586 28.5879 197.177C28.1779 196.767 27.8527 196.282 27.6308 195.747C27.4089 195.212 27.2947 194.639 27.2947 194.06C27.2947 193.482 27.4089 192.908 27.6308 192.374C27.8527 191.839 28.1779 191.353 28.5879 190.944C30.7931 188.737 33.294 186.846 36.0193 185.325C37.1556 188.034 38.5085 190.647 40.0648 193.139Z" fill="#D8D8D8"/>
<path d="M204.909 36.0745H217.045C218.655 36.0745 220.198 36.7082 221.336 37.8364C222.474 38.9645 223.113 40.4945 223.113 42.0899V74.1724H198.841V42.0899C198.841 40.4945 199.48 38.9645 200.618 37.8364C201.756 36.7082 203.299 36.0745 204.909 36.0745Z" fill="#00B9B4"/>
<path d="M207.033 36.0745H204.909C203.299 36.0745 201.756 36.7082 200.618 37.8364C199.48 38.9645 198.841 40.4945 198.841 42.0899V74.1724H223.113V56.7276C218.713 55.1836 214.855 52.4138 212.002 48.7505C209.15 45.0871 207.424 40.6858 207.033 36.0745Z" fill="#28A8A5"/>
<path d="M204.909 28.0537H217.045V36.0743H204.909V28.0537Z" fill="#EEEEEE"/>
<path d="M206.931 20.0332H215.022V28.0538H206.931V20.0332Z" fill="#EEEEEE"/>
<path d="M198.841 46.1003H223.113V54.121H198.841V46.1003Z" fill="#EEEEEE"/>
<path d="M210.204 46.1003H198.841V54.121H217.798C214.678 52.0614 212.08 49.3168 210.204 46.1003Z" fill="#D8D8D8"/>
<path d="M213 32.064C211.748 32.0618 210.529 31.6749 209.508 30.9567C208.488 30.2384 207.718 29.2242 207.304 28.0537H204.909V36.0743H217.045V32.064H213Z" fill="#D8D8D8"/>
<path d="M208.954 20.0332H206.931V28.0538H215.022V26.0487C213.413 26.0487 211.869 25.4149 210.731 24.2868C209.593 23.1587 208.954 21.6286 208.954 20.0332Z" fill="#D8D8D8"/>
<path d="M257.497 6.53616C258.426 7.06796 259.104 7.94388 259.381 8.97122C259.659 9.99856 259.514 11.0932 258.977 12.0143L209.42 97.1011L202.414 93.0908L251.97 8.00394C252.507 7.08286 253.39 6.41076 254.427 6.1355C255.463 5.86024 256.567 6.00436 257.497 6.53616Z" fill="#EEEEEE"/>
<path d="M257.985 6.88135L231.673 52.0575C230.906 53.3705 229.778 54.44 228.421 55.1412C227.063 55.8425 225.532 56.1464 224.007 56.0177L202.417 93.0931L209.423 97.1034L258.98 12.0125C259.463 11.1811 259.628 10.2055 259.445 9.2635C259.263 8.32153 258.744 7.47607 257.985 6.88135Z" fill="#D8D8D8"/>
<path d="M169.438 41.9446L179.948 35.9291L186.016 46.3479L175.506 52.3634L169.438 41.9446Z" fill="#E9F1F2"/>
<path d="M182.784 41.3359C182.094 41.7314 181.331 41.988 180.541 42.0911C179.75 42.1943 178.947 42.142 178.176 41.9371C177.406 41.7323 176.684 41.3789 176.052 40.8973C175.419 40.4157 174.889 39.8152 174.491 39.1303L174.454 39.0681L169.434 41.9415L175.502 52.3683L186.02 46.3529L183.023 41.2056L182.784 41.3359Z" fill="#D0D8DA"/>
<path d="M211.228 73.597L186.704 87.6331L172.24 55.8594C171.621 54.4998 171.533 52.9607 171.994 51.5408C172.456 50.121 173.433 48.9216 174.736 48.1756L182.742 43.5938C184.045 42.8479 185.581 42.6086 187.052 42.9225C188.524 43.2363 189.825 44.0809 190.703 45.2922L211.228 73.597Z" fill="#EEEEEE"/>
<path d="M154.341 32.0641L158.386 39.01C160.244 37.9465 162.453 37.6582 164.525 38.2088C166.598 38.7593 168.365 40.1034 169.438 41.9456L179.956 35.9301L175.911 28.9842L179.414 26.9791L175.369 20.0332L154.341 32.0641Z" fill="#84D2F4"/>
<path d="M175.36 20.033L182.366 16.0226L186.412 22.9685L179.405 26.9788L175.36 20.033Z" fill="#EEEEEE"/>
<path d="M196.247 52.9378C194.779 53.7693 193.152 54.2876 191.47 54.4595C189.789 54.6313 188.089 54.4529 186.481 53.9356C184.873 53.4183 183.391 52.5736 182.131 51.4557C180.872 50.3377 179.861 48.9712 179.165 47.4436L178.514 46.012L174.736 48.1755C173.433 48.9216 172.456 50.1209 171.994 51.5407C171.533 52.9606 171.621 54.4997 172.24 55.8593L186.704 87.633L211.228 73.5969L196.247 52.9378Z" fill="#D8D8D8"/>
<path d="M168.32 32.8944C167.133 32.2549 165.805 31.9199 164.454 31.9199C162.296 31.9889 160.194 31.2281 158.588 29.7964L158.479 29.6921L154.341 32.0642L158.386 39.0101C160.244 37.9466 162.453 37.6583 164.525 38.2088C166.598 38.7594 168.365 40.1035 169.438 41.9457L179.956 35.9302L177.835 32.2868L174.307 33.538C173.32 33.8569 172.276 33.9644 171.244 33.8535C170.211 33.7425 169.215 33.4156 168.32 32.8944Z" fill="#00B9B4"/>
<path d="M184.932 20.9636C184.003 21.4953 182.899 21.6394 181.863 21.3642C180.826 21.0889 179.943 20.4168 179.406 19.4958L178.63 18.1624L175.361 20.0332L179.406 26.979L186.413 22.9687L185.167 20.8352L184.932 20.9636Z" fill="#D8D8D8"/>
<path d="M225.136 122.296H176.59L168.5 70.1621H233.227L225.136 122.296Z" fill="#D0D8DA"/>
<path d="M162.431 62.1416H239.295V70.1622H162.431V62.1416Z" fill="#E9F1F2"/>
<path d="M220.571 114.276C222.931 112.849 225.138 111.188 227.159 109.319L228.261 102.219C223.945 107.699 218.129 111.831 211.507 114.121C203.644 113.403 196.318 109.857 190.911 104.152C191.663 103.913 192.369 103.552 193.001 103.083C194.132 102.243 195.49 101.757 196.902 101.685C198.313 101.614 199.714 101.961 200.926 102.682C201.467 103.003 202.089 103.166 202.719 103.151C203.35 103.137 203.963 102.946 204.489 102.6C205.014 102.254 205.43 101.768 205.688 101.198C205.947 100.627 206.037 99.9962 205.948 99.3772L202.307 74.1724H232.604L233.227 70.1621H168.5L176.59 122.296H225.136L226.38 114.276H220.571Z" fill="#93999A"/>
<path d="M174.568 66.1519C173.316 66.1497 172.097 65.7628 171.077 65.0445C170.056 64.3263 169.286 63.312 168.872 62.1416H162.431V70.1622H239.295V66.1519H174.568Z" fill="#D0D8DA"/>
<path d="M239.295 76.1777H232.292L231.671 80.188H237.21C236.097 98.054 220.219 112.271 200.863 112.271C181.508 112.271 165.629 98.054 164.517 80.188H170.055L169.434 76.1777H162.431C161.895 76.1777 161.38 76.389 161.001 76.765C160.622 77.1411 160.409 77.6511 160.409 78.1829C160.409 99.1909 178.557 116.281 200.863 116.281C223.17 116.281 241.318 99.1909 241.318 78.1829C241.318 77.6511 241.105 77.1411 240.725 76.765C240.346 76.389 239.832 76.1777 239.295 76.1777Z" fill="#84D2F4"/>
<path d="M195.807 57.1286C195.002 57.9259 193.91 58.3739 192.772 58.3739C191.635 58.3739 190.543 57.9259 189.738 57.1286C188.933 56.3312 187.842 55.8833 186.704 55.8833C185.566 55.8833 184.475 56.3312 183.67 57.1286C181.701 59.081 180.423 61.6139 180.029 64.3471L174.568 102.245L180.581 98.6674C181.793 97.9463 183.194 97.5993 184.606 97.6708C186.017 97.7422 187.375 98.2288 188.506 99.0685C189.737 99.9841 191.234 100.479 192.772 100.479C194.311 100.479 195.808 99.9841 197.038 99.0685C198.17 98.2288 199.528 97.7422 200.939 97.6708C202.351 97.5993 203.752 97.9463 204.963 98.6674C205.504 98.9887 206.126 99.1514 206.757 99.137C207.387 99.1225 208.001 98.9313 208.526 98.5856C209.052 98.2399 209.467 97.7537 209.726 97.1834C209.984 96.6131 210.074 95.9819 209.986 95.3629L205.516 64.3471C205.122 61.6139 203.844 59.081 201.875 57.1286C201.07 56.3312 199.978 55.8833 198.841 55.8833C197.703 55.8833 196.611 56.3312 195.807 57.1286Z" fill="#84D2F4"/>
<path d="M198.29 75.3876L198.044 72.9373C197.773 70.2269 196.635 67.6735 194.795 65.6505C194.038 64.8076 192.977 64.2944 191.841 64.2223C190.705 64.1502 189.586 64.5251 188.727 65.2655C187.912 66.034 186.825 66.4547 185.701 66.4371C184.576 66.4195 183.503 65.9649 182.713 65.1713C182.021 64.4774 181.132 64.0094 180.165 63.8298C180.132 64.0043 180.074 64.1707 180.047 64.3472L174.568 102.245L180.581 98.6674C181.793 97.9463 183.194 97.5994 184.606 97.6708C186.017 97.7422 187.375 98.2288 188.506 99.0685C189.737 99.9841 191.234 100.479 192.772 100.479C194.311 100.479 195.808 99.9841 197.038 99.0685C198.17 98.2288 199.528 97.7422 200.939 97.6708C202.351 97.5994 203.752 97.9463 204.963 98.6674C205.504 98.9887 206.126 99.1515 206.757 99.137C207.387 99.1225 208.001 98.9314 208.526 98.5856C209.052 98.2399 209.467 97.7538 209.726 97.1834C209.984 96.6131 210.074 95.9819 209.986 95.3629L209.292 90.5506C206.276 89.2035 203.672 87.0929 201.741 84.4311C199.809 81.7693 198.619 78.6501 198.29 75.3876Z" fill="#00B9B4"/>
<path d="M190.729 70.4027L187.25 97.9936L187.19 98.2944C185.949 97.7358 184.572 97.5477 183.225 97.753C183.221 97.6723 183.228 97.5913 183.245 97.5124L186.724 69.9214C186.737 69.6459 186.807 69.3759 186.93 69.1285C187.053 68.881 187.226 68.6614 187.439 68.4833C187.651 68.3051 187.899 68.1724 188.165 68.0934C188.432 68.0143 188.712 67.9907 188.988 68.0238C189.265 68.057 189.531 68.1464 189.771 68.2863C190.011 68.4262 190.219 68.6136 190.382 68.8369C190.546 69.0602 190.661 69.3145 190.721 69.5839C190.78 69.8533 190.783 70.132 190.729 70.4027Z" fill="#28A8A5"/>
<path d="M202.562 97.5726V97.7932C202.149 97.7134 201.729 97.6731 201.308 97.6729C200.373 97.6752 199.447 97.852 198.578 98.1942C198.538 98.0918 198.518 97.9831 198.517 97.8734L196.818 74.3128C196.799 74.0495 196.833 73.7851 196.918 73.5348C197.002 73.2844 197.136 73.053 197.31 72.8538C197.663 72.4515 198.163 72.2045 198.699 72.1673C199.236 72.13 199.765 72.3056 200.171 72.6553C200.577 73.005 200.826 73.5003 200.863 74.0321L202.562 97.5726Z" fill="#28A8A5"/>
<path d="M198.044 72.9372L198.29 75.3875C198.61 78.557 199.749 81.5914 201.595 84.1981L200.863 74.032C200.82 73.5023 200.57 73.0103 200.165 72.6617C199.76 72.3131 199.234 72.1356 198.699 72.1672C198.435 72.1843 198.178 72.2524 197.94 72.3677C197.969 72.5682 198.031 72.7467 198.044 72.9372Z" fill="#00B9B4"/>
</g>
<defs>
<filter id="filter0_i_708_123" x="0" y="0" width="265" height="260" filterUnits="userSpaceOnUse" color-interpolation-filters="sRGB">
<feFlood flood-opacity="0" result="BackgroundImageFix"/>
<feBlend mode="normal" in="SourceGraphic" in2="BackgroundImageFix" result="shape"/>
<feColorMatrix in="SourceAlpha" type="matrix" values="0 0 0 0 0 0 0 0 0 0 0 0 0 0 0 0 0 0 127 0" result="hardAlpha"/>
<feOffset dx="4" dy="4"/>
<feGaussianBlur stdDeviation="2"/>
<feComposite in2="hardAlpha" operator="arithmetic" k2="-1" k3="1"/>
<feColorMatrix type="matrix" values="0 0 0 0 0 0 0 0 0 0 0 0 0 0 0 0 0 0 0.4 0"/>
<feBlend mode="normal" in2="shape" result="effect1_innerShadow_708_123"/>
</filter>
<radialGradient id="paint0_diamond_708_123" cx="0" cy="0" r="1" gradientUnits="userSpaceOnUse" gradientTransform="translate(53.4766 122.621) rotate(90) scale(31.7151 7.94306)">
<stop stop-color="#28A8A5"/>
<stop offset="1" stop-color="#28A87F"/>
</radialGradient>
<radialGradient id="paint1_diamond_708_123" cx="0" cy="0" r="1" gradientUnits="userSpaceOnUse" gradientTransform="translate(123.807 135.838) rotate(90) scale(31.6664 31.7226)">
<stop stop-color="#28A8A5"/>
<stop offset="1" stop-color="#28A87F"/>
</radialGradient>
<radialGradient id="paint2_diamond_708_123" cx="0" cy="0" r="1" gradientUnits="userSpaceOnUse" gradientTransform="translate(132.628 207.859) rotate(90) scale(7.92878 39.7153)">
<stop stop-color="#28A8A5"/>
<stop offset="1" stop-color="#28A87F"/>
</radialGradient>
<radialGradient id="paint3_diamond_708_123" cx="0" cy="0" r="1" gradientUnits="userSpaceOnUse" gradientTransform="translate(202.984 139.329) rotate(90) scale(23.7863 7.94306)">
<stop stop-color="#28A8A5"/>
<stop offset="1" stop-color="#28A87F"/>
</radialGradient>
<clipPath id="clip0_708_123">
<rect width="261" height="256" fill="white"/>
</clipPath>
</defs>
</svg>
