<svg width="160" height="160" viewBox="0 0 160 160" fill="none" xmlns="http://www.w3.org/2000/svg">
<circle cx="80" cy="80" r="76" stroke="url(#paint0_linear_636_472)" stroke-width="8"/>
<g clip-path="url(#clip0_636_472)">
<path d="M119.322 118.644V102.485C119.322 100.716 118.458 99.0576 117.009 98.0419L106.813 90.9043C106.13 90.4257 105.315 90.1694 104.48 90.1694H96.271L96.4066 113.369C96.4568 115.787 98.0365 117.905 100.339 118.644H119.322Z" fill="#FEC9A3"/>
<path d="M111.186 118.644H101.695C98.6994 118.644 96.271 116.216 96.271 113.22V107.797H105.763L111.186 118.644Z" fill="#FABD91"/>
<path d="M75.9322 49.4916C74.998 49.493 74.0745 49.6881 73.2203 50.0637V40H48.8136C44.32 40 40.678 43.642 40.678 48.1356V72.5423H50.7417C49.2366 69.1145 50.7945 65.1145 54.2238 63.6095C57.6516 62.1044 61.6516 63.6623 63.1566 67.0916C63.92 68.8284 63.92 70.8069 63.1566 72.5437H73.2203V62.48C76.6481 63.9852 80.6481 62.4272 82.1531 58.998C83.6581 55.5687 82.1003 51.5702 78.6711 50.0652C77.8088 49.6841 76.8759 49.4902 75.9322 49.4916Z" fill="url(#paint1_diamond_636_472)"/>
<path d="M105.763 48.1356C105.763 43.642 102.121 40 97.6273 40H73.2204V50.0637C76.6482 48.5586 80.6482 50.1166 82.1532 53.5458C83.6584 56.9736 82.1004 60.9736 78.6712 62.4786C76.9343 63.242 74.9559 63.242 73.219 62.4786V72.5423H83.2827C81.7776 75.9702 83.3356 79.9702 86.7648 81.4752C90.1926 82.9803 94.1926 81.4223 95.6976 77.9931C96.461 76.2563 96.461 74.2778 95.6976 72.5409H105.763V48.1356Z" fill="#EEEEEE"/>
<path d="M105.763 48.9099C98.0121 59.6923 84.0202 65.8169 73.2202 69.1133V72.5426H83.284C81.7788 75.9704 83.3368 79.9704 86.766 81.4754C90.1938 82.9805 94.1938 81.4226 95.6988 77.9933C96.4622 76.2565 96.4622 74.278 95.6988 72.5412H105.763V48.9099Z" fill="#E1E1E1"/>
<path d="M70.5084 83.3897C71.4427 83.3911 72.3661 83.5863 73.2203 83.9619V72.5422H63.1566C64.6617 69.1144 63.1038 65.1144 59.6745 63.6094C56.2453 62.1043 52.2467 63.6622 50.7417 67.0915C49.9783 68.8283 49.9783 70.8068 50.7417 72.5436H40.678V96.9504C40.678 101.444 44.32 105.086 48.8136 105.086H73.2203V96.3782C69.7925 97.8833 65.7925 96.3254 64.2875 92.8961C62.7824 89.4683 64.3403 85.4683 67.7695 83.9633C68.6319 83.5822 69.5647 83.3883 70.5084 83.3897Z" fill="#EEEEEE"/>
<path d="M40.678 96.9492C40.678 101.443 44.32 105.085 48.8136 105.085H73.2204V96.377C69.8088 97.8793 65.825 96.3323 64.3227 92.9207C63.9743 92.1289 63.7804 91.276 63.7532 90.4109C56.484 93.6529 48.6358 95.3981 40.6779 95.5431V96.9492H40.678Z" fill="#E1E1E1"/>
<path d="M109.309 100.881L100.729 77.9661L91.3072 81.5145C93.9336 84.1898 93.8929 88.4881 91.2176 91.1131C88.5423 93.7383 84.244 93.6989 81.619 91.0236C80.2822 89.6609 79.5797 87.7992 79.6854 85.8928L70.2643 89.4412L74.2779 100.165C73.3464 100.112 72.4136 100.255 71.539 100.583C68.0379 101.942 66.3025 105.881 67.6611 109.382C68.9967 112.822 72.8326 114.569 76.3051 113.316C77.1797 112.987 77.977 112.477 78.644 111.822L81.7032 120L104.553 111.394C108.765 109.799 110.892 105.097 109.309 100.881Z" fill="#28A8A5"/>
<path d="M104.884 89.0645C95.5281 103.058 77.9892 107.944 67.7166 109.627C69.158 113.056 73.1064 114.667 76.5355 113.226C77.3206 112.896 78.0366 112.419 78.6439 111.822L81.7031 120L104.553 111.394C108.763 109.799 110.89 105.1 109.309 100.886L104.884 89.0645Z" fill="#219C99"/>
<path d="M75.9322 49.4915C74.998 49.4929 74.0745 49.6881 73.2203 50.0637V48.0962C63.0672 57.4426 49.3113 62.6046 40.678 65.1199V72.5423H50.7417C49.2366 69.1145 50.7945 65.1145 54.2238 63.6095C57.6516 62.1043 61.6516 63.6623 63.1566 67.0915C63.92 68.8284 63.92 70.8068 63.1566 72.5437H73.2203V62.4799C76.6481 63.9851 80.6481 62.4271 82.1531 58.9979C83.6581 55.5687 82.1003 51.5701 78.6711 50.0651C77.8088 49.684 76.8759 49.4901 75.9322 49.4915Z" fill="url(#paint2_diamond_636_472)"/>
<path d="M103.075 101.042C101.778 99.7181 99.653 99.6963 98.3296 100.994C97.0061 102.292 96.9844 104.416 98.2821 105.74C98.2983 105.756 98.3133 105.772 98.3296 105.787L103.051 110.509C103.051 115.002 106.693 118.644 111.187 118.644H119.322V117.288L103.075 101.042Z" fill="#FEC9A3"/>
</g>
<defs>
<linearGradient id="paint0_linear_636_472" x1="80" y1="0" x2="80" y2="160" gradientUnits="userSpaceOnUse">
<stop stop-color="#28A87F"/>
<stop offset="1" stop-color="#28A8A5"/>
</linearGradient>
<radialGradient id="paint1_diamond_636_472" cx="0" cy="0" r="1" gradientUnits="userSpaceOnUse" gradientTransform="translate(61.7024 43.151) rotate(90) scale(29.3928 37.9776)">
<stop stop-color="#28A8A5"/>
<stop offset="1" stop-color="#28A87F"/>
</radialGradient>
<radialGradient id="paint2_diamond_636_472" cx="0" cy="0" r="1" gradientUnits="userSpaceOnUse" gradientTransform="translate(61.7024 50.4633) rotate(90) scale(22.0804 37.9776)">
<stop stop-color="#28A8A5"/>
<stop offset="1" stop-color="#28A87F"/>
</radialGradient>
<clipPath id="clip0_636_472">
<rect width="80" height="80" fill="white" transform="translate(40 40)"/>
</clipPath>
</defs>
</svg>
