<svg width="279" height="30" viewBox="0 0 279 30" fill="none" xmlns="http://www.w3.org/2000/svg">
<path d="M60.8978 26.958V8.19006C60.897 7.8468 60.9639 7.50676 61.0947 7.18941C61.2256 6.87206 61.4177 6.58363 61.6601 6.34063C61.9026 6.09763 62.1906 5.90485 62.5076 5.77331C62.8247 5.64177 63.1645 5.57406 63.5078 5.57406H72.9818C73.325 5.57485 73.6651 5.50792 73.9824 5.37711C74.2998 5.2463 74.5882 5.05417 74.8312 4.81173C75.0742 4.5693 75.267 4.2813 75.3985 3.96425C75.5301 3.6472 75.5978 3.30732 75.5978 2.96406V2.61006C75.5978 2.26681 75.5301 1.92693 75.3985 1.60987C75.267 1.29282 75.0742 1.00483 74.8312 0.762394C74.5882 0.519954 74.2998 0.327829 73.9824 0.197017C73.6651 0.0662061 73.325 -0.00072116 72.9818 6.79323e-05H42.6278C41.9356 6.79323e-05 41.2717 0.275049 40.7823 0.764518C40.2928 1.25399 40.0178 1.91785 40.0178 2.61006V2.96406C40.0178 3.65628 40.2928 4.32014 40.7823 4.80961C41.2717 5.29908 41.9356 5.57406 42.6278 5.57406H52.1018C52.7946 5.57565 53.4584 5.85196 53.9477 6.34239C54.437 6.83281 54.7118 7.49729 54.7118 8.19006V26.958C54.7134 27.6508 54.9897 28.3146 55.4801 28.8039C55.9706 29.2932 56.635 29.568 57.3278 29.568H58.2818C58.9746 29.568 59.639 29.2932 60.1295 28.8039C60.6199 28.3146 60.8962 27.6508 60.8978 26.958Z" fill="#EEEEEE"/>
<path d="M88.0597 6.10352e-05H87.0997C85.6583 6.10352e-05 84.4897 1.1686 84.4897 2.61006V26.958C84.4897 28.3995 85.6583 29.568 87.0997 29.568H88.0597C89.5012 29.568 90.6697 28.3995 90.6697 26.958V2.61006C90.6697 1.1686 89.5012 6.10352e-05 88.0597 6.10352e-05Z" fill="#EEEEEE"/>
<path d="M135.508 4.04277e-05C135.028 0.00440151 134.559 0.140464 134.152 0.393362C133.744 0.64626 133.414 1.00626 133.198 1.43404L122.77 22.134C122.122 23.388 121.3 24.12 119.698 24.12C118.096 24.12 117.298 23.388 116.632 22.134L106.198 1.43404C105.977 1.00035 105.641 0.636533 105.225 0.383284C104.81 0.130035 104.332 -0.00266063 103.846 4.04277e-05H102.88C102.435 -0.000630455 101.997 0.112447 101.608 0.328533C101.219 0.544619 100.892 0.856539 100.658 1.23467C100.423 1.6128 100.289 2.0446 100.269 2.48904C100.248 2.93348 100.341 3.37581 100.54 3.77403L110.428 23.73C112.228 27.408 114.628 30 119.674 30C124.72 30 127.114 27.408 128.926 23.73L138.814 3.77403C139.012 3.37581 139.106 2.93348 139.085 2.48904C139.064 2.0446 138.93 1.6128 138.696 1.23467C138.461 0.856539 138.134 0.544619 137.745 0.328533C137.356 0.112447 136.919 -0.000630455 136.474 4.04277e-05H135.508Z" fill="#EEEEEE"/>
<path d="M182.602 6.10352e-05C182.119 0.00112002 181.646 0.135628 181.235 0.388708C180.825 0.641787 180.492 1.00358 180.274 1.43406L169.846 22.134C169.198 23.4 168.376 24.12 166.798 24.12C165.22 24.12 164.398 23.388 163.726 22.134L153.274 1.43406C153.056 1.00358 152.723 0.641787 152.312 0.388708C151.901 0.135628 151.428 0.00112002 150.946 6.10352e-05L149.998 6.10352e-05C149.553 0.00103524 149.117 0.115155 148.729 0.33166C148.341 0.548164 148.014 0.859919 147.78 1.23753C147.546 1.61514 147.412 2.04615 147.39 2.48994C147.369 2.93373 147.461 3.37565 147.658 3.77406L157.546 23.73C159.346 27.408 161.746 30 166.798 30C171.85 30 174.232 27.408 176.05 23.73L185.914 3.77406C186.109 3.37747 186.202 2.93771 186.181 2.49589C186.161 2.05406 186.029 1.62459 185.798 1.24762C185.566 0.870653 185.243 0.558491 184.858 0.340316C184.474 0.122141 184.04 0.00507505 183.598 6.10352e-05L182.602 6.10352e-05Z" fill="#EEEEEE"/>
<path d="M195.346 15.3C195.346 25.98 200.404 30 213.676 30C226.948 30 231.958 25.98 231.958 15.3V2.61006C231.958 1.91784 231.683 1.25398 231.193 0.764511C230.704 0.275042 230.04 6.10352e-05 229.348 6.10352e-05H228.388C228.045 6.10352e-05 227.705 0.0675706 227.389 0.198735C227.072 0.3299 226.784 0.522151 226.542 0.764511C226.3 1.00687 226.107 1.2946 225.976 1.61125C225.845 1.92791 225.778 2.26731 225.778 2.61006V15.3C225.778 22.392 223.378 23.994 213.676 23.994C203.974 23.994 201.526 22.392 201.526 15.3V2.61006C201.526 1.91784 201.251 1.25398 200.761 0.764511C200.272 0.275042 199.608 6.10352e-05 198.916 6.10352e-05L197.956 6.10352e-05C197.263 6.10352e-05 196.6 0.275042 196.11 0.764511C195.621 1.25398 195.346 1.91784 195.346 2.61006V15.3Z" fill="#EEEEEE"/>
<path d="M241.078 26.646V26.958C241.078 27.6502 241.353 28.3141 241.842 28.8036C242.332 29.293 242.995 29.568 243.688 29.568H266.998C275.344 29.568 278.542 26.022 278.542 21.006C278.542 15.042 274.048 12.84 267.088 12.276L253.468 11.196C248.626 10.806 247.504 9.94205 247.504 8.29805C247.504 6.31205 249.148 5.53205 252.046 5.53205H274.024C274.709 5.52105 275.363 5.24141 275.844 4.75329C276.326 4.26518 276.596 3.60761 276.598 2.92206V2.61006C276.596 1.91937 276.321 1.25733 275.834 0.768371C275.346 0.279415 274.684 0.00322755 273.994 6.10352e-05L252.598 6.10352e-05C246.478 6.10352e-05 241.198 2.20206 241.198 8.47205C241.198 13.92 245.17 16.272 251.83 16.818L266.134 17.94C270.37 18.288 272.134 19.278 272.134 21.27C272.134 22.908 270.934 24.036 267.334 24.036H243.688C242.995 24.036 242.332 24.311 241.842 24.8005C241.353 25.2899 241.078 25.9538 241.078 26.646Z" fill="#EEEEEE"/>
<path d="M35.2419 30C34.7585 29.9994 34.2846 29.8651 33.8727 29.6121C33.4608 29.359 33.1269 28.997 32.9079 28.566L22.4799 7.86605C21.8319 6.60005 20.9979 5.88005 19.4139 5.88005C17.8299 5.88005 17.0139 6.61205 16.3419 7.86605L5.91393 28.566C5.69683 28.9947 5.36585 29.3553 4.9573 29.6082C4.54876 29.8612 4.07844 29.9968 3.59793 30H2.61393C2.16901 30.0007 1.73131 29.8876 1.34239 29.6715C0.953466 29.4554 0.62624 29.1435 0.391785 28.7654C0.157331 28.3873 0.0234328 27.9555 0.0028066 27.511C-0.0178196 27.0666 0.0755113 26.6242 0.273936 26.226L4.37193 17.952L7.82793 10.98L10.1619 6.27005C11.9979 2.59206 14.3559 6.10352e-05 19.4139 6.10352e-05C24.4719 6.10352e-05 26.8479 2.59206 28.6659 6.27005L38.5539 26.226C38.7506 26.6244 38.8425 27.0664 38.8211 27.5101C38.7997 27.9539 38.6656 28.3849 38.4315 28.7626C38.1973 29.1402 37.8709 29.4519 37.4829 29.6684C37.0949 29.8849 36.6582 29.999 36.2139 30H35.2419Z" fill="#EEEEEE"/>
<path d="M19.4138 18.12H19.4078C17.9664 18.12 16.7979 19.2886 16.7979 20.73V20.736C16.7979 22.1775 17.9664 23.346 19.4078 23.346H19.4138C20.8553 23.346 22.0238 22.1775 22.0238 20.736V20.73C22.0238 19.2886 20.8553 18.12 19.4138 18.12Z" fill="#EEEEEE"/>
</svg>
