<svg xmlns="http://www.w3.org/2000/svg" viewBox="0 0 479.32 378.1"><defs><style>.cls-1{fill:#111110;}</style></defs><g id="Camada_2" data-name="Camada 2"><g id="Layer_1" data-name="Layer 1"><path class="cls-1" d="M146,177.45a33,33,0,1,1-33,33,32.49,32.49,0,0,1,2.39-12.31,13.56,13.56,0,0,0,19-18.58A32.89,32.89,0,0,1,146,177.45Z"/><path class="cls-1" d="M448.57,127.42s0-.07,0-.09a.36.36,0,0,1,0-.07s-.06.07-.08.11c-10,14.56-46.41,28.65-54.63,31.7a75.76,75.76,0,0,1,12.92,42.45c0,41.89-34.68,76.35-76.57,76.1a75.61,75.61,0,0,1-24.48-4.2,0,0,0,0,1,0,0,.7.7,0,0,0-.2,0s-1.07-.35-2.88-1.09c-.4-.16-.79-.32-1.19-.5l-.65-.27c-.86-.38-1.81-.83-2.83-1.33q-.78-.37-1.62-.81l-1-.5-1.38-.75c-1-.53-1.95-1.1-2.91-1.69s-1.95-1.2-2.9-1.87c-.56-.38-1.13-.75-1.71-1.17-.91-.64-1.85-1.31-2.76-2a72.84,72.84,0,0,1-6.84-6c-.52-.52-1.06-1.06-1.55-1.62-7.75-8.45-14-19.94-14-35.11,0-40.42,37.23-63.28,67-70.73,8.73-2.19,25.54-4.2,44.89-9.46,20.36-5.53,43.49-14.7,63-31.52,0,0,.07,0,.1-.09,23.84-20.6,42.16-52.7,43.07-103.67A3,3,0,0,0,474.07,1c-11.63,12.42-44.13,40.41-112.32,57.09l-.79.2h0c-23.8,5.76-51.94,10.14-85,12q-1.22.09-2.46.15c-10.73.55-22,.86-33.78.86s-23-.31-33.78-.86c-.81,0-1.61-.09-2.42-.15-33.1-1.88-61.26-6.26-85.06-12h0l-.81-.2C49.38,41.37,16.88,13.38,5.25,1A3,3,0,0,0,0,3.13C.91,54.1,19.23,86.2,43.07,106.8c0,0,.09.07.12.11,19.48,16.8,42.59,26,63,31.5,19.35,5.26,36.17,7.27,44.89,9.46,29.79,7.45,67,30.31,67,70.73,0,15.17-6.21,26.66-14,35.11-.49.56-1,1.1-1.55,1.62a72.84,72.84,0,0,1-6.84,6c-.91.71-1.85,1.38-2.76,2-.57.42-1.15.79-1.71,1.17-.95.67-1.92,1.28-2.9,1.87s-1.92,1.16-2.91,1.69l-1.38.75-1,.5q-.84.44-1.62.81c-1,.5-2,.95-2.83,1.33l-.65.27c-.39.18-.79.34-1.18.5-1.82.74-2.89,1.09-2.89,1.09a.7.7,0,0,0-.2,0,0,0,0,0,1,0,0,75.61,75.61,0,0,1-24.48,4.2c-41.89.25-76.57-34.21-76.57-76.1a75.76,75.76,0,0,1,12.92-42.45c-8.22-3-44.56-17.13-54.61-31.68a1,1,0,0,1-.09-.13s0,0,0,.07,0,.06,0,.09-.05.09-.05.15A126.12,126.12,0,0,0,18.57,181.7a121.93,121.93,0,0,0,.7,13.19c.1,1.06.23,2.12.36,3.18s.28,2.1.44,3.16l.11.75c0,.27.09.52.15.79.09.52.16,1,.26,1.55,0,0,0,0,0,.05l.33,1.76q.24,1.29.54,2.58a2.39,2.39,0,0,0,.1.52c.24,1.06.47,2.1.74,3.13s.57,2.26.88,3.39.63,2.23,1,3.34.7,2.22,1.07,3.32c.31.9.61,1.78.94,2.66s.64,1.75,1,2.63a127.2,127.2,0,0,0,52.61,62.48,125.91,125.91,0,0,0,61,18.15c.73,0,1.49.05,2.22.05.49,0,.95,0,1.44,0h.32c.92,0,1.82,0,2.73,0s1.62,0,2.41-.08l1-.05c.21,0,.43,0,.64,0l1.91-.1a125.43,125.43,0,0,0,31-6.23l52.23,74.61a4.51,4.51,0,0,0,1.69,1.46h0a5.77,5.77,0,0,0,2.71,0h0a4.31,4.31,0,0,0,1.61-1.44l52.23-74.61a125.32,125.32,0,0,0,36.92,6.5l2.7,0h.32c.47,0,.95,0,1.42,0,.75,0,1.49,0,2.22-.05a125.88,125.88,0,0,0,61-18.15A127.27,127.27,0,0,0,449.5,234q.64-1.35,1.2-2.73c.34-.79.67-1.58,1-2.38.41-1.08.84-2.16,1.24-3.23s.79-2.18,1.15-3.27c.07-.18.12-.34.18-.52.36-1.06.7-2.14,1-3.21.21-.69.41-1.39.61-2.07.11-.36.22-.73.32-1.11.06-.2.11-.4.16-.59l.4-1.58c.09-.34.16-.67.25-1a1.34,1.34,0,0,0,.07-.27c.54-2.17,1-4.36,1.44-6.57.21-1.16.43-2.33.61-3.5.09-.61.2-1.22.29-1.83.05-.37.1-.75.14-1.13.1-.68.18-1.36.26-2,.24-2,.43-3.89.57-5.85l.12-1.86c.16-2.52.23-5,.23-7.58a126.12,126.12,0,0,0-12.13-54.13C448.62,127.51,448.58,127.48,448.57,127.42ZM271.09,296.82l-29.8,48a2.56,2.56,0,0,1-1.63,1.18,2.61,2.61,0,0,1-1.64-1.18l-29.79-48-2.65-3.37a101,101,0,0,0,34-24.93,101,101,0,0,0,34.1,25Z"/><path class="cls-1" d="M314.13,199.86a13.6,13.6,0,0,1-11.45-1.68,32.63,32.63,0,0,0-2.37,13.59c.57,15.06,13.75,29.58,28.71,31.47a33,33,0,1,0-7.39-63.64,13.56,13.56,0,0,1-7.5,20.26Z"/></g></g></svg>