<?xml version="1.0" encoding="utf-8"?>
<!-- Generator: Adobe Illustrator 24.2.1, SVG Export Plug-In . SVG Version: 6.00 Build 0)  -->
<svg version="1.1" id="Layer_1" xmlns="http://www.w3.org/2000/svg" xmlns:xlink="http://www.w3.org/1999/xlink" x="0px" y="0px"
	 viewBox="0 0 479.3 378.1" style="enable-background:new 0 0 479.3 378.1;" xml:space="preserve">
<style type="text/css">
	.st0{fill:#28A8A5;}
</style>
<g id="Camada_2">
	<g id="Layer_1_1_">
		<path class="st0" d="M146,177.5c18.2,0,33,14.8,33,33s-14.8,33-33,33s-33-14.8-33-33l0,0c0-4.2,0.8-8.4,2.4-12.3
			c6.2,4.2,14.6,2.6,18.8-3.6c3.1-4.5,3.1-10.4,0.2-15C138.1,178.2,142,177.4,146,177.5z"/>
		<path class="st0" d="M448.6,127.4C448.6,127.4,448.6,127.4,448.6,127.4c0-0.1,0-0.1,0-0.2C448.6,127.3,448.5,127.3,448.6,127.4
			c-10.1,14.5-46.5,28.6-54.7,31.7c8.4,12.5,12.9,27.3,12.9,42.4c0,41.9-34.7,76.3-76.6,76.1c-8.3,0-16.6-1.5-24.5-4.2l0,0
			c-0.1,0-0.1,0-0.2,0c0,0-1.1-0.4-2.9-1.1c-0.4-0.2-0.8-0.3-1.2-0.5l-0.6-0.3c-0.9-0.4-1.8-0.8-2.8-1.3c-0.5-0.2-1.1-0.5-1.6-0.8
			l-1-0.5l-1.4-0.8c-1-0.5-2-1.1-2.9-1.7s-2-1.2-2.9-1.9c-0.6-0.4-1.1-0.8-1.7-1.2c-0.9-0.6-1.9-1.3-2.8-2c-2.4-1.9-4.7-3.9-6.8-6
			c-0.5-0.5-1.1-1.1-1.5-1.6c-7.8-8.4-14-19.9-14-35.1c0-40.4,37.2-63.3,67-70.7c8.7-2.2,25.5-4.2,44.9-9.5
			c20.4-5.5,43.5-14.7,63-31.5c0,0,0.1,0,0.1-0.1c23.8-20.6,42.2-52.7,43.1-103.7c0.2-1.6-1-3.1-2.6-3.3c-1-0.1-2,0.3-2.7,1.1
			c-11.6,12.4-44.1,40.4-112.3,57.1l-0.8,0.2l0,0c-23.8,5.8-51.9,10.1-85,12c-0.8,0.1-1.6,0.1-2.5,0.2c-10.7,0.6-22,0.9-33.8,0.9
			s-23-0.3-33.8-0.9c-0.8,0-1.6-0.1-2.4-0.2c-33.1-1.9-61.3-6.3-85.1-12l0,0l-0.8-0.2C49.4,41.4,16.9,13.4,5.3,1
			C4.2-0.2,2.3-0.4,1,0.7C0.3,1.3,0,2.2,0,3.1c0.9,51,19.2,83.1,43.1,103.7c0,0,0.1,0.1,0.1,0.1c19.5,16.8,42.6,26,63,31.5
			c19.3,5.3,36.2,7.3,44.9,9.5c29.8,7.4,67,30.3,67,70.7c0,15.2-6.2,26.7-14,35.1c-0.5,0.6-1,1.1-1.6,1.6c-2.2,2.1-4.4,4.1-6.8,6
			c-0.9,0.7-1.9,1.4-2.8,2c-0.6,0.4-1.1,0.8-1.7,1.2c-0.9,0.7-1.9,1.3-2.9,1.9s-1.9,1.2-2.9,1.7l-1.4,0.8l-1,0.5
			c-0.6,0.3-1.1,0.6-1.6,0.8c-1,0.5-2,1-2.8,1.3l-0.6,0.3c-0.4,0.2-0.8,0.3-1.2,0.5c-1.8,0.7-2.9,1.1-2.9,1.1c-0.1,0-0.1,0-0.2,0
			l0,0c-7.9,2.7-16.1,4.2-24.5,4.2c-41.9,0.3-76.6-34.2-76.6-76.1c0-15.1,4.5-29.9,12.9-42.4c-8.2-3-44.6-17.1-54.6-31.7
			c0,0-0.1-0.1-0.1-0.1c0,0,0,0,0,0.1s0,0.1,0,0.1s0,0.1,0,0.2c-8.1,16.9-12.2,35.5-12.2,54.2c0,4.4,0.2,8.8,0.7,13.2
			c0.1,1.1,0.2,2.1,0.4,3.2s0.3,2.1,0.4,3.2l0.1,0.8c0,0.3,0.1,0.5,0.1,0.8c0.1,0.5,0.2,1,0.3,1.6c0,0,0,0,0,0.1l0.3,1.8
			c0.2,0.9,0.3,1.7,0.5,2.6c0,0.2,0,0.4,0.1,0.5c0.2,1.1,0.5,2.1,0.7,3.1s0.6,2.3,0.9,3.4s0.6,2.2,1,3.3s0.7,2.2,1.1,3.3
			c0.3,0.9,0.6,1.8,0.9,2.7s0.6,1.8,1,2.6c10.2,26,28.7,48,52.6,62.5c18.4,11.2,39.4,17.4,61,18.1c0.7,0,1.5,0,2.2,0
			c0.5,0,0.9,0,1.4,0h0.3c0.9,0,1.8,0,2.7,0s1.6,0,2.4-0.1l1,0c0.2,0,0.4,0,0.6,0l1.9-0.1c10.6-0.8,21-2.9,31-6.2l52.2,74.6
			c0.4,0.6,1,1.1,1.7,1.5l0,0c0.9,0.2,1.8,0.2,2.7,0l0,0c0.7-0.3,1.2-0.8,1.6-1.4l52.2-74.6c11.9,4,24.4,6.2,36.9,6.5h2.7h0.3
			c0.5,0,1,0,1.4,0c0.8,0,1.5,0,2.2,0c21.6-0.7,42.6-7,61-18.1c21.9-13.3,39.4-32.9,50-56.2c0.4-0.9,0.8-1.8,1.2-2.7
			c0.3-0.8,0.7-1.6,1-2.4c0.4-1.1,0.8-2.2,1.2-3.2s0.8-2.2,1.1-3.3c0.1-0.2,0.1-0.3,0.2-0.5c0.4-1.1,0.7-2.1,1-3.2
			c0.2-0.7,0.4-1.4,0.6-2.1c0.1-0.4,0.2-0.7,0.3-1.1c0.1-0.2,0.1-0.4,0.2-0.6l0.4-1.6c0.1-0.3,0.2-0.7,0.3-1c0-0.1,0.1-0.2,0.1-0.3
			c0.5-2.2,1-4.4,1.4-6.6c0.2-1.2,0.4-2.3,0.6-3.5c0.1-0.6,0.2-1.2,0.3-1.8c0-0.4,0.1-0.8,0.1-1.1c0.1-0.7,0.2-1.4,0.3-2
			c0.2-2,0.4-3.9,0.6-5.9l0.1-1.9c0.2-2.5,0.2-5,0.2-7.6c0-18.7-4.1-37.2-12.1-54.1C448.6,127.5,448.6,127.5,448.6,127.4z
			 M271.1,296.8l-29.8,48c-0.4,0.6-0.9,1-1.6,1.2c-0.7-0.2-1.3-0.6-1.6-1.2l-29.8-48l-2.6-3.4c13-5.8,24.5-14.3,34-24.9
			c9.5,10.6,21.1,19.2,34.1,25L271.1,296.8z"/>
		<path class="st0" d="M314.1,199.9c-3.9,1.2-8.1,0.6-11.5-1.7c-1.7,4.3-2.6,8.9-2.4,13.6c0.6,15.1,13.8,29.6,28.7,31.5
			c18.1,2.3,34.6-10.5,36.9-28.6s-10.5-34.6-28.6-36.9c-5.3-0.7-10.7-0.1-15.7,1.8c4,6.3,2.2,14.7-4.2,18.7
			C316.4,199,315.3,199.5,314.1,199.9L314.1,199.9z"/>
	</g>
</g>
</svg>
