{
	"asset":{
		"generator":"Khronos glTF Blender I/O v3.5.30",
		"version":"2.0"
	},
	"extensionsUsed":[
		"KHR_materials_specular",
		"KHR_materials_ior"
	],
	"scene":0,
	"scenes":[
		{
			"name":"Scene",
			"nodes":[
				3,
				4
			]
		}
	],
	"nodes":[
		{
			"mesh":0,
			"name":"corpo",
			"scale":[
				10,
				10,
				10
			],
			"translation":[
				3.8648059368133545,
				43.58936309814453,
				1.188705563545227
			]
		},
		{
			"mesh":1,
			"name":"frente",
			"scale":[
				10,
				10,
				10
			],
			"translation":[
				3.430243730545044,
				43.499977111816406,
				8.16529655456543
			]
		},
		{
			"mesh":2,
			"name":"tampa",
			"scale":[
				10,
				10,
				10
			],
			"translation":[
				3.4300496578216553,
				43.336204528808594,
				-5.775453090667725
			]
		},
		{
			"children":[
				0,
				1,
				2
			],
			"name":"cracha_simples v1",
			"rotation":[
				2.7835369110107422e-05,
				0,
				0,
				1
			],
			"scale":[
				0.049403607845306396,
				0.049403607845306396,
				0.049403607845306396
			],
			"translation":[
				-0.16328230500221252,
				0,
				0
			]
		},
		{
			"mesh":3,
			"name":"Home",
			"rotation":[
				0.7071068286895752,
				2.5119525162153877e-05,
				-2.5119525162153877e-05,
				0.7071068286895752
			],
			"scale":[
				0.7595723271369934,
				0.7595723271369934,
				0.7595723271369934
			],
			"translation":[
				-1.1513169738464057e-05,
				3.185734748840332,
				0.4620321989059448
			]
		}
	],
	"materials":[
		{
			"doubleSided":true,
			"extensions":{
				"KHR_materials_specular":{
					"specularColorTexture":{
						"index":0
					}
				},
				"KHR_materials_ior":{
					"ior":1.4500000476837158
				}
			},
			"name":"black.plastic",
			"normalTexture":{
				"index":1
			},
			"pbrMetallicRoughness":{
				"baseColorTexture":{
					"index":2
				},
				"metallicRoughnessTexture":{
					"index":3
				}
			}
		},
		{
			"alphaMode":"BLEND",
			"doubleSided":true,
			"name":"Home",
			"pbrMetallicRoughness":{
				"baseColorTexture":{
					"index":4
				},
				"metallicFactor":0,
				"roughnessFactor":0
			}
		}
	],
	"meshes":[
		{
			"name":"corpo",
			"primitives":[
				{
					"attributes":{
						"POSITION":0,
						"TEXCOORD_0":1,
						"NORMAL":2
					},
					"indices":3,
					"material":0
				}
			]
		},
		{
			"name":"frente",
			"primitives":[
				{
					"attributes":{
						"POSITION":4,
						"TEXCOORD_0":5,
						"NORMAL":6
					},
					"indices":7,
					"material":0
				}
			]
		},
		{
			"name":"tampa",
			"primitives":[
				{
					"attributes":{
						"POSITION":8,
						"TEXCOORD_0":9,
						"NORMAL":10
					},
					"indices":11,
					"material":0
				}
			]
		},
		{
			"name":"Home",
			"primitives":[
				{
					"attributes":{
						"POSITION":12,
						"TEXCOORD_0":13,
						"NORMAL":14
					},
					"indices":15,
					"material":1
				}
			]
		}
	],
	"textures":[
		{
			"sampler":0,
			"source":0
		},
		{
			"sampler":0,
			"source":1
		},
		{
			"sampler":0,
			"source":2
		},
		{
			"sampler":0,
			"source":3
		},
		{
			"sampler":1,
			"source":4
		}
	],
	"images":[
		{
			"mimeType":"image/png",
			"name":"Image",
			"uri":"textures_cracha/Image.png"
		},
		{
			"mimeType":"image/jpeg",
			"name":"METAL_BLACK_002_4K_Normal",
			"uri":"textures_cracha/METAL_BLACK_002_4K_Normal.jpg"
		},
		{
			"mimeType":"image/jpeg",
			"name":"black_baseColor",
			"uri":"textures_cracha/black_baseColor.jpg"
		},
		{
			"mimeType":"image/png",
			"name":"METAL_BLACK_002_4K_Metallic-METAL_BLACK_002_4K_Roughness",
			"uri":"textures_cracha/METAL_BLACK_002_4K_Metallic-METAL_BLACK_002_4K_Roughness.png"
		},
		{
			"mimeType":"image/png",
			"name":"Home",
			"uri":"textures_cracha/Home.png"
		}
	],
	"accessors":[
		{
			"bufferView":0,
			"componentType":5126,
			"count":1530,
			"max":[
				3.0566771030426025,
				4.341063022613525,
				0.6006152033805847
			],
			"min":[
				-3.143392324447632,
				-4.359142303466797,
				-0.5993847846984863
			],
			"type":"VEC3"
		},
		{
			"bufferView":1,
			"componentType":5126,
			"count":1530,
			"type":"VEC2"
		},
		{
			"bufferView":2,
			"componentType":5126,
			"count":1530,
			"type":"VEC3"
		},
		{
			"bufferView":3,
			"componentType":5123,
			"count":6366,
			"type":"SCALAR"
		},
		{
			"bufferView":4,
			"componentType":5126,
			"count":590,
			"max":[
				3.1000003814697266,
				4.350001811981201,
				0.10295611619949341
			],
			"min":[
				-3.0999996662139893,
				-4.3499979972839355,
				-0.09704387187957764
			],
			"type":"VEC3"
		},
		{
			"bufferView":5,
			"componentType":5126,
			"count":590,
			"type":"VEC2"
		},
		{
			"bufferView":6,
			"componentType":5126,
			"count":590,
			"type":"VEC3"
		},
		{
			"bufferView":7,
			"componentType":5123,
			"count":2664,
			"type":"SCALAR"
		},
		{
			"bufferView":8,
			"componentType":5126,
			"count":819,
			"max":[
				3.100019693374634,
				4.366379261016846,
				0.09703102707862854
			],
			"min":[
				-3.099980354309082,
				-4.333620548248291,
				-0.10296899080276489
			],
			"type":"VEC3"
		},
		{
			"bufferView":9,
			"componentType":5126,
			"count":819,
			"type":"VEC2"
		},
		{
			"bufferView":10,
			"componentType":5126,
			"count":819,
			"type":"VEC3"
		},
		{
			"bufferView":11,
			"componentType":5123,
			"count":3522,
			"type":"SCALAR"
		},
		{
			"bufferView":12,
			"componentType":5126,
			"count":289,
			"max":[
				1.0000001192092896,
				9.885430335998535e-05,
				0.5
			],
			"min":[
				-1.000000238418579,
				-9.888410568237305e-05,
				-0.5
			],
			"type":"VEC3"
		},
		{
			"bufferView":13,
			"componentType":5126,
			"count":289,
			"type":"VEC2"
		},
		{
			"bufferView":14,
			"componentType":5126,
			"count":289,
			"type":"VEC3"
		},
		{
			"bufferView":15,
			"componentType":5123,
			"count":1536,
			"type":"SCALAR"
		}
	],
	"bufferViews":[
		{
			"buffer":0,
			"byteLength":18360,
			"byteOffset":0,
			"target":34962
		},
		{
			"buffer":0,
			"byteLength":12240,
			"byteOffset":18360,
			"target":34962
		},
		{
			"buffer":0,
			"byteLength":18360,
			"byteOffset":30600,
			"target":34962
		},
		{
			"buffer":0,
			"byteLength":12732,
			"byteOffset":48960,
			"target":34963
		},
		{
			"buffer":0,
			"byteLength":7080,
			"byteOffset":61692,
			"target":34962
		},
		{
			"buffer":0,
			"byteLength":4720,
			"byteOffset":68772,
			"target":34962
		},
		{
			"buffer":0,
			"byteLength":7080,
			"byteOffset":73492,
			"target":34962
		},
		{
			"buffer":0,
			"byteLength":5328,
			"byteOffset":80572,
			"target":34963
		},
		{
			"buffer":0,
			"byteLength":9828,
			"byteOffset":85900,
			"target":34962
		},
		{
			"buffer":0,
			"byteLength":6552,
			"byteOffset":95728,
			"target":34962
		},
		{
			"buffer":0,
			"byteLength":9828,
			"byteOffset":102280,
			"target":34962
		},
		{
			"buffer":0,
			"byteLength":7044,
			"byteOffset":112108,
			"target":34963
		},
		{
			"buffer":0,
			"byteLength":3468,
			"byteOffset":119152,
			"target":34962
		},
		{
			"buffer":0,
			"byteLength":2312,
			"byteOffset":122620,
			"target":34962
		},
		{
			"buffer":0,
			"byteLength":3468,
			"byteOffset":124932,
			"target":34962
		},
		{
			"buffer":0,
			"byteLength":3072,
			"byteOffset":128400,
			"target":34963
		}
	],
	"samplers":[
		{
			"magFilter":9729,
			"minFilter":9987
		},
		{
			"magFilter":9729,
			"minFilter":9987,
			"wrapS":33071,
			"wrapT":33071
		}
	],
	"buffers":[
		{
			"byteLength":131472,
			"uri":"cracha.bin"
		}
	]
}
