<svg width="200" height="202" viewBox="0 0 200 202" fill="none" xmlns="http://www.w3.org/2000/svg">
<g filter="url(#filter0_i_695_455)">
<path d="M190.625 170.198V192.261H121.875V176.502L134.375 163.895L150 179.654L159.375 170.198L168.75 179.654L184.375 163.895L190.625 170.198Z" fill="#EEEEEE"/>
<path d="M190.625 122.921V170.199L184.375 163.895L168.75 179.654L159.375 170.199L150 179.654L134.375 163.895L121.875 176.502V160.743L140.625 141.832L156.25 157.591L190.625 122.921Z" fill="#28A8A5"/>
<path d="M137.5 167.047V192.261H121.875V176.502L134.375 163.895L137.5 167.047Z" fill="#D1D1D1"/>
<path d="M148.438 149.712L137.5 160.743V167.047L134.375 163.895L121.875 176.502V160.743L140.625 141.832L148.438 149.712Z" fill="#219C99"/>
<path d="M190.625 122.921V138.68L171.875 157.591L164.062 149.712L190.625 122.921Z" fill="#219C99"/>
<path d="M46.875 129.225H59.375V179.654H46.875V129.225Z" fill="#EEEEEE"/>
<path d="M21.875 148.136H34.375V179.654H21.875V148.136Z" fill="url(#paint0_diamond_695_455)"/>
<path d="M71.875 116.617H84.375V179.654H71.875V116.617Z" fill="#28A8A5"/>
<path d="M46.875 129.225H53.125V179.654H46.875V129.225Z" fill="#D1D1D1"/>
<path d="M21.875 148.136H28.125V179.654H21.875V148.136Z" fill="url(#paint1_diamond_695_455)"/>
<path d="M71.875 116.617H78.125V179.654H71.875V116.617Z" fill="#219C99"/>
<path d="M99.8672 28.5003C104.034 35.0421 106.25 42.6537 106.25 50.4292H65.625V9.45544C72.4581 9.47992 79.1753 11.2369 85.1589 14.5649C91.1425 17.8929 96.2003 22.685 99.8672 28.5003Z" fill="#28A8A5"/>
<path d="M80.1875 93.4831C76.3919 97.7754 71.7415 101.212 66.5399 103.569C61.3384 105.926 55.7024 107.15 50 107.162C27.7148 107.162 9.375 88.6648 9.375 66.1883C9.375 43.7119 27.7148 25.2146 50 25.2146V66.1883H90.625C90.6132 76.2755 86.8945 86.0003 80.1875 93.4831Z" fill="url(#paint2_diamond_695_455)"/>
<path d="M81.25 12.6467V50.4292H65.625V9.45546C70.9928 9.45149 76.3066 10.5368 81.25 12.6467Z" fill="#219C99"/>
<path d="M57.8203 106.39C55.2449 106.905 52.6256 107.164 50 107.162C27.7148 107.162 9.375 88.6648 9.375 66.1883C9.375 43.7119 27.7148 25.2146 50 25.2146V28.4058C35.375 34.6307 25 49.2827 25 66.1883C25 85.9739 39.2148 102.679 57.8203 106.39Z" fill="url(#paint3_diamond_695_455)"/>
<path d="M92.8348 40.0506L88.4153 35.5932L104.04 19.834C104.33 19.5414 104.675 19.3092 105.054 19.1508C105.433 18.9924 105.84 18.9109 106.25 18.9109H131.25V25.2146H107.544L92.8348 40.0506Z" fill="#EEEEEE"/>
<path d="M131.25 100.858H84.375C83.9647 100.858 83.5583 100.777 83.1791 100.618C82.8 100.46 82.4555 100.228 82.1653 99.9352L66.5403 84.1761L70.9598 79.7186L85.6692 94.5547H131.25V100.858Z" fill="#EEEEEE"/>
<path d="M100 195.413H9.375C8.5462 195.413 7.75134 195.081 7.16529 194.49C6.57924 193.899 6.25 193.097 6.25 192.261V113.466H12.5V189.109H100V195.413Z" fill="#EEEEEE"/>
<path d="M137.5 18.9109H162.5V25.2146H137.5V18.9109Z" fill="#28A8A5"/>
<path d="M137.5 31.5182H162.5V37.8219H137.5V31.5182Z" fill="#28A8A5"/>
<path d="M137.5 44.1255H162.5V50.4291H137.5V44.1255Z" fill="#28A8A5"/>
<path d="M168.75 31.5182H193.75V37.8219H168.75V31.5182Z" fill="#28A8A5"/>
<path d="M168.75 44.1255H193.75V50.4291H168.75V44.1255Z" fill="#28A8A5"/>
<path d="M137.5 94.5547H162.5V100.858H137.5V94.5547Z" fill="url(#paint4_diamond_695_455)"/>
<path d="M168.75 94.5547H193.75V100.858H168.75V94.5547Z" fill="url(#paint5_diamond_695_455)"/>
<path d="M137.5 81.9474H162.5V88.251H137.5V81.9474Z" fill="url(#paint6_diamond_695_455)"/>
<path d="M168.75 81.9474H193.75V88.251H168.75V81.9474Z" fill="url(#paint7_diamond_695_455)"/>
<path d="M137.5 69.3401H162.5V75.6437H137.5V69.3401Z" fill="url(#paint8_diamond_695_455)"/>
<path d="M168.75 69.3401H193.75V75.6437H168.75V69.3401Z" fill="url(#paint9_diamond_695_455)"/>
<path d="M193.75 195.413H109.375C108.546 195.413 107.751 195.081 107.165 194.49C106.579 193.899 106.25 193.097 106.25 192.261V113.466H112.5V189.109H193.75V195.413Z" fill="#EEEEEE"/>
</g>
<defs>
<filter id="filter0_i_695_455" x="0" y="0" width="200" height="205.717" filterUnits="userSpaceOnUse" color-interpolation-filters="sRGB">
<feFlood flood-opacity="0" result="BackgroundImageFix"/>
<feBlend mode="normal" in="SourceGraphic" in2="BackgroundImageFix" result="shape"/>
<feColorMatrix in="SourceAlpha" type="matrix" values="0 0 0 0 0 0 0 0 0 0 0 0 0 0 0 0 0 0 127 0" result="hardAlpha"/>
<feOffset dy="4"/>
<feGaussianBlur stdDeviation="2"/>
<feComposite in2="hardAlpha" operator="arithmetic" k2="-1" k3="1"/>
<feColorMatrix type="matrix" values="0 0 0 0 0 0 0 0 0 0 0 0 0 0 0 0 0 0 0.25 0"/>
<feBlend mode="normal" in2="shape" result="effect1_innerShadow_695_455"/>
</filter>
<radialGradient id="paint0_diamond_695_455" cx="0" cy="0" r="1" gradientUnits="userSpaceOnUse" gradientTransform="translate(28.125 151.187) rotate(90) scale(28.4666 11.2897)">
<stop stop-color="#28A8A5"/>
<stop offset="1" stop-color="#28A87F"/>
</radialGradient>
<radialGradient id="paint1_diamond_695_455" cx="0" cy="0" r="1" gradientUnits="userSpaceOnUse" gradientTransform="translate(25 151.187) rotate(90) scale(28.4666 5.64486)">
<stop stop-color="#28A8A5"/>
<stop offset="1" stop-color="#28A87F"/>
</radialGradient>
<radialGradient id="paint2_diamond_695_455" cx="0" cy="0" r="1" gradientUnits="userSpaceOnUse" gradientTransform="translate(50 33.1489) rotate(90) scale(74.0131 73.3832)">
<stop stop-color="#28A8A5"/>
<stop offset="1" stop-color="#28A87F"/>
</radialGradient>
<radialGradient id="paint3_diamond_695_455" cx="0" cy="0" r="1" gradientUnits="userSpaceOnUse" gradientTransform="translate(33.5977 33.1489) rotate(90) scale(74.0131 43.7547)">
<stop stop-color="#28A8A5"/>
<stop offset="1" stop-color="#28A87F"/>
</radialGradient>
<radialGradient id="paint4_diamond_695_455" cx="0" cy="0" r="1" gradientUnits="userSpaceOnUse" gradientTransform="translate(150 95.165) rotate(90) scale(5.69331 22.5794)">
<stop stop-color="#28A8A5"/>
<stop offset="1" stop-color="#28A87F"/>
</radialGradient>
<radialGradient id="paint5_diamond_695_455" cx="0" cy="0" r="1" gradientUnits="userSpaceOnUse" gradientTransform="translate(181.25 95.165) rotate(90) scale(5.69331 22.5794)">
<stop stop-color="#28A8A5"/>
<stop offset="1" stop-color="#28A87F"/>
</radialGradient>
<radialGradient id="paint6_diamond_695_455" cx="0" cy="0" r="1" gradientUnits="userSpaceOnUse" gradientTransform="translate(150 82.5577) rotate(90) scale(5.69331 22.5794)">
<stop stop-color="#28A8A5"/>
<stop offset="1" stop-color="#28A87F"/>
</radialGradient>
<radialGradient id="paint7_diamond_695_455" cx="0" cy="0" r="1" gradientUnits="userSpaceOnUse" gradientTransform="translate(181.25 82.5577) rotate(90) scale(5.69331 22.5794)">
<stop stop-color="#28A8A5"/>
<stop offset="1" stop-color="#28A87F"/>
</radialGradient>
<radialGradient id="paint8_diamond_695_455" cx="0" cy="0" r="1" gradientUnits="userSpaceOnUse" gradientTransform="translate(150 69.9504) rotate(90) scale(5.69331 22.5794)">
<stop stop-color="#28A8A5"/>
<stop offset="1" stop-color="#28A87F"/>
</radialGradient>
<radialGradient id="paint9_diamond_695_455" cx="0" cy="0" r="1" gradientUnits="userSpaceOnUse" gradientTransform="translate(181.25 69.9504) rotate(90) scale(5.69331 22.5794)">
<stop stop-color="#28A8A5"/>
<stop offset="1" stop-color="#28A87F"/>
</radialGradient>
</defs>
</svg>
