<svg width="48" height="48" viewBox="0 0 48 48" fill="#EEEEEE" xmlns="http://www.w3.org/2000/svg">
<g clip-path="url(#clip0_545_146)">
<path d="M43.2163 2.46419C43.2163 3.78516 44.2872 4.85602 45.6082 4.85602C46.9291 4.85602 48 3.78516 48 2.46419C48 1.14322 46.9291 0.0723571 45.6082 0.0723571C44.2872 0.072357 43.2163 1.14322 43.2163 2.46419Z" fill="#28A8A5"/>
<path d="M35.9685 9.56734C35.9685 10.8883 37.0394 11.9592 38.3604 11.9592C39.6813 11.9592 40.7522 10.8883 40.7522 9.56734C40.7522 8.24637 39.6813 7.17551 38.3604 7.17551C37.0394 7.17551 35.9685 8.24637 35.9685 9.56734Z" fill="#28A8A5"/>
<path d="M43.2163 9.56734C43.2163 10.8883 44.2872 11.9592 45.6082 11.9592C46.9291 11.9592 48 10.8883 48 9.56734C48 8.24637 46.9291 7.17551 45.6082 7.17551C44.2872 7.17551 43.2163 8.24637 43.2163 9.56734Z" fill="#28A8A5"/>
<path d="M35.9685 16.8156C35.9685 18.1365 37.0394 19.2074 38.3604 19.2074C39.6813 19.2074 40.7522 18.1365 40.7522 16.8156C40.7522 15.4946 39.6813 14.4237 38.3604 14.4237C37.0394 14.4237 35.9685 15.4946 35.9685 16.8156Z" fill="#28A8A5"/>
<path d="M28.8653 16.8156C28.8653 18.1365 29.9361 19.2074 31.2571 19.2074C32.5781 19.2074 33.6489 18.1365 33.6489 16.8156C33.6489 15.4946 32.5781 14.4237 31.2571 14.4237C29.9361 14.4237 28.8653 15.4946 28.8653 16.8156Z" fill="#28A8A5"/>
<path d="M43.2163 16.8156C43.2163 18.1365 44.2872 19.2074 45.6082 19.2074C46.9291 19.2074 48 18.1365 48 16.8156C48 15.4946 46.9291 14.4237 45.6082 14.4237C44.2872 14.4237 43.2163 15.4946 43.2163 16.8156Z" fill="#28A8A5"/>
<path d="M35.9685 23.9187C35.9685 25.2396 37.0394 26.3105 38.3604 26.3105C39.6813 26.3105 40.7522 25.2396 40.7522 23.9187C40.7522 22.5977 39.6813 21.5268 38.3604 21.5268C37.0394 21.5268 35.9685 22.5977 35.9685 23.9187Z" fill="#28A8A5"/>
<path d="M28.8653 23.9187C28.8653 25.2396 29.9361 26.3105 31.2571 26.3105C32.5781 26.3105 33.6489 25.2396 33.6489 23.9187C33.6489 22.5977 32.5781 21.5268 31.2571 21.5268C29.9361 21.5268 28.8653 22.5977 28.8653 23.9187Z" fill="#28A8A5"/>
<path d="M43.2163 23.9187C43.2163 25.2396 44.2872 26.3105 45.6082 26.3105C46.9291 26.3105 48 25.2396 48 23.9187C48 22.5977 46.9291 21.5268 45.6082 21.5268C44.2872 21.5268 43.2163 22.5977 43.2163 23.9187Z" fill="#28A8A5"/>
<path d="M35.9685 31.0217C35.9685 32.3427 37.0394 33.4135 38.3604 33.4135C39.6813 33.4135 40.7522 32.3427 40.7522 31.0217C40.7522 29.7007 39.6813 28.6299 38.3604 28.6299C37.0394 28.6299 35.9685 29.7007 35.9685 31.0217Z" fill="#28A8A5"/>
<path d="M28.8653 31.0217C28.8653 32.3427 29.9361 33.4135 31.2571 33.4135C32.5781 33.4135 33.6489 32.3427 33.6489 31.0217C33.6489 29.7007 32.5781 28.6299 31.2571 28.6299C29.9361 28.6299 28.8653 29.7007 28.8653 31.0217Z" fill="#28A8A5"/>
<path d="M21.7622 23.9187C21.7622 25.2396 22.8331 26.3105 24.1541 26.3105C25.475 26.3105 26.5459 25.2396 26.5459 23.9187C26.5459 22.5977 25.475 21.5268 24.1541 21.5268C22.8331 21.5268 21.7622 22.5977 21.7622 23.9187Z" fill="#28A8A5"/>
<path d="M21.7622 31.0217C21.7622 32.3427 22.8331 33.4135 24.1541 33.4135C25.475 33.4135 26.5459 32.3427 26.5459 31.0217C26.5459 29.7007 25.475 28.6299 24.1541 28.6299C22.8331 28.6299 21.7622 29.7007 21.7622 31.0217Z" fill="#28A8A5"/>
<path d="M14.5141 16.8156C14.5141 18.1366 15.585 19.2076 16.9061 19.2076C18.2272 19.2076 19.2981 18.1366 19.2981 16.8156C19.2981 15.4945 18.2272 14.4236 16.9061 14.4236C15.585 14.4236 14.5141 15.4945 14.5141 16.8156Z" fill="#28A8A5"/>
<path d="M14.5141 23.9186C14.5141 25.2397 15.585 26.3106 16.9061 26.3106C18.2272 26.3106 19.2981 25.2397 19.2981 23.9186C19.2981 22.5976 18.2272 21.5266 16.9061 21.5266C15.585 21.5266 14.5141 22.5976 14.5141 23.9186Z" fill="#28A8A5"/>
<path d="M14.5141 31.0217C14.5141 32.3428 15.585 33.4137 16.9061 33.4137C18.2272 33.4137 19.2981 32.3428 19.2981 31.0217C19.2981 29.7007 18.2272 28.6297 16.9061 28.6297C15.585 28.6297 14.5141 29.7007 14.5141 31.0217Z" fill="#28A8A5"/>
<path d="M7.40238 9.56734C7.40238 10.8883 8.47323 11.9592 9.79421 11.9592C11.1152 11.9592 12.186 10.8883 12.186 9.56734C12.186 8.24637 11.1152 7.17551 9.79421 7.17551C8.47323 7.17551 7.40238 8.24637 7.40238 9.56734Z" fill="#28A8A5"/>
<path d="M7.40238 16.8156C7.40238 18.1365 8.47323 19.2074 9.79421 19.2074C11.1152 19.2074 12.186 18.1365 12.186 16.8156C12.186 15.4946 11.1152 14.4237 9.79421 14.4237C8.47323 14.4237 7.40238 15.4946 7.40238 16.8156Z" fill="#28A8A5"/>
<path d="M7.40238 23.9187C7.40238 25.2396 8.47323 26.3105 9.79421 26.3105C11.1152 26.3105 12.186 25.2396 12.186 23.9187C12.186 22.5977 11.1152 21.5268 9.79421 21.5268C8.47323 21.5268 7.40238 22.5977 7.40238 23.9187Z" fill="#28A8A5"/>
<path d="M7.40238 31.0217C7.40238 32.3427 8.47323 33.4135 9.79421 33.4135C11.1152 33.4135 12.186 32.3427 12.186 31.0217C12.186 29.7007 11.1152 28.6299 9.79421 28.6299C8.47323 28.6299 7.40238 29.7007 7.40238 31.0217Z" fill="#28A8A5"/>
<path d="M28.8653 38.4238C28.8653 39.7448 29.9361 40.8156 31.2571 40.8156C32.5781 40.8156 33.6489 39.7448 33.6489 38.4238C33.6489 37.1028 32.5781 36.032 31.2571 36.032C29.9361 36.032 28.8653 37.1028 28.8653 38.4238Z" fill="#28A8A5"/>
<path d="M21.7622 38.4238C21.7622 39.7448 22.8331 40.8156 24.1541 40.8156C25.475 40.8156 26.5459 39.7448 26.5459 38.4238C26.5459 37.1028 25.475 36.032 24.1541 36.032C22.8331 36.032 21.7622 37.1028 21.7622 38.4238Z" fill="#28A8A5"/>
<path d="M14.5141 38.4238C14.5141 39.7449 15.585 40.8158 16.9061 40.8158C18.2272 40.8158 19.2981 39.7449 19.2981 38.4238C19.2981 37.1028 18.2272 36.0318 16.9061 36.0318C15.585 36.0318 14.5141 37.1028 14.5141 38.4238Z" fill="#28A8A5"/>
<path d="M-5.20798e-05 2.46426C-5.21376e-05 3.78532 1.07088 4.85625 2.39194 4.85625C3.713 4.85625 4.78394 3.78532 4.78394 2.46426C4.78394 1.1432 3.713 0.0722656 2.39194 0.0722655C1.07088 0.0722655 -5.20221e-05 1.1432 -5.20798e-05 2.46426Z" fill="#28A8A5"/>
<path d="M-5.20798e-05 9.56735C-5.21376e-05 10.8884 1.07088 11.9593 2.39194 11.9593C3.713 11.9593 4.78394 10.8884 4.78394 9.56735C4.78394 8.24629 3.713 7.17535 2.39194 7.17535C1.07088 7.17535 -5.20221e-05 8.24629 -5.20798e-05 9.56735Z" fill="#28A8A5"/>
<path d="M-5.20798e-05 16.8156C-5.21376e-05 18.1366 1.07088 19.2076 2.39194 19.2076C3.713 19.2076 4.78394 18.1366 4.78394 16.8156C4.78394 15.4945 3.713 14.4236 2.39194 14.4236C1.07088 14.4236 -5.20221e-05 15.4945 -5.20798e-05 16.8156Z" fill="#28A8A5"/>
<path d="M-5.20798e-05 23.9186C-5.21376e-05 25.2397 1.07088 26.3106 2.39194 26.3106C3.713 26.3106 4.78394 25.2397 4.78394 23.9186C4.78394 22.5976 3.713 21.5266 2.39194 21.5266C1.07088 21.5266 -5.20221e-05 22.5976 -5.20798e-05 23.9186Z" fill="#28A8A5"/>
<path d="M21.7622 45.5358C21.7622 46.8567 22.8331 47.9276 24.1541 47.9276C25.475 47.9276 26.5459 46.8567 26.5459 45.5358C26.5459 44.2148 25.475 43.1439 24.1541 43.1439C22.8331 43.1439 21.7622 44.2148 21.7622 45.5358Z" fill="#28A8A5"/>
</g>
<defs>
<clipPath id="clip0_545_146">
<rect width="48" height="48" fill="white" transform="translate(48) rotate(90)"/>
</clipPath>
</defs>
</svg>
