<svg width="60" height="60" viewBox="0 0 60 60" fill="none" xmlns="http://www.w3.org/2000/svg">
<path d="M54.6889 25.7732C55.398 25.7732 55.9729 25.1983 55.9729 24.4892C55.9729 23.78 55.398 23.2051 54.6889 23.2051H50.3836V20.2607H54.6889C55.398 20.2607 55.9729 19.6858 55.9729 18.9766C55.9729 18.2675 55.398 17.6926 54.6889 17.6926H50.3836V15.8994C50.3836 15.559 50.2485 15.2326 50.0078 14.9918L46.6324 11.6134C46.3917 11.3724 46.0648 11.237 45.7241 11.237H43.9305V6.93566C43.9305 6.22651 43.3556 5.65161 42.6465 5.65161C41.9373 5.65161 41.3624 6.22651 41.3624 6.93566V11.237H38.4173V6.93566C38.4173 6.22651 37.8424 5.65161 37.1333 5.65161C36.4241 5.65161 35.8492 6.22651 35.8492 6.93566V11.237H31.6234V13.8051H45.1919L47.8156 16.4309V43.5689L45.1924 46.1919H31.6233V48.76H35.8491V53.0646C35.8491 53.7737 36.424 54.3486 37.1331 54.3486C37.8423 54.3486 38.4172 53.7737 38.4172 53.0646V48.76H41.3623V53.0646C41.3623 53.7737 41.9372 54.3486 42.6464 54.3486C43.3555 54.3486 43.9304 53.7737 43.9304 53.0646V48.76H45.724C46.0645 48.76 46.3911 48.6247 46.6318 48.3839L50.0072 45.0088C50.2482 44.768 50.3834 44.4414 50.3834 44.1008V42.3043H54.6889C55.398 42.3043 55.9729 41.7294 55.9729 41.0202C55.9729 40.3111 55.398 39.7362 54.6889 39.7362H50.3836V36.795H54.6889C55.398 36.795 55.9729 36.2201 55.9729 35.5109C55.9729 34.8018 55.398 34.2269 54.6889 34.2269H50.3836V31.2825H54.6889C55.398 31.2825 55.9729 30.7076 55.9729 29.9984C55.9729 29.2893 55.398 28.7144 54.6889 28.7144H50.3836V25.7732H54.6889Z" fill="#EEEEEE"/>
<path d="M43.305 42.9658H31.6233V40.3977H42.0209V19.602H31.6233V17.0339H43.305C44.0141 17.0339 44.589 17.6088 44.589 18.318V41.6818C44.589 42.3909 44.0142 42.9658 43.305 42.9658Z" fill="#EEEEEE"/>
<path d="M31.6234 28.7144H22.1423V31.2824H31.6234V28.7144Z" fill="#EEEEEE"/>
<path d="M19.1673 34.2571C16.8208 34.2571 14.9116 32.3467 14.9116 29.9984C14.9116 27.6519 16.8206 25.7429 19.1673 25.7429C21.5157 25.7429 23.4264 27.6519 23.4264 29.9984C23.4265 32.3467 21.5157 34.2571 19.1673 34.2571ZM19.1673 28.311C18.2367 28.311 17.4797 29.0679 17.4797 29.9984C17.4797 30.9306 18.2367 31.689 19.1673 31.689C20.0996 31.689 20.8583 30.9306 20.8583 29.9984C20.8584 29.068 20.0998 28.311 19.1673 28.311Z" fill="#E60C72"/>
<path d="M31.4424 23.9333H26.3384C25.9979 23.9333 25.6713 23.798 25.4306 23.5573L21.2839 19.4113L23.0997 17.5952L26.8702 21.3652H31.4424V23.9333Z" fill="#EEEEEE"/>
<path d="M20.0891 20.6565C18.9987 20.6566 17.9083 20.2414 17.0782 19.4114C17.0781 19.4113 17.0783 19.4115 17.0782 19.4114C16.2739 18.6072 15.8308 17.5379 15.8308 16.4007C15.8308 15.2633 16.2738 14.1941 17.0782 13.3898C18.7384 11.7298 21.4398 11.7298 23.0999 13.3898C23.9043 14.194 24.3473 15.2633 24.3473 16.4007C24.3473 17.538 23.9043 18.6072 23.0999 19.4115C22.2698 20.2414 21.1793 20.6563 20.0891 20.6565ZM20.0891 14.7117C19.168 14.7117 18.3989 15.4805 18.3989 16.4007C18.3989 16.8519 18.5747 17.2763 18.894 17.5954C19.5529 18.2544 20.6251 18.2544 21.284 17.5954C21.6033 17.2763 21.7791 16.8519 21.7791 16.4007C21.7791 15.4806 21.0058 14.7117 20.0891 14.7117Z" fill="#E60C72"/>
<path d="M23.1002 42.4042L21.2837 40.5889L25.4302 36.4396C25.6709 36.1986 25.9977 36.0632 26.3384 36.0632H31.4424V38.6313H26.8706L23.1002 42.4042Z" fill="#EEEEEE"/>
<path d="M20.0895 47.852C18.999 47.852 17.9084 47.4371 17.0781 46.6067C16.2751 45.8061 15.8316 44.7386 15.8308 43.602C15.8299 42.4637 16.2729 41.3935 17.0782 40.5885C18.7382 38.9285 21.4398 38.9285 23.1 40.5885C23.9052 41.3936 24.3481 42.4638 24.3473 43.602C24.3465 44.7386 23.903 45.8062 23.0987 46.6081C22.2693 47.4373 21.1796 47.852 20.0895 47.852ZM20.0891 41.9104C19.1689 41.9104 18.3983 42.6807 18.3989 43.6002C18.3991 44.0501 18.5746 44.4724 18.8926 44.7895C19.5528 45.4498 20.6253 45.4497 21.2839 44.7909C21.6033 44.4724 21.7787 44.0501 21.779 43.6002C21.7797 42.6787 21.0097 41.9104 20.0891 41.9104Z" fill="#E60C72"/>
<path d="M25.7361 0C22.528 0 19.7363 2.14996 18.8536 5.14844C16.4306 5.41249 14.188 6.49261 12.453 8.24942C10.4724 10.2546 9.3817 12.9116 9.3817 15.7305C9.3817 17.0939 9.64411 18.4447 10.1477 19.7017C8.53236 20.5789 7.14524 21.8254 6.08882 23.3591C4.74011 25.3173 4.02734 27.6131 4.02734 29.9984C4.02734 34.3535 6.38941 38.2634 10.1469 40.2984C9.64388 41.5529 9.3817 42.9027 9.3817 44.2662C9.3817 47.0852 10.4724 49.7421 12.453 51.7474C14.1879 53.504 16.4308 54.5841 18.8535 54.8483C19.736 57.8486 22.5279 60 25.7361 60C29.6904 60 32.9074 56.7833 32.9074 52.8295V7.17047C32.9073 3.21665 29.6904 0 25.7361 0ZM30.3392 52.8295C30.3392 55.3673 28.2743 57.4319 25.736 57.4319C23.8976 57.4319 22.2732 56.3316 21.5424 54.7263C22.3529 54.5692 23.1436 54.3162 23.9057 53.9666C25.0791 53.4279 26.1282 52.6907 27.0243 51.7754C27.5204 51.2687 27.5117 50.4558 27.005 49.9597C26.4982 49.4635 25.6851 49.4723 25.1891 49.979C24.5135 50.6691 23.7212 51.2254 22.8344 51.6326C21.8988 52.0618 20.9072 52.2998 19.8867 52.3417C15.5074 52.2677 11.9497 48.6522 11.9497 44.2661C11.9497 42.8798 12.3058 41.5139 12.9795 40.3161C13.1607 39.994 13.1943 39.6093 13.0716 39.2605C12.9489 38.9119 12.6818 38.6329 12.3389 38.4951C8.84976 37.0937 6.59532 33.7584 6.59532 29.9982C6.59532 26.2372 8.84952 22.9033 12.338 21.5051C12.6811 21.3676 12.9483 21.0889 13.0711 20.7404C13.1942 20.3918 13.161 20.0072 12.9801 19.6849C12.3061 18.4834 11.9497 17.1159 11.9497 15.7304C11.9497 11.3443 15.5073 7.72879 19.8866 7.65479C20.9007 7.69646 21.8932 7.93494 22.8341 8.36381C23.7224 8.77167 24.5141 9.32848 25.187 10.0188C25.6551 10.499 26.4999 10.5326 27.003 10.0422C27.5108 9.54712 27.5211 8.7342 27.0261 8.22642C26.1319 7.30914 25.082 6.57012 23.9024 6.0286C23.1384 5.68039 22.3488 5.42837 21.5422 5.27136C22.2731 3.66747 23.8975 2.56809 25.7361 2.56809C28.2743 2.56809 30.3393 4.63272 30.3393 7.17047V52.8295H30.3392Z" fill="#E60C72"/>
</svg>
