<svg width="60" height="60" viewBox="0 0 60 60" fill="none" xmlns="http://www.w3.org/2000/svg">
<path d="M37.307 19.3511L30.6363 15.5393C30.24 15.3131 29.7536 15.3131 29.3572 15.5393L22.6865 19.3511C22.2849 19.5807 22.0371 20.0078 22.0371 20.4703V42.3883C22.0371 42.8508 22.2849 43.2779 22.6865 43.5075L29.3572 47.3191C29.7535 47.5455 30.2399 47.5455 30.6362 47.3191L37.3069 43.5075C37.7086 43.2779 37.9564 42.8508 37.9564 42.3883V20.4703C37.9564 20.0078 37.7086 19.5807 37.307 19.3511ZM29.9968 18.1429L34.0696 20.4703L29.9968 22.7976L25.924 20.4703L29.9968 18.1429ZM24.6149 22.6913L28.7078 25.0301V43.979L24.6149 41.6403V22.6913ZM31.2857 43.979V25.0301L35.3786 22.6914V41.6403L31.2857 43.979Z" fill="#EEEEEE"/>
<path d="M59.9822 10.775C59.9357 10.4263 59.743 10.1045 59.4588 9.8975C59.4588 9.89773 59.4588 9.89785 59.4588 9.89808C59.4217 9.87125 59.3842 9.84489 59.3439 9.82192L52.6732 6.01012C52.2768 5.78374 51.7905 5.78374 51.3941 6.01012L44.7234 9.82192C44.3291 10.0483 44.0711 10.4847 44.074 10.9411V42.3886C44.074 42.8511 44.3218 43.2783 44.7235 43.5077L51.3942 47.3194C51.7823 47.5435 52.285 47.5434 52.6731 47.3194L59.3438 43.5077C59.7455 43.2783 59.9933 42.8511 59.9933 42.3886C59.9589 42.2034 60.0312 10.9303 59.9822 10.775ZM52.0335 8.61362L56.1064 10.9409L52.0335 13.2683L47.9607 10.9409L52.0335 8.61362ZM46.6518 13.1621L50.7447 15.5008V43.9792L46.6518 41.6405V13.1621ZM53.3225 43.9792V15.5009L57.4154 13.1621V41.6404L53.3225 43.9792Z" fill="#E60C72"/>
<path d="M15.8918 29.7499C15.8258 29.3863 15.586 29.0675 15.2697 28.881L8.5991 25.0692C8.20282 24.8428 7.71643 24.8428 7.32014 25.0692L0.6494 28.881C0.254053 29.1061 -0.00255859 29.5442 1.92437e-05 30.0001V42.3886C1.92437e-05 42.8511 0.247843 43.2782 0.6494 43.5078L7.32014 47.3195C7.70834 47.5435 8.2109 47.5436 8.5991 47.3195L15.2697 43.5078C15.6713 43.2782 15.9191 42.8511 15.9191 42.3886V30.0001C15.9188 29.9152 15.9116 29.8318 15.8918 29.7499ZM7.95956 27.6728L12.0323 30.0001L7.95956 32.3275L3.88681 30.0001L7.95956 27.6728ZM2.57774 32.2212L6.67064 34.56V43.9793L2.57774 41.6406V32.2212ZM9.24848 43.9793V34.56L13.3413 32.2212V41.6406L9.24848 43.9793Z" fill="#970047"/>
<path d="M31.9027 54.1599H28.0909C27.3791 54.1599 26.802 53.5828 26.802 52.871C26.802 52.1591 27.3791 51.582 28.0909 51.582H31.9027C33.6115 51.6494 33.6129 54.0918 31.9027 54.1599Z" fill="#EEEEEE"/>
<path d="M54.0587 54.1599H50.2469C49.5351 54.1599 48.958 53.5828 48.958 52.871C48.958 52.1591 49.5351 51.582 50.2469 51.582H54.0587C55.7675 51.6494 55.7689 54.0918 54.0587 54.1599Z" fill="#EEEEEE"/>
<path d="M9.74636 54.1599H5.93467C5.22284 54.1599 4.64575 53.5828 4.64575 52.871C4.64575 52.1591 5.22284 51.582 5.93467 51.582H9.74647C11.4551 51.6494 11.4566 54.0918 9.74636 54.1599Z" fill="#EEEEEE"/>
</svg>
