<svg width="60" height="60" viewBox="0 0 60 60" fill="none" xmlns="http://www.w3.org/2000/svg">
<path d="M17.989 46.7H13.2444C13.3575 47.1108 13.4191 47.5428 13.4191 47.989C13.4191 48.4353 13.3575 48.8672 13.2444 49.2781H19.278C19.9899 49.2781 20.5671 48.7009 20.5671 47.989V31.1699H17.989V46.7Z" fill="#E60C72"/>
<path d="M28.7109 50.4487C29.1218 50.3356 29.5537 50.2739 30 50.2739C30.4463 50.2739 30.8782 50.3356 31.2891 50.4487V31.1699H28.7109V50.4487Z" fill="#970047"/>
<path d="M46.7556 46.7H42.011V31.1699H39.4329V47.9889C39.4329 48.7008 40.01 49.278 40.7219 49.278H46.7556C46.6425 48.8671 46.5808 48.4352 46.5808 47.9889C46.5808 47.5427 46.6425 47.1108 46.7556 46.7Z" fill="#E60C72"/>
<path d="M48.0339 10.9119C47.4627 10.7955 46.8759 10.7378 46.2945 10.7239C44.3778 6.4091 40.1009 3.5741 35.361 3.5741C34.8759 3.5741 34.4135 3.61676 33.99 3.67383C31.4284 1.29949 28.1335 0 24.6391 0C18.0754 0 12.4339 4.71773 11.1636 11.1138C6.78394 12.3325 3.69312 16.3307 3.69312 20.9459C3.69312 26.5834 8.2796 31.1699 13.9171 31.1699H46.0829C51.7204 31.1699 56.3069 26.5834 56.3069 20.9459C56.3069 15.9758 52.7409 11.8256 48.0339 10.9119ZM46.083 28.5918H13.9171C9.7012 28.5918 6.27124 25.1618 6.27124 20.9459C6.27124 17.2654 8.90245 14.1096 12.5278 13.4423C14.1957 13.0095 15.8182 13.5568 17.3944 14.0027C18.7592 14.0293 19.1847 12.0479 17.8972 11.526C16.6278 10.989 15.2753 10.7179 13.9108 10.7201C15.2649 5.98043 19.6194 2.57812 24.6391 2.57812C27.6595 2.57812 30.4985 3.77531 32.6332 5.94902C32.9293 6.25031 33.354 6.38801 33.7706 6.31641C34.2448 6.23531 34.8048 6.15223 35.3612 6.15223C38.8001 6.15223 41.9287 8.06133 43.5703 11.0332C43.072 11.1596 42.5816 11.3236 42.1031 11.526C40.8181 12.0221 41.2544 14.0508 42.6058 14.0026C44.1119 13.5701 45.6623 13.0854 47.2517 13.3895C50.9149 13.9538 53.7289 17.1273 53.7289 20.946C53.7288 25.1619 50.2989 28.5918 46.083 28.5918Z" fill="#EEEEEE"/>
<path d="M8.55616 52.8521C5.87468 52.8521 3.69312 50.6705 3.69312 47.989C3.69312 45.3075 5.87468 43.126 8.55616 43.126C11.2376 43.126 13.4192 45.3075 13.4192 47.989C13.4192 50.6705 11.2378 52.8521 8.55616 52.8521ZM8.55616 45.7041C7.29628 45.7041 6.27124 46.7291 6.27124 47.989C6.27124 49.2489 7.29628 50.2739 8.55616 50.2739C9.81605 50.2739 10.8411 49.2489 10.8411 47.989C10.8411 46.7291 9.81616 45.7041 8.55616 45.7041Z" fill="#EEEEEE"/>
<path d="M30 60C27.3185 60 25.137 57.8185 25.137 55.137C25.137 52.4555 27.3185 50.2739 30 50.2739C32.6815 50.2739 34.8631 52.4555 34.8631 55.137C34.8631 57.8185 32.6815 60 30 60ZM30 52.8521C28.7401 52.8521 27.7151 53.8771 27.7151 55.137C27.7151 56.3969 28.7401 57.4219 30 57.4219C31.2599 57.4219 32.2849 56.3969 32.2849 55.137C32.2849 53.8771 31.2599 52.8521 30 52.8521Z" fill="#EEEEEE"/>
<path d="M51.4439 52.8521C48.7624 52.8521 46.5808 50.6705 46.5808 47.989C46.5808 45.3075 48.7624 43.126 51.4439 43.126C54.1253 43.126 56.3069 45.3075 56.3069 47.989C56.3069 50.6705 54.1253 52.8521 51.4439 52.8521ZM51.4439 45.7041C50.184 45.7041 49.1589 46.7291 49.1589 47.989C49.1589 49.2489 50.184 50.2739 51.4439 50.2739C52.7037 50.2739 53.7288 49.2489 53.7288 47.989C53.7288 46.7291 52.7037 45.7041 51.4439 45.7041Z" fill="#EEEEEE"/>
</svg>
